{"glyphs":{"0":{"ha":836,"x_min":38,"x_max":799,"o":"m 418 967 q 700 838 601 967 q 799 471 799 710 q 700 102 799 232 q 418 -28 601 -28 q 136 102 235 -28 q 38 471 38 232 q 136 838 38 710 q 418 967 235 967 m 418 768 q 358 742 379 768 q 327 653 336 717 q 318 471 318 589 q 327 288 318 351 q 358 199 336 225 q 418 172 379 172 q 479 197 458 172 q 509 285 500 221 q 518 471 518 349 q 509 658 518 594 q 479 744 500 721 q 418 768 458 768 z "},"1":{"ha":669,"x_min":0,"x_max":579,"o":"m 579 944 l 579 0 l 313 0 l 313 683 l 119 565 l 0 744 l 335 944 l 579 944 z "},"2":{"ha":736,"x_min":-7,"x_max":708,"o":"m 339 967 q 531 929 451 967 q 649 828 610 892 q 689 690 689 765 q 663 558 689 619 q 563 414 638 497 q 343 206 489 331 l 708 206 l 681 0 l 32 0 l 32 189 q 270 424 193 342 q 378 558 347 506 q 408 660 408 611 q 382 734 408 707 q 308 761 356 761 q 226 738 263 761 q 150 667 189 715 l -7 792 q 140 919 53 872 q 339 967 228 967 z "},"3":{"ha":739,"x_min":-21,"x_max":711,"o":"m 343 967 q 526 936 450 967 q 640 851 601 906 q 679 728 679 797 q 632 585 679 643 q 493 499 585 526 q 650 430 589 488 q 711 263 711 372 q 667 117 711 183 q 537 12 624 51 q 328 -28 450 -28 q -21 125 104 -28 l 122 265 q 213 198 171 218 q 308 178 256 178 q 397 206 363 178 q 431 286 431 233 q 398 374 431 346 q 296 401 365 401 l 213 401 l 243 585 l 300 585 q 386 610 357 585 q 415 681 415 636 q 387 745 415 722 q 308 768 358 768 q 131 689 213 768 l -4 831 q 343 967 136 967 z "},"4":{"ha":813,"x_min":28,"x_max":792,"o":"m 792 389 l 792 186 l 694 186 l 694 0 l 425 0 l 424 186 l 28 186 l 28 365 l 288 974 l 522 890 l 310 389 l 426 389 l 458 594 l 694 594 l 694 389 l 792 389 z "},"5":{"ha":774,"x_min":7,"x_max":739,"o":"m 660 753 l 333 753 l 333 601 q 465 631 397 631 q 605 594 543 631 q 703 486 667 557 q 739 318 739 415 q 690 137 739 215 q 551 15 642 58 q 342 -28 461 -28 q 7 129 132 -28 l 158 267 q 329 175 228 175 q 425 210 392 175 q 458 314 458 246 q 430 417 458 386 q 349 449 401 449 q 249 415 303 449 l 69 415 l 69 944 l 689 944 l 660 753 z "},"6":{"ha":808,"x_min":38,"x_max":788,"o":"m 511 644 q 656 606 593 644 q 753 494 718 567 q 788 324 788 422 q 744 149 788 229 q 618 21 701 69 q 421 -28 535 -28 q 133 93 229 -28 q 38 425 38 214 q 92 710 38 588 q 246 899 146 832 q 482 967 346 967 q 608 949 550 967 q 708 903 665 932 l 610 743 q 552 769 579 760 q 490 778 525 778 q 381 728 424 778 q 326 578 339 678 q 511 644 410 644 m 424 164 q 491 206 469 164 q 513 322 513 247 q 492 431 513 400 q 425 463 472 463 q 326 421 376 463 q 335 267 326 322 q 365 188 344 213 q 424 164 386 164 z "},"7":{"ha":669,"x_min":7,"x_max":656,"o":"m 656 944 l 656 764 l 313 -28 l 64 56 l 367 742 l 7 742 l 7 944 l 656 944 z "},"8":{"ha":832,"x_min":28,"x_max":804,"o":"m 622 507 q 760 397 717 458 q 804 257 804 335 q 758 115 804 181 q 624 11 713 50 q 410 -28 535 -28 q 204 10 290 -28 q 73 113 118 49 q 28 253 28 176 q 72 388 28 331 q 196 481 115 446 q 64 707 64 567 q 107 840 64 781 q 231 933 150 899 q 417 967 311 967 q 673 901 578 967 q 768 721 768 835 q 732 606 768 663 q 622 507 696 549 m 418 788 q 353 766 376 788 q 329 703 329 744 q 347 640 329 667 q 407 592 365 613 l 440 578 q 490 638 478 607 q 503 706 503 668 q 481 765 503 743 q 418 788 460 788 m 419 164 q 503 192 475 164 q 532 261 532 219 q 507 333 532 307 q 422 385 482 360 l 369 404 q 317 346 335 381 q 300 269 300 311 q 333 193 300 222 q 419 164 365 164 z "},"9":{"ha":808,"x_min":21,"x_max":781,"o":"m 400 967 q 608 920 522 967 q 738 791 694 874 q 781 601 781 708 q 713 281 781 411 q 503 71 644 150 q 142 -44 363 -8 l 88 144 q 285 201 210 171 q 406 277 360 232 q 481 393 453 322 q 399 336 442 354 q 296 318 357 318 q 158 356 221 318 q 58 466 96 394 q 21 633 21 538 q 70 806 21 731 q 206 924 119 882 q 400 967 293 967 m 388 504 q 447 519 418 504 q 499 567 476 535 q 491 692 500 647 q 460 758 482 738 q 397 778 439 778 q 324 744 351 778 q 296 647 296 711 q 388 504 296 504 z "},"\r":{"ha":306,"x_min":0,"x_max":0,"o":""}," ":{"ha":306,"x_min":0,"x_max":0,"o":""},"A":{"ha":835,"x_min":-35,"x_max":869,"o":"m 567 0 l 529 188 l 300 188 l 264 0 l -35 0 l 247 967 l 589 967 l 869 0 l 567 0 m 340 388 l 489 388 l 414 767 l 340 388 z "},"Á":{"ha":835,"x_min":-35,"x_max":869,"o":"m 567 0 l 529 188 l 300 188 l 264 0 l -35 0 l 247 967 l 589 967 l 869 0 l 567 0 m 340 388 l 489 388 l 414 767 l 340 388 m 532 1367 l 629 1167 l 276 1040 l 207 1178 l 532 1367 z "},"Ă":{"ha":835,"x_min":-35,"x_max":869,"o":"m 567 0 l 529 188 l 300 188 l 264 0 l -35 0 l 247 967 l 589 967 l 869 0 l 567 0 m 340 388 l 489 388 l 414 767 l 340 388 m 418 1036 q 236 1112 301 1036 q 161 1294 171 1188 l 304 1318 q 345 1249 317 1276 q 418 1222 374 1222 q 491 1249 463 1222 q 532 1318 519 1276 l 675 1294 q 600 1112 665 1188 q 418 1036 535 1036 z "},"Ắ":{"ha":835,"x_min":-35,"x_max":869,"o":"m 567 0 l 529 188 l 300 188 l 264 0 l -35 0 l 247 967 l 589 967 l 869 0 l 567 0 m 340 388 l 489 388 l 414 767 l 340 388 m 419 1021 q 238 1097 303 1021 q 163 1279 172 1172 l 306 1303 q 347 1234 318 1261 q 419 1207 375 1207 q 492 1234 464 1207 q 533 1303 521 1261 l 676 1279 q 601 1097 667 1172 q 419 1021 536 1021 m 517 1622 l 661 1481 l 424 1274 l 322 1364 l 517 1622 z "},"Ặ":{"ha":835,"x_min":-35,"x_max":869,"o":"m 567 0 l 529 188 l 300 188 l 264 0 l -35 0 l 247 967 l 589 967 l 869 0 l 567 0 m 340 388 l 489 388 l 414 767 l 340 388 m 418 1036 q 236 1112 301 1036 q 161 1294 171 1188 l 304 1318 q 345 1249 317 1276 q 418 1222 374 1222 q 491 1249 463 1222 q 532 1318 519 1276 l 675 1294 q 600 1112 665 1188 q 418 1036 535 1036 m 418 -367 q 308 -324 351 -367 q 264 -219 264 -282 q 308 -115 264 -157 q 418 -72 351 -72 q 528 -115 485 -72 q 572 -219 572 -157 q 528 -324 572 -282 q 418 -367 485 -367 z "},"Ằ":{"ha":835,"x_min":-35,"x_max":869,"o":"m 567 0 l 529 188 l 300 188 l 264 0 l -35 0 l 247 967 l 589 967 l 869 0 l 567 0 m 340 388 l 489 388 l 414 767 l 340 388 m 419 1021 q 238 1097 303 1021 q 163 1279 172 1172 l 306 1303 q 347 1234 318 1261 q 419 1207 375 1207 q 492 1234 464 1207 q 533 1303 521 1261 l 676 1279 q 601 1097 667 1172 q 419 1021 536 1021 m 315 1622 l 510 1364 l 408 1274 l 171 1481 l 315 1622 z "},"Ẳ":{"ha":835,"x_min":-35,"x_max":869,"o":"m 567 0 l 529 188 l 300 188 l 264 0 l -35 0 l 247 967 l 589 967 l 869 0 l 567 0 m 340 388 l 489 388 l 414 767 l 340 388 m 419 1021 q 238 1097 303 1021 q 163 1279 172 1172 l 306 1303 q 347 1234 318 1261 q 419 1207 375 1207 q 492 1234 464 1207 q 533 1303 521 1261 l 676 1279 q 601 1097 667 1172 q 419 1021 536 1021 m 347 1415 q 423 1428 400 1417 q 446 1464 446 1439 q 432 1492 446 1482 q 394 1503 418 1503 q 352 1499 371 1503 q 308 1485 333 1494 l 268 1588 q 432 1626 333 1626 q 569 1585 521 1626 q 618 1476 618 1543 q 588 1386 618 1421 q 499 1340 557 1351 l 499 1286 l 347 1286 l 347 1415 z "},"Ẵ":{"ha":835,"x_min":-35,"x_max":869,"o":"m 567 0 l 529 188 l 300 188 l 264 0 l -35 0 l 247 967 l 589 967 l 869 0 l 567 0 m 340 388 l 489 388 l 414 767 l 340 388 m 419 1021 q 238 1097 303 1021 q 163 1279 172 1172 l 306 1303 q 347 1234 318 1261 q 419 1207 375 1207 q 492 1234 464 1207 q 533 1303 521 1261 l 676 1279 q 601 1097 667 1172 q 419 1021 536 1021 m 501 1339 q 445 1348 468 1339 q 396 1372 422 1357 q 376 1383 393 1374 q 344 1392 360 1392 q 304 1380 319 1392 q 271 1339 289 1368 l 142 1394 q 222 1517 171 1469 q 338 1565 272 1565 q 397 1556 372 1565 q 447 1531 421 1547 q 467 1520 450 1529 q 499 1511 483 1511 q 538 1524 522 1511 q 571 1565 553 1536 l 700 1508 q 619 1386 671 1433 q 501 1339 568 1339 z "},"Ǎ":{"ha":835,"x_min":-35,"x_max":869,"o":"m 567 0 l 529 188 l 300 188 l 264 0 l -35 0 l 247 967 l 589 967 l 869 0 l 567 0 m 340 388 l 489 388 l 414 767 l 340 388 m 608 1340 l 701 1233 l 500 1038 l 336 1038 l 135 1233 l 228 1340 l 418 1221 l 608 1340 z "},"Â":{"ha":835,"x_min":-35,"x_max":869,"o":"m 567 0 l 529 188 l 300 188 l 264 0 l -35 0 l 247 967 l 589 967 l 869 0 l 567 0 m 340 388 l 489 388 l 414 767 l 340 388 m 228 1044 l 135 1151 l 336 1347 l 500 1347 l 701 1151 l 608 1044 l 418 1164 l 228 1044 z "},"Ấ":{"ha":835,"x_min":-35,"x_max":908,"o":"m 567 0 l 529 188 l 300 188 l 264 0 l -35 0 l 247 967 l 589 967 l 869 0 l 567 0 m 340 388 l 489 388 l 414 767 l 340 388 m 228 1006 l 135 1113 l 336 1308 l 500 1308 l 701 1113 l 608 1006 l 418 1125 l 228 1006 m 764 1581 l 908 1439 l 671 1232 l 569 1322 l 764 1581 z "},"Ậ":{"ha":835,"x_min":-35,"x_max":869,"o":"m 567 0 l 529 188 l 300 188 l 264 0 l -35 0 l 247 967 l 589 967 l 869 0 l 567 0 m 340 388 l 489 388 l 414 767 l 340 388 m 228 1044 l 135 1151 l 336 1347 l 500 1347 l 701 1151 l 608 1044 l 418 1164 l 228 1044 m 418 -367 q 308 -324 351 -367 q 264 -219 264 -282 q 308 -115 264 -157 q 418 -72 351 -72 q 528 -115 485 -72 q 572 -219 572 -157 q 528 -324 572 -282 q 418 -367 485 -367 z "},"Ầ":{"ha":835,"x_min":-71,"x_max":869,"o":"m 567 0 l 529 188 l 300 188 l 264 0 l -35 0 l 247 967 l 589 967 l 869 0 l 567 0 m 340 388 l 489 388 l 414 767 l 340 388 m 226 1006 l 133 1113 l 335 1308 l 499 1308 l 700 1113 l 607 1006 l 417 1125 l 226 1006 m 74 1581 l 268 1322 l 167 1232 l -71 1439 l 74 1581 z "},"Ẩ":{"ha":835,"x_min":-35,"x_max":871,"o":"m 567 0 l 529 188 l 300 188 l 264 0 l -35 0 l 247 967 l 589 967 l 869 0 l 567 0 m 340 388 l 489 388 l 414 767 l 340 388 m 226 1006 l 133 1113 l 335 1308 l 499 1308 l 700 1113 l 607 1006 l 417 1125 l 226 1006 m 600 1350 q 676 1363 653 1351 q 699 1399 699 1374 q 685 1427 699 1417 q 647 1438 671 1438 q 605 1433 624 1438 q 561 1419 586 1429 l 521 1522 q 685 1561 586 1561 q 822 1519 774 1561 q 871 1411 871 1478 q 840 1321 871 1356 q 751 1275 810 1286 l 751 1221 l 600 1221 l 600 1350 z "},"Ẫ":{"ha":835,"x_min":-35,"x_max":869,"o":"m 567 0 l 529 188 l 300 188 l 264 0 l -35 0 l 247 967 l 589 967 l 869 0 l 567 0 m 340 388 l 489 388 l 414 767 l 340 388 m 225 1006 l 132 1113 l 333 1308 l 497 1308 l 699 1113 l 606 1006 l 415 1125 l 225 1006 m 496 1344 q 440 1353 463 1344 q 390 1378 417 1363 q 371 1388 388 1379 q 339 1397 354 1397 q 299 1385 314 1397 q 265 1344 283 1374 l 136 1400 q 216 1523 165 1475 q 332 1571 267 1571 q 391 1562 367 1571 q 442 1536 415 1553 q 461 1526 444 1535 q 493 1517 478 1517 q 532 1529 517 1517 q 565 1571 547 1542 l 694 1514 q 614 1392 665 1439 q 496 1344 563 1344 z "},"Ȁ":{"ha":835,"x_min":-35,"x_max":869,"o":"m 567 0 l 529 188 l 300 188 l 264 0 l -35 0 l 247 967 l 589 967 l 869 0 l 567 0 m 340 388 l 489 388 l 414 767 l 340 388 m 229 1393 l 374 1100 l 240 1036 l 58 1308 l 229 1393 m 493 1393 l 626 1096 l 490 1042 l 319 1315 l 493 1393 z "},"Ä":{"ha":835,"x_min":-35,"x_max":869,"o":"m 567 0 l 529 188 l 300 188 l 264 0 l -35 0 l 247 967 l 589 967 l 869 0 l 567 0 m 340 388 l 489 388 l 414 767 l 340 388 m 244 1311 q 338 1274 300 1311 q 376 1183 376 1236 q 338 1092 376 1129 q 244 1054 300 1054 q 151 1092 190 1054 q 113 1183 113 1129 q 151 1274 113 1236 q 244 1311 190 1311 m 585 1311 q 678 1274 640 1311 q 717 1183 717 1236 q 678 1092 717 1129 q 585 1054 640 1054 q 492 1092 531 1054 q 453 1183 453 1129 q 492 1274 453 1236 q 585 1311 531 1311 z "},"Ǟ":{"ha":835,"x_min":-35,"x_max":869,"o":"m 567 0 l 529 188 l 300 188 l 264 0 l -35 0 l 247 967 l 589 967 l 869 0 l 567 0 m 340 388 l 489 388 l 414 767 l 340 388 m 247 1292 q 341 1254 303 1292 q 379 1164 379 1217 q 341 1072 379 1110 q 247 1035 303 1035 q 154 1072 193 1035 q 115 1164 115 1110 q 154 1254 115 1217 q 247 1292 193 1292 m 588 1292 q 681 1254 643 1292 q 719 1164 719 1217 q 681 1072 719 1110 q 588 1035 643 1035 q 494 1072 533 1035 q 456 1164 456 1110 q 494 1254 456 1217 q 588 1292 533 1292 m 649 1338 l 197 1338 l 197 1524 l 649 1524 l 649 1338 z "},"Ȧ":{"ha":835,"x_min":-35,"x_max":869,"o":"m 567 0 l 529 188 l 300 188 l 264 0 l -35 0 l 247 967 l 589 967 l 869 0 l 567 0 m 340 388 l 489 388 l 414 767 l 340 388 m 418 1326 q 528 1284 485 1326 q 572 1179 572 1242 q 528 1074 572 1117 q 418 1032 485 1032 q 308 1074 351 1032 q 264 1179 264 1117 q 308 1284 264 1242 q 418 1326 351 1326 z "},"Ạ":{"ha":835,"x_min":-35,"x_max":869,"o":"m 567 0 l 529 188 l 300 188 l 264 0 l -35 0 l 247 967 l 589 967 l 869 0 l 567 0 m 340 388 l 489 388 l 414 767 l 340 388 m 418 -367 q 308 -324 351 -367 q 264 -219 264 -282 q 308 -115 264 -157 q 418 -72 351 -72 q 528 -115 485 -72 q 572 -219 572 -157 q 528 -324 572 -282 q 418 -367 485 -367 z "},"Ǡ":{"ha":835,"x_min":-35,"x_max":869,"o":"m 567 0 l 529 188 l 300 188 l 264 0 l -35 0 l 247 967 l 589 967 l 869 0 l 567 0 m 340 388 l 489 388 l 414 767 l 340 388 m 413 1313 q 523 1270 479 1313 q 567 1165 567 1228 q 523 1060 567 1103 q 413 1018 479 1018 q 302 1060 346 1018 q 258 1165 258 1103 q 302 1270 258 1228 q 413 1313 346 1313 m 640 1338 l 189 1338 l 189 1524 l 640 1524 l 640 1338 z "},"À":{"ha":835,"x_min":-35,"x_max":869,"o":"m 567 0 l 529 188 l 300 188 l 264 0 l -35 0 l 247 967 l 589 967 l 869 0 l 567 0 m 340 388 l 489 388 l 414 767 l 340 388 m 306 1367 l 629 1178 l 560 1040 l 207 1167 l 306 1367 z "},"Ả":{"ha":835,"x_min":-35,"x_max":869,"o":"m 567 0 l 529 188 l 300 188 l 264 0 l -35 0 l 247 967 l 589 967 l 869 0 l 567 0 m 340 388 l 489 388 l 414 767 l 340 388 m 342 1190 q 417 1203 394 1192 q 440 1239 440 1214 q 426 1267 440 1257 q 389 1278 413 1278 q 347 1274 365 1278 q 303 1260 328 1269 l 263 1363 q 426 1401 328 1401 q 564 1360 515 1401 q 613 1251 613 1318 q 582 1161 613 1196 q 493 1115 551 1126 l 493 1061 l 342 1061 l 342 1190 z "},"Ȃ":{"ha":835,"x_min":-35,"x_max":869,"o":"m 567 0 l 529 188 l 300 188 l 264 0 l -35 0 l 247 967 l 589 967 l 869 0 l 567 0 m 340 388 l 489 388 l 414 767 l 340 388 m 418 1346 q 601 1268 536 1346 q 675 1074 665 1190 l 532 1050 q 491 1131 519 1101 q 418 1160 463 1160 q 345 1131 374 1160 q 304 1050 317 1101 l 161 1074 q 235 1268 171 1190 q 418 1346 300 1346 z "},"Ɑ":{"ha":956,"x_min":28,"x_max":943,"o":"m 886 279 q 899 211 886 235 q 943 171 911 188 l 865 -28 q 739 8 789 -17 q 656 75 689 32 q 410 -28 563 -28 q 207 33 293 -28 q 74 206 121 93 q 28 471 28 318 q 77 750 28 632 q 213 931 126 868 q 413 994 300 994 q 534 969 482 994 q 631 900 586 944 l 644 967 l 886 967 l 886 279 m 325 471 q 362 236 325 304 q 476 168 399 168 q 600 217 547 168 l 600 739 q 476 792 550 792 q 362 718 399 792 q 325 471 325 644 z "},"Ā":{"ha":835,"x_min":-35,"x_max":869,"o":"m 567 0 l 529 188 l 300 188 l 264 0 l -35 0 l 247 967 l 589 967 l 869 0 l 567 0 m 340 388 l 489 388 l 414 767 l 340 388 m 643 1075 l 192 1075 l 192 1261 l 643 1261 l 643 1075 z "},"Ą":{"ha":835,"x_min":-35,"x_max":869,"o":"m 717 0 q 592 -65 626 -31 q 557 -132 557 -100 q 628 -193 557 -193 q 713 -182 664 -193 l 696 -342 q 593 -353 647 -353 q 433 -306 496 -353 q 371 -178 371 -258 q 557 46 371 -32 l 529 188 l 300 188 l 264 0 l -35 0 l 247 967 l 589 967 l 869 0 l 717 0 m 340 388 l 489 388 l 414 767 l 340 388 z "},"Å":{"ha":835,"x_min":-35,"x_max":869,"o":"m 567 0 l 529 188 l 300 188 l 264 0 l -35 0 l 247 967 l 589 967 l 869 0 l 567 0 m 340 388 l 489 388 l 414 767 l 340 388 m 418 1406 q 532 1378 483 1406 q 606 1304 581 1350 q 632 1203 632 1258 q 606 1101 632 1147 q 532 1026 581 1054 q 418 999 483 999 q 304 1026 353 999 q 230 1101 256 1054 q 204 1203 204 1147 q 230 1304 204 1258 q 304 1378 256 1350 q 418 1406 353 1406 m 418 1267 q 378 1251 393 1267 q 363 1203 363 1235 q 378 1155 363 1171 q 418 1139 393 1139 q 458 1155 443 1139 q 474 1203 474 1171 q 458 1251 474 1235 q 418 1267 443 1267 z "},"Ǻ":{"ha":835,"x_min":-35,"x_max":869,"o":"m 567 0 l 529 188 l 300 188 l 264 0 l -35 0 l 247 967 l 589 967 l 869 0 l 567 0 m 340 388 l 489 388 l 414 767 l 340 388 m 418 1399 q 532 1371 483 1399 q 606 1297 581 1343 q 632 1196 632 1251 q 606 1094 632 1140 q 532 1019 581 1047 q 418 992 483 992 q 304 1019 353 992 q 230 1094 256 1047 q 204 1196 204 1140 q 230 1297 204 1251 q 304 1371 256 1343 q 418 1399 353 1399 m 418 1260 q 378 1244 393 1260 q 363 1196 363 1228 q 378 1148 363 1164 q 418 1132 393 1132 q 458 1148 443 1132 q 474 1196 474 1164 q 458 1244 474 1228 q 418 1260 443 1260 m 532 1729 l 629 1529 l 276 1403 l 207 1540 l 532 1729 z "},"Ⱥ":{"ha":835,"x_min":-35,"x_max":869,"o":"m 594 0 l 551 188 l 417 188 l 339 -107 l 247 -86 l 319 188 l 278 188 l 236 0 l -35 0 l 247 967 l 525 967 l 549 1054 l 639 1033 l 606 908 l 869 0 l 594 0 m 319 374 l 368 374 l 444 660 l 414 794 l 319 374 m 465 374 l 510 374 l 489 464 l 465 374 z "},"Ã":{"ha":835,"x_min":-35,"x_max":869,"o":"m 567 0 l 529 188 l 300 188 l 264 0 l -35 0 l 247 967 l 589 967 l 869 0 l 567 0 m 340 388 l 489 388 l 414 767 l 340 388 m 499 1039 q 442 1049 465 1039 q 393 1076 419 1058 q 365 1093 376 1088 q 342 1099 354 1099 q 301 1085 317 1099 q 268 1039 286 1071 l 139 1101 q 219 1237 168 1183 q 335 1290 269 1290 q 394 1281 369 1290 q 444 1253 418 1271 q 472 1236 461 1242 q 496 1231 483 1231 q 535 1244 519 1231 q 568 1290 550 1258 l 697 1228 q 617 1092 668 1144 q 499 1039 565 1039 z "},"Æ":{"ha":1199,"x_min":-42,"x_max":1171,"o":"m 847 200 l 1171 200 l 1171 0 l 606 0 l 581 188 l 326 188 l 269 0 l -42 0 l 335 967 l 1122 967 l 1093 768 l 750 768 l 782 585 l 1110 585 l 1110 392 l 814 392 l 847 200 m 388 388 l 553 388 l 503 763 l 388 388 z "},"Ǽ":{"ha":1199,"x_min":-42,"x_max":1171,"o":"m 847 200 l 1171 200 l 1171 0 l 606 0 l 581 188 l 326 188 l 269 0 l -42 0 l 335 967 l 1122 967 l 1093 768 l 750 768 l 782 585 l 1110 585 l 1110 392 l 814 392 l 847 200 m 388 388 l 553 388 l 503 763 l 388 388 m 793 1367 l 890 1167 l 538 1040 l 468 1178 l 793 1367 z "},"Ǣ":{"ha":1199,"x_min":-42,"x_max":1171,"o":"m 847 200 l 1171 200 l 1171 0 l 606 0 l 581 188 l 326 188 l 269 0 l -42 0 l 335 967 l 1122 967 l 1093 768 l 750 768 l 782 585 l 1110 585 l 1110 392 l 814 392 l 847 200 m 388 388 l 553 388 l 503 763 l 388 388 m 904 1075 l 453 1075 l 453 1261 l 904 1261 l 904 1075 z "},"B":{"ha":864,"x_min":60,"x_max":843,"o":"m 628 513 q 783 441 724 493 q 843 286 843 389 q 727 63 843 126 q 399 0 611 0 l 60 0 l 60 967 l 361 967 q 690 909 576 967 q 803 717 803 851 q 753 581 803 631 q 628 513 703 532 m 346 771 l 346 593 l 394 593 q 486 615 460 593 q 513 688 513 636 q 484 751 513 731 q 388 771 456 771 l 346 771 m 401 201 q 511 224 474 201 q 549 306 549 246 q 515 387 549 361 q 413 413 481 413 l 346 413 l 346 201 l 401 201 z "},"Ḃ":{"ha":864,"x_min":60,"x_max":843,"o":"m 628 513 q 783 441 724 493 q 843 286 843 389 q 727 63 843 126 q 399 0 611 0 l 60 0 l 60 967 l 361 967 q 690 909 576 967 q 803 717 803 851 q 753 581 803 631 q 628 513 703 532 m 346 771 l 346 593 l 394 593 q 486 615 460 593 q 513 688 513 636 q 484 751 513 731 q 388 771 456 771 l 346 771 m 401 201 q 511 224 474 201 q 549 306 549 246 q 515 387 549 361 q 413 413 481 413 l 346 413 l 346 201 l 401 201 m 404 1326 q 515 1284 471 1326 q 558 1179 558 1242 q 515 1074 558 1117 q 404 1032 471 1032 q 294 1074 338 1032 q 250 1179 250 1117 q 294 1284 250 1242 q 404 1326 338 1326 z "},"Ḅ":{"ha":864,"x_min":60,"x_max":843,"o":"m 628 513 q 783 441 724 493 q 843 286 843 389 q 727 63 843 126 q 399 0 611 0 l 60 0 l 60 967 l 361 967 q 690 909 576 967 q 803 717 803 851 q 753 581 803 631 q 628 513 703 532 m 346 771 l 346 593 l 394 593 q 486 615 460 593 q 513 688 513 636 q 484 751 513 731 q 388 771 456 771 l 346 771 m 401 201 q 511 224 474 201 q 549 306 549 246 q 515 387 549 361 q 413 413 481 413 l 346 413 l 346 201 l 401 201 m 431 -367 q 320 -324 364 -367 q 276 -219 276 -282 q 320 -115 276 -157 q 431 -72 364 -72 q 541 -115 497 -72 q 585 -219 585 -157 q 541 -324 585 -282 q 431 -367 497 -367 z "},"Ꞵ":{"ha":864,"x_min":60,"x_max":843,"o":"m 628 513 q 783 442 722 493 q 843 289 843 390 q 736 67 843 133 q 468 0 629 0 q 346 10 414 0 l 346 -299 l 60 -299 l 60 967 l 361 967 q 690 909 576 967 q 803 717 803 851 q 753 581 803 631 q 628 513 703 532 m 419 201 q 549 311 549 201 q 521 388 549 363 q 440 413 493 413 l 407 413 l 421 593 l 425 593 q 489 615 465 593 q 513 681 513 638 q 484 750 513 729 q 388 771 456 771 l 346 771 l 346 206 q 419 201 383 201 z "},"Ɓ":{"ha":1110,"x_min":0,"x_max":1089,"o":"m 874 513 q 1029 441 969 493 q 1089 286 1089 389 q 973 63 1089 126 q 644 0 857 0 l 306 0 l 306 768 l 271 768 q 214 717 214 768 q 219 678 214 697 q 235 632 224 660 l 64 560 q 17 648 35 606 q 0 736 0 690 q 78 906 0 844 q 286 967 157 967 l 607 967 q 935 909 822 967 q 1049 717 1049 851 q 999 581 1049 631 q 874 513 949 532 m 592 771 l 592 593 l 640 593 q 732 615 706 593 q 758 688 758 636 q 730 751 758 731 q 633 771 701 771 l 592 771 m 647 201 q 757 224 719 201 q 794 306 794 246 q 760 387 794 361 q 658 413 726 413 l 592 413 l 592 201 l 647 201 z "},"Ƀ":{"ha":886,"x_min":14,"x_max":865,"o":"m 650 513 q 806 441 746 493 q 865 286 865 389 q 749 63 865 126 q 421 0 633 0 l 82 0 l 82 250 l 14 250 l 14 369 l 82 369 l 82 967 l 383 967 q 712 909 599 967 q 825 717 825 851 q 775 581 825 631 q 650 513 725 532 m 368 771 l 368 593 l 417 593 q 508 615 482 593 q 535 688 535 636 q 506 751 535 731 q 410 771 478 771 l 368 771 m 424 201 q 533 224 496 201 q 571 306 571 246 q 537 387 571 361 q 435 413 503 413 l 368 413 l 368 369 l 493 369 l 493 250 l 368 250 l 368 201 l 424 201 z "},"Ƃ":{"ha":842,"x_min":60,"x_max":828,"o":"m 435 633 q 726 556 625 633 q 828 326 828 478 q 722 85 828 169 q 446 0 617 0 l 60 0 l 60 967 l 710 967 l 682 754 l 346 754 l 346 633 l 435 633 m 408 201 q 500 234 469 201 q 531 324 531 267 q 403 442 531 442 l 346 442 l 346 201 l 408 201 z "},"C":{"ha":811,"x_min":28,"x_max":811,"o":"m 489 994 q 800 881 668 994 l 668 725 q 587 772 626 756 q 503 789 547 789 q 372 713 418 789 q 325 486 325 636 q 372 262 325 336 q 507 188 419 188 q 595 207 554 188 q 686 265 636 226 l 811 107 q 670 10 753 49 q 493 -28 588 -28 q 246 31 350 -28 q 85 206 142 90 q 28 486 28 321 q 86 759 28 644 q 249 934 144 874 q 489 994 353 994 z "},"Ć":{"ha":811,"x_min":28,"x_max":811,"o":"m 489 994 q 800 881 668 994 l 668 725 q 587 772 626 756 q 503 789 547 789 q 372 713 418 789 q 325 486 325 636 q 372 262 325 336 q 507 188 419 188 q 595 207 554 188 q 686 265 636 226 l 811 107 q 670 10 753 49 q 493 -28 588 -28 q 246 31 350 -28 q 85 206 142 90 q 28 486 28 321 q 86 759 28 644 q 249 934 144 874 q 489 994 353 994 m 611 1367 l 708 1167 l 356 1040 l 286 1178 l 611 1367 z "},"Č":{"ha":811,"x_min":28,"x_max":811,"o":"m 489 994 q 800 881 668 994 l 668 725 q 587 772 626 756 q 503 789 547 789 q 372 713 418 789 q 325 486 325 636 q 372 262 325 336 q 507 188 419 188 q 595 207 554 188 q 686 265 636 226 l 811 107 q 670 10 753 49 q 493 -28 588 -28 q 246 31 350 -28 q 85 206 142 90 q 28 486 28 321 q 86 759 28 644 q 249 934 144 874 q 489 994 353 994 m 688 1340 l 781 1233 l 579 1038 l 415 1038 l 214 1233 l 307 1340 l 497 1221 l 688 1340 z "},"Ç":{"ha":811,"x_min":28,"x_max":811,"o":"m 539 -60 q 692 -210 692 -79 q 631 -333 692 -285 q 464 -382 569 -382 q 367 -369 413 -382 q 290 -335 322 -356 l 350 -215 q 439 -240 396 -240 q 501 -207 501 -240 q 471 -176 501 -185 q 371 -167 440 -167 l 389 -19 q 124 141 219 11 q 28 486 28 271 q 86 759 28 644 q 249 934 144 874 q 489 994 353 994 q 800 881 668 994 l 668 725 q 587 772 626 756 q 503 789 547 789 q 372 713 418 789 q 325 486 325 636 q 372 262 325 336 q 507 188 419 188 q 595 207 554 188 q 686 265 636 226 l 811 107 q 690 19 760 56 q 539 -25 619 -17 l 539 -60 z "},"Ĉ":{"ha":811,"x_min":28,"x_max":811,"o":"m 489 994 q 800 881 668 994 l 668 725 q 587 772 626 756 q 503 789 547 789 q 372 713 418 789 q 325 486 325 636 q 372 262 325 336 q 507 188 419 188 q 595 207 554 188 q 686 265 636 226 l 811 107 q 670 10 753 49 q 493 -28 588 -28 q 246 31 350 -28 q 85 206 142 90 q 28 486 28 321 q 86 759 28 644 q 249 934 144 874 q 489 994 353 994 m 307 1044 l 214 1151 l 415 1347 l 579 1347 l 781 1151 l 688 1044 l 497 1164 l 307 1044 z "},"Ċ":{"ha":811,"x_min":28,"x_max":811,"o":"m 489 994 q 800 881 668 994 l 668 725 q 587 772 626 756 q 503 789 547 789 q 372 713 418 789 q 325 486 325 636 q 372 262 325 336 q 507 188 419 188 q 595 207 554 188 q 686 265 636 226 l 811 107 q 670 10 753 49 q 493 -28 588 -28 q 246 31 350 -28 q 85 206 142 90 q 28 486 28 321 q 86 759 28 644 q 249 934 144 874 q 489 994 353 994 m 497 1326 q 608 1284 564 1326 q 651 1179 651 1242 q 608 1074 651 1117 q 497 1032 564 1032 q 387 1074 431 1032 q 343 1179 343 1117 q 387 1284 343 1242 q 497 1326 431 1326 z "},"Ꭓ":{"ha":828,"x_min":-14,"x_max":842,"o":"m 579 396 l 842 -250 l 533 -250 l 407 207 l 289 -250 l -14 -250 l 238 388 l 4 967 l 311 967 l 410 564 l 521 967 l 822 967 l 579 396 z "},"Ƈ":{"ha":811,"x_min":28,"x_max":1022,"o":"m 818 1199 q 1022 1147 932 1199 l 950 978 q 861 1001 900 1001 q 815 983 829 1001 q 800 926 800 965 l 800 881 l 679 739 q 596 776 636 764 q 500 789 556 789 q 371 713 417 789 q 325 486 325 636 q 372 262 325 336 q 508 188 419 188 q 594 208 554 188 q 686 268 635 228 l 811 107 q 670 10 753 49 q 492 -28 588 -28 q 246 31 350 -28 q 85 206 142 90 q 28 486 28 321 q 85 757 28 642 q 239 933 143 872 q 447 994 335 994 q 567 974 517 994 q 635 1140 574 1081 q 818 1199 697 1199 z "},"Ȼ":{"ha":811,"x_min":28,"x_max":811,"o":"m 811 107 q 670 10 753 49 q 493 -28 588 -28 q 390 -19 439 -28 l 367 -107 l 275 -86 l 300 6 q 99 179 169 57 q 28 486 28 301 q 86 759 28 644 q 249 934 144 874 q 489 994 353 994 q 560 990 526 994 l 576 1054 l 667 1033 l 650 968 q 800 881 733 939 l 668 725 q 597 768 624 756 l 447 197 q 507 188 472 188 q 595 207 554 188 q 686 265 636 226 l 811 107 m 325 486 q 368 268 325 343 l 507 789 l 503 789 q 372 713 418 789 q 325 486 325 636 z "},"D":{"ha":911,"x_min":60,"x_max":883,"o":"m 369 967 q 743 863 603 967 q 883 488 883 760 q 749 110 883 219 q 386 0 614 0 l 60 0 l 60 967 l 369 967 m 346 765 l 346 201 l 403 201 q 510 228 469 201 q 569 316 550 254 q 589 488 589 378 q 569 656 589 596 q 508 741 549 717 q 404 765 468 765 l 346 765 z "},"Ǳ":{"ha":1650,"x_min":60,"x_max":1629,"o":"m 369 967 q 743 863 603 967 q 883 488 883 760 q 749 110 883 219 q 386 0 614 0 l 60 0 l 60 967 l 369 967 m 346 765 l 346 201 l 403 201 q 510 228 469 201 q 569 316 550 254 q 589 488 589 378 q 569 656 589 596 q 508 741 549 717 q 404 765 468 765 l 346 765 m 1617 967 l 1617 754 l 1232 224 l 1629 224 l 1601 0 l 890 0 l 890 210 l 1288 750 l 929 750 l 929 967 l 1617 967 z "},"Ǆ":{"ha":1650,"x_min":60,"x_max":1629,"o":"m 369 967 q 743 863 603 967 q 883 488 883 760 q 749 110 883 219 q 386 0 614 0 l 60 0 l 60 967 l 369 967 m 346 765 l 346 201 l 403 201 q 510 228 469 201 q 569 316 550 254 q 589 488 589 378 q 569 656 589 596 q 508 741 549 717 q 404 765 468 765 l 346 765 m 1617 967 l 1617 754 l 1232 224 l 1629 224 l 1601 0 l 890 0 l 890 210 l 1288 750 l 929 750 l 929 967 l 1617 967 m 1454 1340 l 1547 1233 l 1346 1038 l 1182 1038 l 981 1233 l 1074 1340 l 1264 1221 l 1454 1340 z "},"Ɖ":{"ha":932,"x_min":14,"x_max":904,"o":"m 390 967 q 764 863 624 967 q 904 488 904 760 q 769 110 904 219 q 407 0 635 0 l 81 0 l 81 410 l 14 410 l 14 571 l 81 571 l 81 967 l 390 967 m 424 201 q 531 228 490 201 q 590 316 571 254 q 610 488 610 378 q 590 656 610 596 q 529 741 569 717 q 425 765 489 765 l 367 765 l 367 571 l 535 571 l 535 410 l 367 410 l 367 201 l 424 201 z "},"Ð":{"ha":932,"x_min":14,"x_max":904,"o":"m 390 967 q 764 863 624 967 q 904 488 904 760 q 769 110 904 219 q 407 0 635 0 l 81 0 l 81 410 l 14 410 l 14 571 l 81 571 l 81 967 l 390 967 m 424 201 q 531 228 490 201 q 590 316 571 254 q 610 488 610 378 q 590 656 610 596 q 529 741 569 717 q 425 765 489 765 l 367 765 l 367 571 l 535 571 l 535 410 l 367 410 l 367 201 l 424 201 z "},"Ď":{"ha":911,"x_min":60,"x_max":883,"o":"m 369 967 q 743 863 603 967 q 883 488 883 760 q 749 110 883 219 q 386 0 614 0 l 60 0 l 60 967 l 369 967 m 346 765 l 346 201 l 403 201 q 510 228 469 201 q 569 316 550 254 q 589 488 589 378 q 569 656 589 596 q 508 741 549 717 q 404 765 468 765 l 346 765 m 594 1340 l 688 1233 l 486 1038 l 322 1038 l 121 1233 l 214 1340 l 404 1221 l 594 1340 z "},"Ḓ":{"ha":911,"x_min":60,"x_max":883,"o":"m 369 967 q 743 863 603 967 q 883 488 883 760 q 749 110 883 219 q 386 0 614 0 l 60 0 l 60 967 l 369 967 m 346 765 l 346 201 l 403 201 q 510 228 469 201 q 569 316 550 254 q 589 488 589 378 q 569 656 589 596 q 508 741 549 717 q 404 765 468 765 l 346 765 m 240 -400 l 147 -293 l 349 -83 l 513 -83 l 714 -293 l 621 -400 l 431 -267 l 240 -400 z "},"Đ":{"ha":932,"x_min":14,"x_max":904,"o":"m 390 967 q 764 863 624 967 q 904 488 904 760 q 769 110 904 219 q 407 0 635 0 l 81 0 l 81 410 l 14 410 l 14 571 l 81 571 l 81 967 l 390 967 m 424 201 q 531 228 490 201 q 590 316 571 254 q 610 488 610 378 q 590 656 610 596 q 529 741 569 717 q 425 765 489 765 l 367 765 l 367 571 l 535 571 l 535 410 l 367 410 l 367 201 l 424 201 z "},"Ḋ":{"ha":911,"x_min":60,"x_max":883,"o":"m 369 967 q 743 863 603 967 q 883 488 883 760 q 749 110 883 219 q 386 0 614 0 l 60 0 l 60 967 l 369 967 m 346 765 l 346 201 l 403 201 q 510 228 469 201 q 569 316 550 254 q 589 488 589 378 q 569 656 589 596 q 508 741 549 717 q 404 765 468 765 l 346 765 m 404 1326 q 515 1284 471 1326 q 558 1179 558 1242 q 515 1074 558 1117 q 404 1032 471 1032 q 294 1074 338 1032 q 250 1179 250 1117 q 294 1284 250 1242 q 404 1326 338 1326 z "},"Ḍ":{"ha":911,"x_min":60,"x_max":883,"o":"m 369 967 q 743 863 603 967 q 883 488 883 760 q 749 110 883 219 q 386 0 614 0 l 60 0 l 60 967 l 369 967 m 346 765 l 346 201 l 403 201 q 510 228 469 201 q 569 316 550 254 q 589 488 589 378 q 569 656 589 596 q 508 741 549 717 q 404 765 468 765 l 346 765 m 431 -367 q 320 -324 364 -367 q 276 -219 276 -282 q 320 -115 276 -157 q 431 -72 364 -72 q 541 -115 497 -72 q 585 -219 585 -157 q 541 -324 585 -282 q 431 -367 497 -367 z "},"Ɗ":{"ha":1157,"x_min":0,"x_max":1129,"o":"m 615 967 q 989 863 849 967 q 1129 488 1129 760 q 994 110 1129 219 q 632 0 860 0 l 306 0 l 306 768 l 271 768 q 214 717 214 768 q 219 678 214 697 q 235 632 224 660 l 64 560 q 17 648 35 606 q 0 736 0 690 q 78 906 0 844 q 286 967 157 967 l 615 967 m 649 201 q 756 228 715 201 q 815 316 796 254 q 835 488 835 378 q 815 656 835 596 q 754 741 794 717 q 650 765 714 765 l 592 765 l 592 201 l 649 201 z "},"Ḏ":{"ha":911,"x_min":60,"x_max":883,"o":"m 369 967 q 743 863 603 967 q 883 488 883 760 q 749 110 883 219 q 386 0 614 0 l 60 0 l 60 967 l 369 967 m 346 765 l 346 201 l 403 201 q 510 228 469 201 q 569 316 550 254 q 589 488 589 378 q 569 656 589 596 q 508 741 549 717 q 404 765 468 765 l 346 765 m 656 -281 l 204 -281 l 204 -94 l 656 -94 l 656 -281 z "},"Ƌ":{"ha":842,"x_min":14,"x_max":782,"o":"m 782 0 l 392 0 q 117 81 219 0 q 14 319 14 161 q 117 551 14 469 q 407 633 219 633 l 496 633 l 496 754 l 143 754 l 143 967 l 782 967 l 782 0 m 496 201 l 496 442 l 439 442 q 311 319 311 442 q 342 233 311 264 q 433 201 372 201 l 496 201 z "},"ǲ":{"ha":1553,"x_min":60,"x_max":1539,"o":"m 369 967 q 743 863 603 967 q 883 488 883 760 q 749 110 883 219 q 386 0 614 0 l 60 0 l 60 967 l 369 967 m 346 765 l 346 201 l 403 201 q 510 228 469 201 q 569 316 550 254 q 589 488 589 378 q 569 656 589 596 q 508 741 549 717 q 404 765 468 765 l 346 765 m 1529 742 l 1529 551 l 1225 203 l 1539 203 l 1515 0 l 904 0 l 904 192 l 1213 542 l 932 542 l 932 742 l 1529 742 z "},"ǅ":{"ha":1553,"x_min":60,"x_max":1539,"o":"m 369 967 q 743 863 603 967 q 883 488 883 760 q 749 110 883 219 q 386 0 614 0 l 60 0 l 60 967 l 369 967 m 346 765 l 346 201 l 403 201 q 510 228 469 201 q 569 316 550 254 q 589 488 589 378 q 569 656 589 596 q 508 741 549 717 q 404 765 468 765 l 346 765 m 1529 742 l 1529 551 l 1225 203 l 1539 203 l 1515 0 l 904 0 l 904 192 l 1213 542 l 932 542 l 932 742 l 1529 742 m 1422 1153 l 1515 1046 l 1314 836 l 1150 836 l 949 1046 l 1042 1153 l 1232 1019 l 1422 1153 z "},"E":{"ha":722,"x_min":60,"x_max":694,"o":"m 694 967 l 665 768 l 346 768 l 346 588 l 626 588 l 626 394 l 346 394 l 346 200 l 688 200 l 688 0 l 60 0 l 60 967 l 694 967 z "},"É":{"ha":722,"x_min":60,"x_max":694,"o":"m 694 967 l 665 768 l 346 768 l 346 588 l 626 588 l 626 394 l 346 394 l 346 200 l 688 200 l 688 0 l 60 0 l 60 967 l 694 967 m 492 1367 l 589 1167 l 236 1040 l 167 1178 l 492 1367 z "},"Ĕ":{"ha":722,"x_min":60,"x_max":694,"o":"m 694 967 l 665 768 l 346 768 l 346 588 l 626 588 l 626 394 l 346 394 l 346 200 l 688 200 l 688 0 l 60 0 l 60 967 l 694 967 m 378 1036 q 196 1112 261 1036 q 121 1294 131 1188 l 264 1318 q 305 1249 276 1276 q 378 1222 333 1222 q 451 1249 422 1222 q 492 1318 479 1276 l 635 1294 q 560 1112 625 1188 q 378 1036 494 1036 z "},"Ě":{"ha":722,"x_min":60,"x_max":694,"o":"m 694 967 l 665 768 l 346 768 l 346 588 l 626 588 l 626 394 l 346 394 l 346 200 l 688 200 l 688 0 l 60 0 l 60 967 l 694 967 m 568 1340 l 661 1233 l 460 1038 l 296 1038 l 94 1233 l 188 1340 l 378 1221 l 568 1340 z "},"Ȩ":{"ha":722,"x_min":60,"x_max":694,"o":"m 346 200 l 688 200 l 688 0 l 442 0 l 442 -60 q 594 -210 594 -79 q 533 -333 594 -285 q 367 -382 472 -382 q 270 -369 315 -382 q 193 -335 225 -356 l 253 -215 q 342 -240 299 -240 q 404 -207 404 -240 q 374 -176 404 -185 q 274 -167 343 -167 l 294 0 l 60 0 l 60 967 l 694 967 l 665 768 l 346 768 l 346 588 l 626 588 l 626 394 l 346 394 l 346 200 z "},"Ê":{"ha":722,"x_min":60,"x_max":694,"o":"m 694 967 l 665 768 l 346 768 l 346 588 l 626 588 l 626 394 l 346 394 l 346 200 l 688 200 l 688 0 l 60 0 l 60 967 l 694 967 m 188 1044 l 94 1151 l 296 1347 l 460 1347 l 661 1151 l 568 1044 l 378 1164 l 188 1044 z "},"Ế":{"ha":722,"x_min":60,"x_max":868,"o":"m 694 967 l 665 768 l 346 768 l 346 588 l 626 588 l 626 394 l 346 394 l 346 200 l 688 200 l 688 0 l 60 0 l 60 967 l 694 967 m 188 1006 l 94 1113 l 296 1308 l 460 1308 l 661 1113 l 568 1006 l 378 1125 l 188 1006 m 724 1581 l 868 1439 l 631 1232 l 529 1322 l 724 1581 z "},"Ệ":{"ha":722,"x_min":60,"x_max":694,"o":"m 694 967 l 665 768 l 346 768 l 346 588 l 626 588 l 626 394 l 346 394 l 346 200 l 688 200 l 688 0 l 60 0 l 60 967 l 694 967 m 188 1044 l 94 1151 l 296 1347 l 460 1347 l 661 1151 l 568 1044 l 378 1164 l 188 1044 m 374 -367 q 263 -324 307 -367 q 219 -219 219 -282 q 263 -115 219 -157 q 374 -72 307 -72 q 484 -115 440 -72 q 528 -219 528 -157 q 484 -324 528 -282 q 374 -367 440 -367 z "},"Ề":{"ha":722,"x_min":-111,"x_max":694,"o":"m 694 967 l 665 768 l 346 768 l 346 588 l 626 588 l 626 394 l 346 394 l 346 200 l 688 200 l 688 0 l 60 0 l 60 967 l 694 967 m 186 1006 l 93 1113 l 294 1308 l 458 1308 l 660 1113 l 567 1006 l 376 1125 l 186 1006 m 33 1581 l 228 1322 l 126 1232 l -111 1439 l 33 1581 z "},"Ể":{"ha":722,"x_min":60,"x_max":831,"o":"m 694 967 l 665 768 l 346 768 l 346 588 l 626 588 l 626 394 l 346 394 l 346 200 l 688 200 l 688 0 l 60 0 l 60 967 l 694 967 m 186 1006 l 93 1113 l 294 1308 l 458 1308 l 660 1113 l 567 1006 l 376 1125 l 186 1006 m 560 1350 q 635 1363 613 1351 q 658 1399 658 1374 q 644 1427 658 1417 q 607 1438 631 1438 q 565 1433 583 1438 q 521 1419 546 1429 l 481 1522 q 644 1561 546 1561 q 782 1519 733 1561 q 831 1411 831 1478 q 800 1321 831 1356 q 711 1275 769 1286 l 711 1221 l 560 1221 l 560 1350 z "},"Ễ":{"ha":722,"x_min":60,"x_max":694,"o":"m 694 967 l 665 768 l 346 768 l 346 588 l 626 588 l 626 394 l 346 394 l 346 200 l 688 200 l 688 0 l 60 0 l 60 967 l 694 967 m 185 1006 l 92 1113 l 293 1308 l 457 1308 l 658 1113 l 565 1006 l 375 1125 l 185 1006 m 456 1344 q 399 1353 422 1344 q 350 1378 376 1363 q 331 1388 347 1379 q 299 1397 314 1397 q 258 1385 274 1397 q 225 1344 243 1374 l 96 1400 q 176 1523 125 1475 q 292 1571 226 1571 q 351 1562 326 1571 q 401 1536 375 1553 q 421 1526 404 1535 q 453 1517 438 1517 q 492 1529 476 1517 q 525 1571 507 1542 l 654 1514 q 574 1392 625 1439 q 456 1344 522 1344 z "},"Ȅ":{"ha":722,"x_min":18,"x_max":694,"o":"m 694 967 l 665 768 l 346 768 l 346 588 l 626 588 l 626 394 l 346 394 l 346 200 l 688 200 l 688 0 l 60 0 l 60 967 l 694 967 m 189 1393 l 333 1100 l 200 1036 l 18 1308 l 189 1393 m 453 1393 l 586 1096 l 450 1042 l 279 1315 l 453 1393 z "},"Ë":{"ha":722,"x_min":60,"x_max":694,"o":"m 694 967 l 665 768 l 346 768 l 346 588 l 626 588 l 626 394 l 346 394 l 346 200 l 688 200 l 688 0 l 60 0 l 60 967 l 694 967 m 204 1311 q 298 1274 260 1311 q 336 1183 336 1236 q 298 1092 336 1129 q 204 1054 260 1054 q 111 1092 150 1054 q 72 1183 72 1129 q 111 1274 72 1236 q 204 1311 150 1311 m 544 1311 q 638 1274 600 1311 q 676 1183 676 1236 q 638 1092 676 1129 q 544 1054 600 1054 q 451 1092 490 1054 q 413 1183 413 1129 q 451 1274 413 1236 q 544 1311 490 1311 z "},"Ė":{"ha":722,"x_min":60,"x_max":694,"o":"m 694 967 l 665 768 l 346 768 l 346 588 l 626 588 l 626 394 l 346 394 l 346 200 l 688 200 l 688 0 l 60 0 l 60 967 l 694 967 m 378 1326 q 488 1284 444 1326 q 532 1179 532 1242 q 488 1074 532 1117 q 378 1032 444 1032 q 267 1074 311 1032 q 224 1179 224 1117 q 267 1284 224 1242 q 378 1326 311 1326 z "},"Ẹ":{"ha":722,"x_min":60,"x_max":694,"o":"m 694 967 l 665 768 l 346 768 l 346 588 l 626 588 l 626 394 l 346 394 l 346 200 l 688 200 l 688 0 l 60 0 l 60 967 l 694 967 m 374 -367 q 263 -324 307 -367 q 219 -219 219 -282 q 263 -115 219 -157 q 374 -72 307 -72 q 484 -115 440 -72 q 528 -219 528 -157 q 484 -324 528 -282 q 374 -367 440 -367 z "},"È":{"ha":722,"x_min":60,"x_max":694,"o":"m 694 967 l 665 768 l 346 768 l 346 588 l 626 588 l 626 394 l 346 394 l 346 200 l 688 200 l 688 0 l 60 0 l 60 967 l 694 967 m 265 1367 l 589 1178 l 519 1040 l 167 1167 l 265 1367 z "},"Ẻ":{"ha":722,"x_min":60,"x_max":694,"o":"m 694 967 l 665 768 l 346 768 l 346 588 l 626 588 l 626 394 l 346 394 l 346 200 l 688 200 l 688 0 l 60 0 l 60 967 l 694 967 m 301 1190 q 377 1203 354 1192 q 400 1239 400 1214 q 386 1267 400 1257 q 349 1278 372 1278 q 306 1274 325 1278 q 263 1260 288 1269 l 222 1363 q 386 1401 288 1401 q 524 1360 475 1401 q 572 1251 572 1318 q 542 1161 572 1196 q 453 1115 511 1126 l 453 1061 l 301 1061 l 301 1190 z "},"Ȇ":{"ha":722,"x_min":60,"x_max":694,"o":"m 694 967 l 665 768 l 346 768 l 346 588 l 626 588 l 626 394 l 346 394 l 346 200 l 688 200 l 688 0 l 60 0 l 60 967 l 694 967 m 378 1346 q 560 1268 496 1346 q 635 1074 625 1190 l 492 1050 q 451 1131 479 1101 q 378 1160 422 1160 q 305 1131 333 1160 q 264 1050 276 1101 l 121 1074 q 195 1268 131 1190 q 378 1346 260 1346 z "},"Ē":{"ha":722,"x_min":60,"x_max":694,"o":"m 694 967 l 665 768 l 346 768 l 346 588 l 626 588 l 626 394 l 346 394 l 346 200 l 688 200 l 688 0 l 60 0 l 60 967 l 694 967 m 603 1075 l 151 1075 l 151 1261 l 603 1261 l 603 1075 z "},"Ę":{"ha":722,"x_min":60,"x_max":694,"o":"m 346 200 l 688 200 l 688 0 l 632 0 q 508 -65 543 -31 q 472 -132 472 -100 q 543 -193 472 -193 q 628 -182 579 -193 l 611 -342 q 508 -353 563 -353 q 349 -306 411 -353 q 286 -178 286 -258 q 388 0 286 -69 l 60 0 l 60 967 l 694 967 l 665 768 l 346 768 l 346 588 l 626 588 l 626 394 l 346 394 l 346 200 z "},"Ɛ":{"ha":768,"x_min":21,"x_max":782,"o":"m 415 994 q 599 961 518 994 q 750 861 679 928 l 618 722 q 451 794 538 794 q 340 703 340 794 q 371 631 340 656 q 461 606 401 606 l 574 606 l 542 410 l 467 410 q 356 378 393 410 q 318 290 318 347 q 354 204 318 233 q 453 175 390 175 q 544 194 503 175 q 633 256 586 214 l 782 111 q 422 -28 650 -28 q 213 8 304 -28 q 72 112 122 44 q 21 268 21 179 q 87 435 21 375 q 279 510 153 496 q 105 593 161 533 q 49 736 49 653 q 96 870 49 811 q 226 962 143 929 q 415 994 310 994 z "},"Ǝ":{"ha":722,"x_min":35,"x_max":663,"o":"m 42 967 l 663 967 l 663 0 l 35 0 l 35 200 l 376 200 l 376 394 l 96 394 l 96 588 l 376 588 l 376 768 l 42 768 l 42 967 z "},"Ʃ":{"ha":699,"x_min":14,"x_max":685,"o":"m 685 967 l 685 765 l 328 765 l 533 522 l 533 428 l 324 206 l 685 206 l 685 0 l 14 0 l 14 200 l 256 472 l 14 767 l 14 967 l 685 967 z "},"Ɇ":{"ha":722,"x_min":60,"x_max":694,"o":"m 485 394 l 433 200 l 688 200 l 688 0 l 381 0 l 353 -107 l 261 -86 l 283 0 l 60 0 l 60 967 l 539 967 l 563 1054 l 653 1033 l 635 967 l 694 967 l 665 768 l 583 768 l 536 588 l 626 588 l 626 394 l 485 394 m 346 768 l 346 588 l 439 588 l 488 768 l 346 768 m 346 394 l 346 235 l 388 394 l 346 394 z "},"Ẽ":{"ha":722,"x_min":60,"x_max":694,"o":"m 694 967 l 665 768 l 346 768 l 346 588 l 626 588 l 626 394 l 346 394 l 346 200 l 688 200 l 688 0 l 60 0 l 60 967 l 694 967 m 458 1039 q 402 1049 425 1039 q 353 1076 379 1058 q 325 1093 336 1088 q 301 1099 314 1099 q 261 1085 276 1099 q 228 1039 246 1071 l 99 1101 q 178 1237 128 1183 q 294 1290 229 1290 q 353 1281 329 1290 q 404 1253 378 1271 q 432 1236 421 1242 q 456 1231 443 1231 q 494 1244 479 1231 q 528 1290 510 1258 l 657 1228 q 576 1092 628 1144 q 458 1039 525 1039 z "},"Ʒ":{"ha":785,"x_min":0,"x_max":764,"o":"m 489 564 q 692 483 619 554 q 764 292 764 411 q 715 130 764 203 q 574 15 667 57 q 353 -28 482 -28 q 148 12 233 -28 q 0 125 63 51 l 142 263 q 236 197 193 217 q 336 178 279 178 q 433 210 396 178 q 469 304 469 243 q 430 385 469 360 q 324 411 390 411 l 176 411 l 176 560 l 396 767 l 63 767 l 63 967 l 706 967 l 706 774 l 489 564 z "},"Ǯ":{"ha":785,"x_min":0,"x_max":764,"o":"m 489 564 q 692 483 619 554 q 764 292 764 411 q 715 130 764 203 q 574 15 667 57 q 353 -28 482 -28 q 148 12 233 -28 q 0 125 63 51 l 142 263 q 236 197 193 217 q 336 178 279 178 q 433 210 396 178 q 469 304 469 243 q 430 385 469 360 q 324 411 390 411 l 176 411 l 176 560 l 396 767 l 63 767 l 63 967 l 706 967 l 706 774 l 489 564 m 575 1340 l 668 1233 l 467 1038 l 303 1038 l 101 1233 l 194 1340 l 385 1221 l 575 1340 z "},"Ƹ":{"ha":785,"x_min":21,"x_max":785,"o":"m 785 125 q 633 12 719 51 q 422 -28 546 -28 q 207 14 297 -28 q 69 128 117 56 q 21 292 21 200 q 97 479 21 406 q 296 564 172 553 l 79 774 l 79 967 l 722 967 l 722 767 l 393 767 l 608 556 l 608 411 l 461 411 q 354 381 393 411 q 315 296 315 350 q 349 209 315 240 q 440 178 383 178 q 547 198 500 178 q 643 263 593 218 l 785 125 z "},"F":{"ha":674,"x_min":60,"x_max":674,"o":"m 60 0 l 60 967 l 674 967 l 644 768 l 346 768 l 346 557 l 608 557 l 608 358 l 346 358 l 346 0 l 60 0 z "},"Ḟ":{"ha":674,"x_min":60,"x_max":674,"o":"m 60 0 l 60 967 l 674 967 l 644 768 l 346 768 l 346 557 l 608 557 l 608 358 l 346 358 l 346 0 l 60 0 m 381 1326 q 491 1284 447 1326 q 535 1179 535 1242 q 491 1074 535 1117 q 381 1032 447 1032 q 270 1074 314 1032 q 226 1179 226 1117 q 270 1284 226 1242 q 381 1326 314 1326 z "},"Ƒ":{"ha":674,"x_min":-193,"x_max":674,"o":"m 346 768 l 346 557 l 608 557 l 608 358 l 346 358 l 346 -22 q 260 -240 346 -165 q 25 -315 174 -315 q -193 -253 -107 -315 l -104 -86 q -55 -108 -74 -101 q -10 -114 -36 -114 q 42 -95 24 -114 q 60 -40 60 -76 l 60 967 l 674 967 l 644 768 l 346 768 z "},"G":{"ha":907,"x_min":28,"x_max":858,"o":"m 515 994 q 706 960 619 994 q 858 868 793 925 l 719 724 q 626 778 668 761 q 532 794 585 794 q 376 717 431 794 q 322 483 322 640 q 339 298 322 365 q 391 203 356 231 q 485 175 426 175 q 583 199 536 175 l 583 375 l 486 375 l 460 568 l 858 568 l 858 83 q 683 1 782 31 q 493 -28 585 -28 q 142 102 256 -28 q 28 485 28 232 q 90 760 28 644 q 264 935 153 875 q 515 994 375 994 z "},"Ǵ":{"ha":907,"x_min":28,"x_max":858,"o":"m 515 994 q 706 960 619 994 q 858 868 793 925 l 719 724 q 626 778 668 761 q 532 794 585 794 q 376 717 431 794 q 322 483 322 640 q 339 298 322 365 q 391 203 356 231 q 485 175 426 175 q 583 199 536 175 l 583 375 l 486 375 l 460 568 l 858 568 l 858 83 q 683 1 782 31 q 493 -28 585 -28 q 142 102 256 -28 q 28 485 28 232 q 90 760 28 644 q 264 935 153 875 q 515 994 375 994 m 600 1367 l 697 1167 l 344 1040 l 275 1178 l 600 1367 z "},"Ɣ":{"ha":804,"x_min":-35,"x_max":839,"o":"m 547 147 q 619 8 596 72 q 643 -124 643 -57 q 587 -264 643 -212 q 407 -315 531 -315 q 228 -264 286 -315 q 171 -124 171 -212 q 193 -2 171 -62 q 268 147 215 58 l -35 967 l 267 967 l 407 329 l 546 967 l 839 967 l 547 147 m 444 -106 q 436 -59 444 -82 q 407 8 428 -36 q 369 -107 369 -69 q 407 -147 369 -147 q 444 -106 444 -147 z "},"Ğ":{"ha":907,"x_min":28,"x_max":858,"o":"m 515 994 q 706 960 619 994 q 858 868 793 925 l 719 724 q 626 778 668 761 q 532 794 585 794 q 376 717 431 794 q 322 483 322 640 q 339 298 322 365 q 391 203 356 231 q 485 175 426 175 q 583 199 536 175 l 583 375 l 486 375 l 460 568 l 858 568 l 858 83 q 683 1 782 31 q 493 -28 585 -28 q 142 102 256 -28 q 28 485 28 232 q 90 760 28 644 q 264 935 153 875 q 515 994 375 994 m 486 1036 q 304 1112 369 1036 q 229 1294 239 1188 l 372 1318 q 413 1249 385 1276 q 486 1222 442 1222 q 559 1249 531 1222 q 600 1318 588 1276 l 743 1294 q 668 1112 733 1188 q 486 1036 603 1036 z "},"Ǧ":{"ha":907,"x_min":28,"x_max":858,"o":"m 515 994 q 706 960 619 994 q 858 868 793 925 l 719 724 q 626 778 668 761 q 532 794 585 794 q 376 717 431 794 q 322 483 322 640 q 339 298 322 365 q 391 203 356 231 q 485 175 426 175 q 583 199 536 175 l 583 375 l 486 375 l 460 568 l 858 568 l 858 83 q 683 1 782 31 q 493 -28 585 -28 q 142 102 256 -28 q 28 485 28 232 q 90 760 28 644 q 264 935 153 875 q 515 994 375 994 m 676 1340 l 769 1233 l 568 1038 l 404 1038 l 203 1233 l 296 1340 l 486 1221 l 676 1340 z "},"Ĝ":{"ha":907,"x_min":28,"x_max":858,"o":"m 515 994 q 706 960 619 994 q 858 868 793 925 l 719 724 q 626 778 668 761 q 532 794 585 794 q 376 717 431 794 q 322 483 322 640 q 339 298 322 365 q 391 203 356 231 q 485 175 426 175 q 583 199 536 175 l 583 375 l 486 375 l 460 568 l 858 568 l 858 83 q 683 1 782 31 q 493 -28 585 -28 q 142 102 256 -28 q 28 485 28 232 q 90 760 28 644 q 264 935 153 875 q 515 994 375 994 m 296 1044 l 203 1151 l 404 1347 l 568 1347 l 769 1151 l 676 1044 l 486 1164 l 296 1044 z "},"Ģ":{"ha":907,"x_min":28,"x_max":858,"o":"m 515 994 q 706 960 619 994 q 858 868 793 925 l 719 724 q 626 778 668 761 q 532 794 585 794 q 376 717 431 794 q 322 483 322 640 q 339 298 322 365 q 391 203 356 231 q 485 175 426 175 q 583 199 536 175 l 583 375 l 486 375 l 460 568 l 858 568 l 858 83 q 683 1 782 31 q 493 -28 585 -28 q 142 102 256 -28 q 28 485 28 232 q 90 760 28 644 q 264 935 153 875 q 515 994 375 994 m 486 -86 q 578 -122 542 -86 q 614 -212 614 -158 q 606 -267 614 -242 q 576 -335 597 -292 l 507 -475 l 376 -475 l 411 -317 q 358 -212 358 -276 q 394 -123 358 -160 q 486 -86 431 -86 z "},"Ġ":{"ha":907,"x_min":28,"x_max":858,"o":"m 515 994 q 706 960 619 994 q 858 868 793 925 l 719 724 q 626 778 668 761 q 532 794 585 794 q 376 717 431 794 q 322 483 322 640 q 339 298 322 365 q 391 203 356 231 q 485 175 426 175 q 583 199 536 175 l 583 375 l 486 375 l 460 568 l 858 568 l 858 83 q 683 1 782 31 q 493 -28 585 -28 q 142 102 256 -28 q 28 485 28 232 q 90 760 28 644 q 264 935 153 875 q 515 994 375 994 m 486 1326 q 597 1284 553 1326 q 640 1179 640 1242 q 597 1074 640 1117 q 486 1032 553 1032 q 376 1074 419 1032 q 332 1179 332 1117 q 376 1284 332 1242 q 486 1326 419 1326 z "},"Ɠ":{"ha":869,"x_min":28,"x_max":1081,"o":"m 876 1199 q 1081 1147 990 1199 l 1008 978 q 919 1001 958 1001 q 873 983 888 1001 q 858 926 858 965 l 858 868 l 728 733 q 628 779 674 764 q 532 794 583 794 q 376 717 431 794 q 322 483 322 640 q 339 298 322 365 q 391 203 356 231 q 485 175 426 175 q 583 199 536 175 l 583 375 l 486 375 l 460 568 l 858 568 l 858 83 q 683 1 782 31 q 493 -28 585 -28 q 142 102 256 -28 q 28 485 28 232 q 90 758 28 643 q 256 934 153 874 q 483 994 360 994 q 625 968 558 994 q 692 1138 631 1078 q 876 1199 754 1199 z "},"Ɂ":{"ha":743,"x_min":0,"x_max":715,"o":"m 201 468 l 264 486 q 385 553 350 511 q 421 671 421 594 q 390 761 421 728 q 304 794 360 794 q 219 777 260 794 q 132 722 179 760 l 0 861 q 349 994 140 994 q 544 956 461 994 q 671 848 626 918 q 715 685 715 778 q 670 514 715 579 q 525 407 625 449 l 488 392 l 488 0 l 201 0 l 201 468 z "},"Ǥ":{"ha":944,"x_min":28,"x_max":944,"o":"m 944 251 l 858 251 l 858 83 q 683 1 782 31 q 493 -28 585 -28 q 142 102 256 -28 q 28 485 28 232 q 90 760 28 644 q 264 935 153 875 q 515 994 375 994 q 858 868 715 994 l 721 724 q 626 778 668 761 q 532 794 585 794 q 376 717 431 794 q 322 483 322 640 q 339 298 322 365 q 391 203 356 231 q 485 175 426 175 q 544 181 515 175 q 611 199 572 186 l 611 251 l 472 251 l 472 397 l 611 397 l 611 444 l 482 444 l 460 603 l 858 603 l 858 397 l 944 397 l 944 251 z "},"Ȝ":{"ha":736,"x_min":-14,"x_max":715,"o":"m 335 994 q 520 961 440 994 q 644 868 600 928 q 688 729 688 808 q 631 581 688 642 q 457 496 575 519 q 651 428 586 482 q 715 269 715 374 q 566 8 715 122 q 97 -167 417 -107 l 75 36 q 290 115 215 76 q 392 192 365 153 q 418 285 418 232 q 269 396 418 396 l 163 396 l 194 592 l 275 592 q 396 696 396 592 q 292 794 396 794 q 114 722 206 794 l -14 861 q 335 994 126 994 z "},"H":{"ha":913,"x_min":60,"x_max":853,"o":"m 567 0 l 567 390 l 346 390 l 346 0 l 60 0 l 60 967 l 346 967 l 346 610 l 567 610 l 567 967 l 853 967 l 853 0 l 567 0 z "},"Ħ":{"ha":932,"x_min":0,"x_max":932,"o":"m 932 835 l 932 688 l 863 688 l 863 0 l 576 0 l 576 390 l 356 390 l 356 0 l 69 0 l 69 688 l 0 688 l 0 835 l 69 835 l 69 967 l 356 967 l 356 835 l 576 835 l 576 967 l 863 967 l 863 835 l 932 835 m 576 610 l 576 688 l 356 688 l 356 610 l 576 610 z "},"Ȟ":{"ha":913,"x_min":60,"x_max":853,"o":"m 567 0 l 567 390 l 346 390 l 346 0 l 60 0 l 60 967 l 346 967 l 346 610 l 567 610 l 567 967 l 853 967 l 853 0 l 567 0 m 647 1340 l 740 1233 l 539 1038 l 375 1038 l 174 1233 l 267 1340 l 457 1221 l 647 1340 z "},"Ĥ":{"ha":913,"x_min":60,"x_max":853,"o":"m 567 0 l 567 390 l 346 390 l 346 0 l 60 0 l 60 967 l 346 967 l 346 610 l 567 610 l 567 967 l 853 967 l 853 0 l 567 0 m 267 1044 l 174 1151 l 375 1347 l 539 1347 l 740 1151 l 647 1044 l 457 1164 l 267 1044 z "},"Ḥ":{"ha":913,"x_min":60,"x_max":853,"o":"m 567 0 l 567 390 l 346 390 l 346 0 l 60 0 l 60 967 l 346 967 l 346 610 l 567 610 l 567 967 l 853 967 l 853 0 l 567 0 m 457 -367 q 347 -324 390 -367 q 303 -219 303 -282 q 347 -115 303 -157 q 457 -72 390 -72 q 567 -115 524 -72 q 611 -219 611 -157 q 567 -324 611 -282 q 457 -367 524 -367 z "},"Ɦ":{"ha":1158,"x_min":0,"x_max":1099,"o":"m 1099 967 l 1099 0 l 813 0 l 813 390 l 592 390 l 592 0 l 306 0 l 306 768 l 271 768 q 214 717 214 768 q 219 678 214 697 q 235 632 224 660 l 64 560 q 17 648 35 606 q 0 736 0 690 q 78 906 0 844 q 286 967 157 967 l 592 967 l 592 610 l 813 610 l 813 967 l 1099 967 z "},"Ɥ":{"ha":865,"x_min":14,"x_max":806,"o":"m 806 967 l 806 0 l 519 0 l 519 339 q 322 271 439 271 q 94 365 175 271 q 14 626 14 460 l 14 967 l 294 967 l 294 626 q 320 510 294 546 q 407 474 346 474 q 471 483 444 474 q 519 511 497 492 l 519 967 l 806 967 z "},"Ƕ":{"ha":1306,"x_min":60,"x_max":1271,"o":"m 1228 742 q 1259 544 1247 640 q 1271 339 1271 447 q 1217 131 1271 214 q 1076 10 1163 49 q 888 -28 989 -28 q 656 44 744 -28 q 567 265 567 115 l 567 390 l 346 390 l 346 0 l 60 0 l 60 967 l 346 967 l 346 610 l 567 610 l 567 967 l 853 967 l 853 264 q 867 190 853 211 q 910 169 882 169 q 972 215 949 169 q 996 360 996 261 q 958 742 996 517 l 1228 742 z "},"I":{"ha":406,"x_min":60,"x_max":346,"o":"m 346 967 l 346 0 l 60 0 l 60 967 l 346 967 z "},"Ĳ":{"ha":857,"x_min":60,"x_max":800,"o":"m 346 967 l 346 0 l 60 0 l 60 967 l 346 967 m 800 154 q 751 -55 800 28 q 628 -183 703 -137 q 454 -262 554 -229 l 378 -61 q 467 -8 438 -39 q 505 63 496 24 q 514 164 514 103 l 514 967 l 800 967 l 800 154 z "},"Í":{"ha":406,"x_min":-8,"x_max":414,"o":"m 346 967 l 346 0 l 60 0 l 60 967 l 346 967 m 317 1367 l 414 1167 l 61 1040 l -8 1178 l 317 1367 z "},"Ĭ":{"ha":406,"x_min":-54,"x_max":460,"o":"m 346 967 l 346 0 l 60 0 l 60 967 l 346 967 m 203 1036 q 21 1112 86 1036 q -54 1294 -44 1188 l 89 1318 q 130 1249 101 1276 q 203 1222 158 1222 q 276 1249 247 1222 q 317 1318 304 1276 l 460 1294 q 385 1112 450 1188 q 203 1036 319 1036 z "},"Ǐ":{"ha":406,"x_min":-81,"x_max":486,"o":"m 346 967 l 346 0 l 60 0 l 60 967 l 346 967 m 393 1340 l 486 1233 l 285 1038 l 121 1038 l -81 1233 l 13 1340 l 203 1221 l 393 1340 z "},"Î":{"ha":406,"x_min":-81,"x_max":486,"o":"m 346 967 l 346 0 l 60 0 l 60 967 l 346 967 m 13 1044 l -81 1151 l 121 1347 l 285 1347 l 486 1151 l 393 1044 l 203 1164 l 13 1044 z "},"Ȉ":{"ha":406,"x_min":-157,"x_max":411,"o":"m 346 967 l 346 0 l 60 0 l 60 967 l 346 967 m 14 1393 l 158 1100 l 25 1036 l -157 1308 l 14 1393 m 278 1393 l 411 1096 l 275 1042 l 104 1315 l 278 1393 z "},"Ï":{"ha":406,"x_min":-103,"x_max":501,"o":"m 346 967 l 346 0 l 60 0 l 60 967 l 346 967 m 29 1311 q 123 1274 85 1311 q 161 1183 161 1236 q 123 1092 161 1129 q 29 1054 85 1054 q -64 1092 -25 1054 q -103 1183 -103 1129 q -64 1274 -103 1236 q 29 1311 -25 1311 m 369 1311 q 463 1274 425 1311 q 501 1183 501 1236 q 463 1092 501 1129 q 369 1054 425 1054 q 276 1092 315 1054 q 238 1183 238 1129 q 276 1274 238 1236 q 369 1311 315 1311 z "},"Ḯ":{"ha":406,"x_min":-114,"x_max":518,"o":"m 346 967 l 346 0 l 60 0 l 60 967 l 346 967 m 292 1592 l 436 1450 l 199 1243 l 97 1333 l 292 1592 m 18 1297 q 111 1260 72 1297 q 150 1169 150 1222 q 111 1078 150 1115 q 18 1040 72 1040 q -76 1078 -37 1040 q -114 1169 -114 1115 q -76 1260 -114 1222 q 18 1297 -37 1297 m 386 1297 q 479 1260 440 1297 q 518 1169 518 1222 q 479 1078 518 1115 q 386 1040 440 1040 q 292 1078 331 1040 q 254 1169 254 1115 q 292 1260 254 1222 q 386 1297 331 1297 z "},"İ":{"ha":406,"x_min":49,"x_max":357,"o":"m 346 967 l 346 0 l 60 0 l 60 967 l 346 967 m 203 1326 q 313 1284 269 1326 q 357 1179 357 1242 q 313 1074 357 1117 q 203 1032 269 1032 q 92 1074 136 1032 q 49 1179 49 1117 q 92 1284 49 1242 q 203 1326 136 1326 z "},"Ị":{"ha":406,"x_min":49,"x_max":357,"o":"m 346 967 l 346 0 l 60 0 l 60 967 l 346 967 m 203 -367 q 92 -324 136 -367 q 49 -219 49 -282 q 92 -115 49 -157 q 203 -72 136 -72 q 313 -115 269 -72 q 357 -219 357 -157 q 313 -324 357 -282 q 203 -367 269 -367 z "},"Ì":{"ha":406,"x_min":-8,"x_max":414,"o":"m 346 967 l 346 0 l 60 0 l 60 967 l 346 967 m 90 1367 l 414 1178 l 344 1040 l -8 1167 l 90 1367 z "},"Ỉ":{"ha":406,"x_min":47,"x_max":397,"o":"m 346 967 l 346 0 l 60 0 l 60 967 l 346 967 m 126 1190 q 202 1203 179 1192 q 225 1239 225 1214 q 211 1267 225 1257 q 174 1278 197 1278 q 131 1274 150 1278 q 88 1260 113 1269 l 47 1363 q 211 1401 113 1401 q 349 1360 300 1401 q 397 1251 397 1318 q 367 1161 397 1196 q 278 1115 336 1126 l 278 1061 l 126 1061 l 126 1190 z "},"Ȋ":{"ha":406,"x_min":-54,"x_max":460,"o":"m 346 967 l 346 0 l 60 0 l 60 967 l 346 967 m 203 1346 q 385 1268 321 1346 q 460 1074 450 1190 l 317 1050 q 276 1131 304 1101 q 203 1160 247 1160 q 130 1131 158 1160 q 89 1050 101 1101 l -54 1074 q 20 1268 -44 1190 q 203 1346 85 1346 z "},"Ī":{"ha":406,"x_min":-24,"x_max":428,"o":"m 346 967 l 346 0 l 60 0 l 60 967 l 346 967 m 428 1075 l -24 1075 l -24 1261 l 428 1261 l 428 1075 z "},"Į":{"ha":406,"x_min":-64,"x_max":346,"o":"m 346 967 l 346 0 l 282 0 q 158 -65 193 -29 q 122 -132 122 -100 q 193 -193 122 -193 q 278 -182 229 -193 l 261 -342 q 158 -353 213 -353 q -1 -306 61 -353 q -64 -178 -64 -258 q 60 15 -64 -60 l 60 967 l 346 967 z "},"Ɩ":{"ha":564,"x_min":46,"x_max":585,"o":"m 585 35 q 367 -28 499 -28 q 132 47 218 -28 q 46 265 46 122 l 46 967 l 332 967 l 332 247 q 350 192 332 211 q 401 174 368 174 q 447 180 428 174 q 496 201 465 186 l 585 35 z "},"Ɨ":{"ha":472,"x_min":0,"x_max":472,"o":"m 472 604 l 472 396 l 379 396 l 379 0 l 93 0 l 93 396 l 0 396 l 0 604 l 93 604 l 93 967 l 379 967 l 379 604 l 472 604 z "},"Ĩ":{"ha":406,"x_min":-76,"x_max":482,"o":"m 346 967 l 346 0 l 60 0 l 60 967 l 346 967 m 283 1039 q 227 1049 250 1039 q 178 1076 204 1058 q 150 1093 161 1088 q 126 1099 139 1099 q 86 1085 101 1099 q 53 1039 71 1071 l -76 1101 q 3 1237 -47 1183 q 119 1290 54 1290 q 178 1281 154 1290 q 229 1253 203 1271 q 257 1236 246 1242 q 281 1231 268 1231 q 319 1244 304 1231 q 353 1290 335 1258 l 482 1228 q 401 1092 453 1144 q 283 1039 350 1039 z "},"J":{"ha":451,"x_min":-28,"x_max":394,"o":"m 394 154 q 346 -55 394 28 q 223 -183 297 -137 q 49 -262 149 -229 l -28 -61 q 61 -8 32 -39 q 99 63 90 24 q 108 164 108 103 l 108 967 l 394 967 l 394 154 z "},"Ĵ":{"ha":451,"x_min":-32,"x_max":535,"o":"m 394 154 q 346 -55 394 28 q 223 -183 297 -137 q 49 -262 149 -229 l -28 -61 q 61 -8 32 -39 q 99 63 90 24 q 108 164 108 103 l 108 967 l 394 967 l 394 154 m 61 1044 l -32 1151 l 169 1347 l 333 1347 l 535 1151 l 442 1044 l 251 1164 l 61 1044 z "},"Ʝ":{"ha":513,"x_min":-125,"x_max":601,"o":"m 556 -162 q 426 -114 492 -133 q 311 -265 392 -215 q 101 -315 231 -315 q -66 -269 -7 -315 q -125 -143 -125 -224 q -61 -3 -125 -51 q 121 44 3 44 q 167 43 154 44 l 167 967 l 453 967 l 453 79 q 450 6 453 53 q 601 -57 528 -18 l 556 -162 m 86 -185 q 144 -160 125 -185 q 165 -78 163 -136 q 119 -76 156 -76 q 50 -91 71 -76 q 29 -135 29 -106 q 44 -172 29 -158 q 86 -185 58 -185 z "},"Ɉ":{"ha":488,"x_min":-28,"x_max":488,"o":"m 488 372 l 394 372 l 394 154 q 346 -55 394 28 q 223 -183 297 -137 q 49 -262 149 -229 l -28 -61 q 61 -8 32 -39 q 99 63 90 24 q 108 164 108 103 l 108 372 l 15 372 l 15 581 l 108 581 l 108 967 l 394 967 l 394 581 l 488 581 l 488 372 z "},"K":{"ha":915,"x_min":60,"x_max":943,"o":"m 346 967 l 346 0 l 60 0 l 60 967 l 346 967 m 918 967 l 644 538 l 943 0 l 618 0 l 354 515 l 624 967 l 918 967 z "},"Ǩ":{"ha":915,"x_min":60,"x_max":943,"o":"m 346 967 l 346 0 l 60 0 l 60 967 l 346 967 m 918 967 l 644 538 l 943 0 l 618 0 l 354 515 l 624 967 l 918 967 m 649 1340 l 742 1233 l 540 1038 l 376 1038 l 175 1233 l 268 1340 l 458 1221 l 649 1340 z "},"Ķ":{"ha":915,"x_min":60,"x_max":943,"o":"m 346 967 l 346 0 l 60 0 l 60 967 l 346 967 m 918 967 l 644 538 l 943 0 l 618 0 l 354 515 l 624 967 l 918 967 m 458 -86 q 550 -122 514 -86 q 586 -212 586 -158 q 578 -267 586 -242 q 549 -335 569 -292 l 479 -475 l 349 -475 l 383 -317 q 331 -212 331 -276 q 367 -123 331 -160 q 458 -86 403 -86 z "},"Ƙ":{"ha":938,"x_min":60,"x_max":965,"o":"m 354 515 l 521 806 q 641 953 582 911 q 799 994 700 994 q 965 940 894 994 l 897 783 q 881 791 896 785 q 844 797 867 797 q 801 784 818 797 q 760 731 783 771 l 644 538 l 943 0 l 618 0 l 354 515 m 346 967 l 346 0 l 60 0 l 60 967 l 346 967 z "},"L":{"ha":725,"x_min":60,"x_max":711,"o":"m 346 967 l 346 219 l 711 219 l 682 0 l 60 0 l 60 967 l 346 967 z "},"Ǉ":{"ha":1142,"x_min":60,"x_max":1085,"o":"m 346 967 l 346 219 l 711 219 l 682 0 l 60 0 l 60 967 l 346 967 m 1085 154 q 1036 -55 1085 28 q 913 -183 988 -137 q 739 -262 839 -229 l 663 -61 q 751 -8 722 -39 q 790 63 781 24 q 799 164 799 103 l 799 967 l 1085 967 l 1085 154 z "},"Ĺ":{"ha":725,"x_min":-8,"x_max":711,"o":"m 346 967 l 346 219 l 711 219 l 682 0 l 60 0 l 60 967 l 346 967 m 317 1367 l 414 1167 l 61 1040 l -8 1178 l 317 1367 z "},"Ƚ":{"ha":758,"x_min":0,"x_max":744,"o":"m 379 219 l 744 219 l 715 0 l 93 0 l 93 400 l 0 400 l 0 608 l 93 608 l 93 967 l 379 967 l 379 608 l 472 608 l 472 400 l 379 400 l 379 219 z "},"Ɬ":{"ha":903,"x_min":-7,"x_max":889,"o":"m 889 219 l 860 0 l 238 0 l 238 344 q 53 400 114 347 q -7 539 -7 453 q 44 666 -7 621 q 182 711 96 711 q 238 704 213 711 l 238 967 l 524 967 l 524 496 q 690 514 611 500 l 708 374 q 524 350 624 356 l 524 219 l 889 219 m 164 542 q 238 490 164 490 l 238 575 q 203 579 219 579 q 174 569 185 579 q 164 542 164 558 z "},"Ľ":{"ha":725,"x_min":60,"x_max":711,"o":"m 346 967 l 346 219 l 711 219 l 682 0 l 60 0 l 60 967 l 346 967 m 543 640 l 624 965 l 428 994 l 393 663 l 543 640 z "},"Ḽ":{"ha":725,"x_min":60,"x_max":711,"o":"m 346 967 l 346 219 l 711 219 l 682 0 l 60 0 l 60 967 l 346 967 m 181 -400 l 88 -293 l 289 -83 l 453 -83 l 654 -293 l 561 -400 l 371 -267 l 181 -400 z "},"Ļ":{"ha":725,"x_min":60,"x_max":711,"o":"m 346 967 l 346 219 l 711 219 l 682 0 l 60 0 l 60 967 l 346 967 m 371 -86 q 463 -122 426 -86 q 499 -212 499 -158 q 490 -267 499 -242 q 461 -335 482 -292 l 392 -475 l 261 -475 l 296 -317 q 243 -212 243 -276 q 279 -123 243 -160 q 371 -86 315 -86 z "},"Ŀ":{"ha":725,"x_min":60,"x_max":717,"o":"m 346 967 l 346 219 l 711 219 l 682 0 l 60 0 l 60 967 l 346 967 m 563 713 q 673 670 629 713 q 717 565 717 628 q 673 460 717 503 q 563 418 629 418 q 452 460 496 418 q 408 565 408 503 q 452 670 408 628 q 563 713 496 713 z "},"Ḷ":{"ha":725,"x_min":60,"x_max":711,"o":"m 346 967 l 346 219 l 711 219 l 682 0 l 60 0 l 60 967 l 346 967 m 371 -367 q 260 -324 304 -367 q 217 -219 217 -282 q 260 -115 217 -157 q 371 -72 304 -72 q 481 -115 438 -72 q 525 -219 525 -157 q 481 -324 525 -282 q 371 -367 438 -367 z "},"ǈ":{"ha":1096,"x_min":60,"x_max":1054,"o":"m 346 967 l 346 219 l 711 219 l 682 0 l 60 0 l 60 967 l 346 967 m 1038 107 q 949 -169 1038 -74 q 701 -315 860 -264 l 607 -115 q 693 -67 661 -90 q 744 -6 725 -43 q 763 90 763 32 l 763 742 l 1038 742 l 1038 107 m 900 1151 q 1010 1109 967 1151 q 1054 1004 1054 1067 q 1010 899 1054 942 q 900 857 967 857 q 790 899 833 857 q 746 1004 746 942 q 790 1109 746 1067 q 900 1151 833 1151 z "},"Ł":{"ha":800,"x_min":0,"x_max":786,"o":"m 421 219 l 786 219 l 757 0 l 135 0 l 135 285 l 88 256 l 0 399 l 135 482 l 135 967 l 421 967 l 421 658 l 571 751 l 660 610 l 421 463 l 421 219 z "},"M":{"ha":1099,"x_min":21,"x_max":1078,"o":"m 1078 0 l 796 0 l 789 343 q 788 464 788 383 q 799 738 788 606 l 685 97 l 414 97 l 292 738 q 310 407 310 544 l 310 344 l 303 0 l 21 0 l 90 967 l 443 967 l 554 340 l 654 967 l 1008 967 l 1078 0 z "},"Ḿ":{"ha":1099,"x_min":21,"x_max":1078,"o":"m 1078 0 l 796 0 l 789 343 q 788 464 788 383 q 799 738 788 606 l 685 97 l 414 97 l 292 738 q 310 407 310 544 l 310 344 l 303 0 l 21 0 l 90 967 l 443 967 l 554 340 l 654 967 l 1008 967 l 1078 0 m 663 1367 l 760 1167 l 407 1040 l 338 1178 l 663 1367 z "},"Ṁ":{"ha":1099,"x_min":21,"x_max":1078,"o":"m 1078 0 l 796 0 l 789 343 q 788 464 788 383 q 799 738 788 606 l 685 97 l 414 97 l 292 738 q 310 407 310 544 l 310 344 l 303 0 l 21 0 l 90 967 l 443 967 l 554 340 l 654 967 l 1008 967 l 1078 0 m 549 1326 q 659 1284 615 1326 q 703 1179 703 1242 q 659 1074 703 1117 q 549 1032 615 1032 q 438 1074 482 1032 q 394 1179 394 1117 q 438 1284 394 1242 q 549 1326 482 1326 z "},"Ɯ":{"ha":1256,"x_min":46,"x_max":1196,"o":"m 1196 967 l 1196 0 l 944 0 l 925 76 q 824 -3 874 21 q 710 -28 774 -28 q 588 4 640 -28 q 508 93 536 36 q 400 1 453 29 q 278 -28 347 -28 q 108 45 169 -28 q 46 236 46 118 l 46 967 l 332 967 l 332 251 q 346 199 332 218 q 386 179 360 179 q 422 194 404 179 q 456 227 439 208 q 478 253 472 246 l 478 967 l 764 967 l 764 251 q 778 199 764 218 q 817 179 792 179 q 863 197 842 179 q 910 253 885 214 l 910 967 l 1196 967 z "},"N":{"ha":904,"x_min":60,"x_max":844,"o":"m 844 0 l 486 0 l 275 706 l 279 675 q 303 490 294 574 q 313 300 313 406 l 313 0 l 60 0 l 60 967 l 411 967 l 631 258 l 626 288 q 601 466 610 383 q 592 657 592 549 l 592 967 l 844 967 l 844 0 z "},"Ǌ":{"ha":1356,"x_min":60,"x_max":1299,"o":"m 844 0 l 486 0 l 275 706 l 279 675 q 303 490 294 574 q 313 300 313 406 l 313 0 l 60 0 l 60 967 l 411 967 l 631 258 l 626 288 q 601 466 610 383 q 592 657 592 549 l 592 967 l 844 967 l 844 0 m 1299 154 q 1250 -55 1299 28 q 1127 -183 1201 -137 q 953 -262 1053 -229 l 876 -61 q 965 -8 936 -39 q 1003 63 994 24 q 1013 164 1013 103 l 1013 967 l 1299 967 l 1299 154 z "},"Ń":{"ha":904,"x_min":60,"x_max":844,"o":"m 844 0 l 486 0 l 275 706 l 279 675 q 303 490 294 574 q 313 300 313 406 l 313 0 l 60 0 l 60 967 l 411 967 l 631 258 l 626 288 q 601 466 610 383 q 592 657 592 549 l 592 967 l 844 967 l 844 0 m 567 1367 l 664 1167 l 311 1040 l 242 1178 l 567 1367 z "},"Ň":{"ha":904,"x_min":60,"x_max":844,"o":"m 844 0 l 486 0 l 275 706 l 279 675 q 303 490 294 574 q 313 300 313 406 l 313 0 l 60 0 l 60 967 l 411 967 l 631 258 l 626 288 q 601 466 610 383 q 592 657 592 549 l 592 967 l 844 967 l 844 0 m 643 1340 l 736 1233 l 535 1038 l 371 1038 l 169 1233 l 263 1340 l 453 1221 l 643 1340 z "},"Ṋ":{"ha":904,"x_min":60,"x_max":844,"o":"m 844 0 l 486 0 l 275 706 l 279 675 q 303 490 294 574 q 313 300 313 406 l 313 0 l 60 0 l 60 967 l 411 967 l 631 258 l 626 288 q 601 466 610 383 q 592 657 592 549 l 592 967 l 844 967 l 844 0 m 263 -400 l 169 -293 l 371 -83 l 535 -83 l 736 -293 l 643 -400 l 453 -267 l 263 -400 z "},"Ņ":{"ha":904,"x_min":60,"x_max":844,"o":"m 844 0 l 486 0 l 275 706 l 279 675 q 303 490 294 574 q 313 300 313 406 l 313 0 l 60 0 l 60 967 l 411 967 l 631 258 l 626 288 q 601 466 610 383 q 592 657 592 549 l 592 967 l 844 967 l 844 0 m 453 -86 q 544 -122 508 -86 q 581 -212 581 -158 q 572 -267 581 -242 q 543 -335 564 -292 l 474 -475 l 343 -475 l 378 -317 q 325 -212 325 -276 q 361 -123 325 -160 q 453 -86 397 -86 z "},"Ṅ":{"ha":904,"x_min":60,"x_max":844,"o":"m 844 0 l 486 0 l 275 706 l 279 675 q 303 490 294 574 q 313 300 313 406 l 313 0 l 60 0 l 60 967 l 411 967 l 631 258 l 626 288 q 601 466 610 383 q 592 657 592 549 l 592 967 l 844 967 l 844 0 m 453 1326 q 563 1284 519 1326 q 607 1179 607 1242 q 563 1074 607 1117 q 453 1032 519 1032 q 342 1074 386 1032 q 299 1179 299 1117 q 342 1284 299 1242 q 453 1326 386 1326 z "},"Ṇ":{"ha":904,"x_min":60,"x_max":844,"o":"m 844 0 l 486 0 l 275 706 l 279 675 q 303 490 294 574 q 313 300 313 406 l 313 0 l 60 0 l 60 967 l 411 967 l 631 258 l 626 288 q 601 466 610 383 q 592 657 592 549 l 592 967 l 844 967 l 844 0 m 453 -367 q 342 -324 386 -367 q 299 -219 299 -282 q 342 -115 299 -157 q 453 -72 386 -72 q 563 -115 519 -72 q 607 -219 607 -157 q 563 -324 607 -282 q 453 -367 519 -367 z "},"Ǹ":{"ha":904,"x_min":60,"x_max":844,"o":"m 844 0 l 486 0 l 275 706 l 279 675 q 303 490 294 574 q 313 300 313 406 l 313 0 l 60 0 l 60 967 l 411 967 l 631 258 l 626 288 q 601 466 610 383 q 592 657 592 549 l 592 967 l 844 967 l 844 0 m 340 1367 l 664 1178 l 594 1040 l 242 1167 l 340 1367 z "},"Ŋ":{"ha":904,"x_min":60,"x_max":844,"o":"m 844 967 l 844 -22 q 758 -240 844 -165 q 524 -315 672 -315 q 306 -253 392 -315 l 394 -86 q 444 -108 425 -101 q 489 -114 463 -114 q 540 -95 522 -114 q 558 -40 558 -76 l 558 0 l 486 0 l 275 706 l 279 675 q 303 490 294 574 q 313 300 313 406 l 313 0 l 60 0 l 60 967 l 411 967 l 631 258 l 626 288 q 601 466 610 383 q 592 657 592 549 l 592 967 l 844 967 z "},"Ɲ":{"ha":904,"x_min":-196,"x_max":844,"o":"m 844 967 l 844 0 l 486 0 l 275 706 l 279 675 q 303 490 294 574 q 313 300 313 406 l 313 -22 q 234 -240 313 -165 q 22 -315 156 -315 q -196 -253 -110 -315 l -107 -93 q -58 -115 -76 -108 q -12 -121 -39 -121 q 41 -102 22 -121 q 60 -47 60 -83 l 60 967 l 411 967 l 631 258 l 626 288 q 601 466 610 383 q 592 657 592 549 l 592 967 l 844 967 z "},"ǋ":{"ha":1296,"x_min":60,"x_max":1254,"o":"m 844 0 l 486 0 l 275 706 l 279 675 q 303 490 294 574 q 313 300 313 406 l 313 0 l 60 0 l 60 967 l 411 967 l 631 258 l 626 288 q 601 466 610 383 q 592 657 592 549 l 592 967 l 844 967 l 844 0 m 1238 107 q 1149 -169 1238 -74 q 901 -315 1060 -264 l 807 -115 q 893 -67 861 -90 q 944 -6 925 -43 q 963 90 963 32 l 963 742 l 1238 742 l 1238 107 m 1100 1151 q 1210 1109 1167 1151 q 1254 1004 1254 1067 q 1210 899 1254 942 q 1100 857 1167 857 q 990 899 1033 857 q 946 1004 946 942 q 990 1109 946 1067 q 1100 1151 1033 1151 z "},"Ƞ":{"ha":893,"x_min":60,"x_max":840,"o":"m 594 994 q 777 925 714 994 q 840 744 840 856 l 840 -299 l 554 -299 l 554 701 q 538 767 554 746 q 485 788 522 788 q 414 770 446 788 q 346 714 382 753 l 346 0 l 60 0 l 60 967 l 311 967 l 331 888 q 452 969 393 944 q 594 994 511 994 z "},"Ñ":{"ha":904,"x_min":60,"x_max":844,"o":"m 844 0 l 486 0 l 275 706 l 279 675 q 303 490 294 574 q 313 300 313 406 l 313 0 l 60 0 l 60 967 l 411 967 l 631 258 l 626 288 q 601 466 610 383 q 592 657 592 549 l 592 967 l 844 967 l 844 0 m 533 1039 q 477 1049 500 1039 q 428 1076 454 1058 q 400 1093 411 1088 q 376 1099 389 1099 q 336 1085 351 1099 q 303 1039 321 1071 l 174 1101 q 253 1237 203 1183 q 369 1290 304 1290 q 428 1281 404 1290 q 479 1253 453 1271 q 507 1236 496 1242 q 531 1231 518 1231 q 569 1244 554 1231 q 603 1290 585 1258 l 732 1228 q 651 1092 703 1144 q 533 1039 600 1039 z "},"O":{"ha":958,"x_min":28,"x_max":931,"o":"m 479 994 q 813 860 696 994 q 931 485 931 726 q 878 213 931 328 q 724 35 825 97 q 479 -28 622 -28 q 145 108 263 -28 q 28 485 28 243 q 81 756 28 642 q 235 933 133 871 q 479 994 336 994 m 479 792 q 361 722 397 792 q 325 485 325 651 q 361 247 325 318 q 479 175 397 175 q 598 246 563 175 q 633 485 633 317 q 597 722 633 651 q 479 792 561 792 z "},"Ȣ":{"ha":903,"x_min":28,"x_max":875,"o":"m 699 564 q 875 310 875 492 q 823 140 875 218 q 675 17 771 63 q 451 -28 579 -28 q 227 17 324 -28 q 79 138 131 61 q 28 310 28 214 q 73 462 28 399 q 203 561 118 525 q 81 769 81 625 l 81 967 l 367 967 l 367 750 q 385 672 367 697 q 451 647 403 647 q 518 672 500 647 q 536 750 536 697 l 536 967 l 822 967 l 822 769 q 790 649 822 701 q 699 564 758 596 m 451 175 q 545 213 513 175 q 578 314 578 250 q 544 417 578 378 q 451 456 511 456 q 358 417 392 456 q 325 314 325 378 q 358 213 325 250 q 451 175 392 175 z "},"Ó":{"ha":958,"x_min":28,"x_max":931,"o":"m 479 994 q 813 860 696 994 q 931 485 931 726 q 878 213 931 328 q 724 35 825 97 q 479 -28 622 -28 q 145 108 263 -28 q 28 485 28 243 q 81 756 28 642 q 235 933 133 871 q 479 994 336 994 m 479 792 q 361 722 397 792 q 325 485 325 651 q 361 247 325 318 q 479 175 397 175 q 598 246 563 175 q 633 485 633 317 q 597 722 633 651 q 479 792 561 792 m 593 1367 l 690 1167 l 338 1040 l 268 1178 l 593 1367 z "},"Ŏ":{"ha":958,"x_min":28,"x_max":931,"o":"m 479 994 q 813 860 696 994 q 931 485 931 726 q 878 213 931 328 q 724 35 825 97 q 479 -28 622 -28 q 145 108 263 -28 q 28 485 28 243 q 81 756 28 642 q 235 933 133 871 q 479 994 336 994 m 479 792 q 361 722 397 792 q 325 485 325 651 q 361 247 325 318 q 479 175 397 175 q 598 246 563 175 q 633 485 633 317 q 597 722 633 651 q 479 792 561 792 m 479 1036 q 297 1112 363 1036 q 222 1294 232 1188 l 365 1318 q 406 1249 378 1276 q 479 1222 435 1222 q 552 1249 524 1222 q 593 1318 581 1276 l 736 1294 q 661 1112 726 1188 q 479 1036 596 1036 z "},"Ǒ":{"ha":958,"x_min":28,"x_max":931,"o":"m 479 994 q 813 860 696 994 q 931 485 931 726 q 878 213 931 328 q 724 35 825 97 q 479 -28 622 -28 q 145 108 263 -28 q 28 485 28 243 q 81 756 28 642 q 235 933 133 871 q 479 994 336 994 m 479 792 q 361 722 397 792 q 325 485 325 651 q 361 247 325 318 q 479 175 397 175 q 598 246 563 175 q 633 485 633 317 q 597 722 633 651 q 479 792 561 792 m 669 1340 l 763 1233 l 561 1038 l 397 1038 l 196 1233 l 289 1340 l 479 1221 l 669 1340 z "},"Ɵ":{"ha":958,"x_min":28,"x_max":931,"o":"m 479 994 q 813 860 696 994 q 931 485 931 726 q 878 213 931 328 q 724 35 825 97 q 479 -28 622 -28 q 145 108 263 -28 q 28 485 28 243 q 81 756 28 642 q 235 933 133 871 q 479 994 336 994 m 479 792 q 368 738 407 792 q 321 561 329 683 l 638 561 q 590 738 629 683 q 479 792 551 792 m 479 175 q 592 231 554 175 q 639 414 631 288 l 319 414 q 367 231 328 288 q 479 175 406 175 z "},"Ô":{"ha":958,"x_min":28,"x_max":931,"o":"m 479 994 q 813 860 696 994 q 931 485 931 726 q 878 213 931 328 q 724 35 825 97 q 479 -28 622 -28 q 145 108 263 -28 q 28 485 28 243 q 81 756 28 642 q 235 933 133 871 q 479 994 336 994 m 479 792 q 361 722 397 792 q 325 485 325 651 q 361 247 325 318 q 479 175 397 175 q 598 246 563 175 q 633 485 633 317 q 597 722 633 651 q 479 792 561 792 m 289 1044 l 196 1151 l 397 1347 l 561 1347 l 763 1151 l 669 1044 l 479 1164 l 289 1044 z "},"Ố":{"ha":958,"x_min":28,"x_max":969,"o":"m 479 994 q 813 860 696 994 q 931 485 931 726 q 878 213 931 328 q 724 35 825 97 q 479 -28 622 -28 q 145 108 263 -28 q 28 485 28 243 q 81 756 28 642 q 235 933 133 871 q 479 994 336 994 m 479 792 q 361 722 397 792 q 325 485 325 651 q 361 247 325 318 q 479 175 397 175 q 598 246 563 175 q 633 485 633 317 q 597 722 633 651 q 479 792 561 792 m 289 1006 l 196 1113 l 397 1308 l 561 1308 l 763 1113 l 669 1006 l 479 1125 l 289 1006 m 825 1581 l 969 1439 l 732 1232 l 631 1322 l 825 1581 z "},"Ộ":{"ha":958,"x_min":28,"x_max":931,"o":"m 479 994 q 813 860 696 994 q 931 485 931 726 q 878 213 931 328 q 724 35 825 97 q 479 -28 622 -28 q 145 108 263 -28 q 28 485 28 243 q 81 756 28 642 q 235 933 133 871 q 479 994 336 994 m 479 792 q 361 722 397 792 q 325 485 325 651 q 361 247 325 318 q 479 175 397 175 q 598 246 563 175 q 633 485 633 317 q 597 722 633 651 q 479 792 561 792 m 289 1044 l 196 1151 l 397 1347 l 561 1347 l 763 1151 l 669 1044 l 479 1164 l 289 1044 m 479 -367 q 369 -324 413 -367 q 325 -219 325 -282 q 369 -115 325 -157 q 479 -72 413 -72 q 590 -115 546 -72 q 633 -219 633 -157 q 590 -324 633 -282 q 479 -367 546 -367 z "},"Ồ":{"ha":958,"x_min":-10,"x_max":931,"o":"m 479 994 q 813 860 696 994 q 931 485 931 726 q 878 213 931 328 q 724 35 825 97 q 479 -28 622 -28 q 145 108 263 -28 q 28 485 28 243 q 81 756 28 642 q 235 933 133 871 q 479 994 336 994 m 479 792 q 361 722 397 792 q 325 485 325 651 q 361 247 325 318 q 479 175 397 175 q 598 246 563 175 q 633 485 633 317 q 597 722 633 651 q 479 792 561 792 m 288 1006 l 194 1113 l 396 1308 l 560 1308 l 761 1113 l 668 1006 l 478 1125 l 288 1006 m 135 1581 l 329 1322 l 228 1232 l -10 1439 l 135 1581 z "},"Ổ":{"ha":958,"x_min":28,"x_max":932,"o":"m 479 994 q 813 860 696 994 q 931 485 931 726 q 878 213 931 328 q 724 35 825 97 q 479 -28 622 -28 q 145 108 263 -28 q 28 485 28 243 q 81 756 28 642 q 235 933 133 871 q 479 994 336 994 m 479 792 q 361 722 397 792 q 325 485 325 651 q 361 247 325 318 q 479 175 397 175 q 598 246 563 175 q 633 485 633 317 q 597 722 633 651 q 479 792 561 792 m 288 1006 l 194 1113 l 396 1308 l 560 1308 l 761 1113 l 668 1006 l 478 1125 l 288 1006 m 661 1350 q 737 1363 714 1351 q 760 1399 760 1374 q 746 1427 760 1417 q 708 1438 732 1438 q 666 1433 685 1438 q 622 1419 647 1429 l 582 1522 q 746 1561 647 1561 q 883 1519 835 1561 q 932 1411 932 1478 q 901 1321 932 1356 q 813 1275 871 1286 l 813 1221 l 661 1221 l 661 1350 z "},"Ỗ":{"ha":958,"x_min":28,"x_max":931,"o":"m 479 994 q 813 860 696 994 q 931 485 931 726 q 878 213 931 328 q 724 35 825 97 q 479 -28 622 -28 q 145 108 263 -28 q 28 485 28 243 q 81 756 28 642 q 235 933 133 871 q 479 994 336 994 m 479 792 q 361 722 397 792 q 325 485 325 651 q 361 247 325 318 q 479 175 397 175 q 598 246 563 175 q 633 485 633 317 q 597 722 633 651 q 479 792 561 792 m 286 1006 l 193 1113 l 394 1308 l 558 1308 l 760 1113 l 667 1006 l 476 1125 l 286 1006 m 557 1344 q 501 1353 524 1344 q 451 1378 478 1363 q 432 1388 449 1379 q 400 1397 415 1397 q 360 1385 375 1397 q 326 1344 344 1374 l 197 1400 q 277 1523 226 1475 q 393 1571 328 1571 q 452 1562 428 1571 q 503 1536 476 1553 q 522 1526 506 1535 q 554 1517 539 1517 q 593 1529 578 1517 q 626 1571 608 1542 l 756 1514 q 675 1392 726 1439 q 557 1344 624 1344 z "},"Ȍ":{"ha":958,"x_min":28,"x_max":931,"o":"m 479 994 q 813 860 696 994 q 931 485 931 726 q 878 213 931 328 q 724 35 825 97 q 479 -28 622 -28 q 145 108 263 -28 q 28 485 28 243 q 81 756 28 642 q 235 933 133 871 q 479 994 336 994 m 479 792 q 361 722 397 792 q 325 485 325 651 q 361 247 325 318 q 479 175 397 175 q 598 246 563 175 q 633 485 633 317 q 597 722 633 651 q 479 792 561 792 m 290 1393 l 435 1100 l 301 1036 l 119 1308 l 290 1393 m 554 1393 l 688 1096 l 551 1042 l 381 1315 l 554 1393 z "},"Ö":{"ha":958,"x_min":28,"x_max":931,"o":"m 479 994 q 813 860 696 994 q 931 485 931 726 q 878 213 931 328 q 724 35 825 97 q 479 -28 622 -28 q 145 108 263 -28 q 28 485 28 243 q 81 756 28 642 q 235 933 133 871 q 479 994 336 994 m 479 792 q 361 722 397 792 q 325 485 325 651 q 361 247 325 318 q 479 175 397 175 q 598 246 563 175 q 633 485 633 317 q 597 722 633 651 q 479 792 561 792 m 306 1311 q 399 1274 361 1311 q 438 1183 438 1236 q 399 1092 438 1129 q 306 1054 361 1054 q 213 1092 251 1054 q 174 1183 174 1129 q 213 1274 174 1236 q 306 1311 251 1311 m 646 1311 q 740 1274 701 1311 q 778 1183 778 1236 q 740 1092 778 1129 q 646 1054 701 1054 q 553 1092 592 1054 q 514 1183 514 1129 q 553 1274 514 1236 q 646 1311 592 1311 z "},"Ȫ":{"ha":958,"x_min":28,"x_max":931,"o":"m 479 994 q 813 860 696 994 q 931 485 931 726 q 878 213 931 328 q 724 35 825 97 q 479 -28 622 -28 q 145 108 263 -28 q 28 485 28 243 q 81 756 28 642 q 235 933 133 871 q 479 994 336 994 m 479 792 q 361 722 397 792 q 325 485 325 651 q 361 247 325 318 q 479 175 397 175 q 598 246 563 175 q 633 485 633 317 q 597 722 633 651 q 479 792 561 792 m 308 1292 q 402 1254 364 1292 q 440 1164 440 1217 q 402 1072 440 1110 q 308 1035 364 1035 q 215 1072 254 1035 q 176 1164 176 1110 q 215 1254 176 1217 q 308 1292 254 1292 m 649 1292 q 742 1254 704 1292 q 781 1164 781 1217 q 742 1072 781 1110 q 649 1035 704 1035 q 556 1072 594 1035 q 517 1164 517 1110 q 556 1254 517 1217 q 649 1292 594 1292 m 710 1338 l 258 1338 l 258 1524 l 710 1524 l 710 1338 z "},"Ȯ":{"ha":958,"x_min":28,"x_max":931,"o":"m 479 994 q 813 860 696 994 q 931 485 931 726 q 878 213 931 328 q 724 35 825 97 q 479 -28 622 -28 q 145 108 263 -28 q 28 485 28 243 q 81 756 28 642 q 235 933 133 871 q 479 994 336 994 m 479 792 q 361 722 397 792 q 325 485 325 651 q 361 247 325 318 q 479 175 397 175 q 598 246 563 175 q 633 485 633 317 q 597 722 633 651 q 479 792 561 792 m 479 1326 q 590 1284 546 1326 q 633 1179 633 1242 q 590 1074 633 1117 q 479 1032 546 1032 q 369 1074 413 1032 q 325 1179 325 1117 q 369 1284 325 1242 q 479 1326 413 1326 z "},"Ȱ":{"ha":958,"x_min":28,"x_max":931,"o":"m 479 994 q 813 860 696 994 q 931 485 931 726 q 878 213 931 328 q 724 35 825 97 q 479 -28 622 -28 q 145 108 263 -28 q 28 485 28 243 q 81 756 28 642 q 235 933 133 871 q 479 994 336 994 m 479 792 q 361 722 397 792 q 325 485 325 651 q 361 247 325 318 q 479 175 397 175 q 598 246 563 175 q 633 485 633 317 q 597 722 633 651 q 479 792 561 792 m 474 1313 q 584 1270 540 1313 q 628 1165 628 1228 q 584 1060 628 1103 q 474 1018 540 1018 q 363 1060 407 1018 q 319 1165 319 1103 q 363 1270 319 1228 q 474 1313 407 1313 m 701 1338 l 250 1338 l 250 1524 l 701 1524 l 701 1338 z "},"Ọ":{"ha":958,"x_min":28,"x_max":931,"o":"m 479 994 q 813 860 696 994 q 931 485 931 726 q 878 213 931 328 q 724 35 825 97 q 479 -28 622 -28 q 145 108 263 -28 q 28 485 28 243 q 81 756 28 642 q 235 933 133 871 q 479 994 336 994 m 479 792 q 361 722 397 792 q 325 485 325 651 q 361 247 325 318 q 479 175 397 175 q 598 246 563 175 q 633 485 633 317 q 597 722 633 651 q 479 792 561 792 m 479 -367 q 369 -324 413 -367 q 325 -219 325 -282 q 369 -115 325 -157 q 479 -72 413 -72 q 590 -115 546 -72 q 633 -219 633 -157 q 590 -324 633 -282 q 479 -367 546 -367 z "},"Ò":{"ha":958,"x_min":28,"x_max":931,"o":"m 479 994 q 813 860 696 994 q 931 485 931 726 q 878 213 931 328 q 724 35 825 97 q 479 -28 622 -28 q 145 108 263 -28 q 28 485 28 243 q 81 756 28 642 q 235 933 133 871 q 479 994 336 994 m 479 792 q 361 722 397 792 q 325 485 325 651 q 361 247 325 318 q 479 175 397 175 q 598 246 563 175 q 633 485 633 317 q 597 722 633 651 q 479 792 561 792 m 367 1367 l 690 1178 l 621 1040 l 268 1167 l 367 1367 z "},"Ỏ":{"ha":958,"x_min":28,"x_max":931,"o":"m 479 994 q 813 860 696 994 q 931 485 931 726 q 878 213 931 328 q 724 35 825 97 q 479 -28 622 -28 q 145 108 263 -28 q 28 485 28 243 q 81 756 28 642 q 235 933 133 871 q 479 994 336 994 m 479 792 q 361 722 397 792 q 325 485 325 651 q 361 247 325 318 q 479 175 397 175 q 598 246 563 175 q 633 485 633 317 q 597 722 633 651 q 479 792 561 792 m 403 1190 q 478 1203 456 1192 q 501 1239 501 1214 q 488 1267 501 1257 q 450 1278 474 1278 q 408 1274 426 1278 q 364 1260 389 1269 l 324 1363 q 488 1401 389 1401 q 625 1360 576 1401 q 674 1251 674 1318 q 643 1161 674 1196 q 554 1115 613 1126 l 554 1061 l 403 1061 l 403 1190 z "},"Ơ":{"ha":1004,"x_min":28,"x_max":1032,"o":"m 1032 946 q 992 823 1032 869 q 878 761 951 776 q 931 485 931 644 q 878 213 931 328 q 724 35 825 97 q 479 -28 622 -28 q 145 108 263 -28 q 28 485 28 243 q 81 756 28 642 q 235 933 133 871 q 479 994 336 994 q 794 879 679 994 q 842 903 828 883 q 856 963 856 922 q 839 1053 856 1006 l 1006 1074 q 1032 946 1032 1018 m 479 175 q 598 246 563 175 q 633 485 633 317 q 597 722 633 651 q 479 792 561 792 q 361 722 397 792 q 325 485 325 651 q 361 247 325 318 q 479 175 397 175 z "},"Ớ":{"ha":1004,"x_min":28,"x_max":1032,"o":"m 690 1167 l 338 1040 l 268 1178 l 593 1367 l 690 1167 m 1032 946 q 992 823 1032 869 q 878 761 951 776 q 931 485 931 644 q 878 213 931 328 q 724 35 825 97 q 479 -28 622 -28 q 145 108 263 -28 q 28 485 28 243 q 81 756 28 642 q 235 933 133 871 q 479 994 336 994 q 794 879 679 994 q 842 903 828 883 q 856 963 856 922 q 839 1053 856 1006 l 1006 1074 q 1032 946 1032 1018 m 479 175 q 598 246 563 175 q 633 485 633 317 q 597 722 633 651 q 479 792 561 792 q 361 722 397 792 q 325 485 325 651 q 361 247 325 318 q 479 175 397 175 z "},"Ợ":{"ha":1004,"x_min":28,"x_max":1032,"o":"m 1032 946 q 992 823 1032 869 q 878 761 951 776 q 931 485 931 644 q 878 213 931 328 q 724 35 825 97 q 479 -28 622 -28 q 145 108 263 -28 q 28 485 28 243 q 81 756 28 642 q 235 933 133 871 q 479 994 336 994 q 794 879 679 994 q 842 903 828 883 q 856 963 856 922 q 839 1053 856 1006 l 1006 1074 q 1032 946 1032 1018 m 479 175 q 598 246 563 175 q 633 485 633 317 q 597 722 633 651 q 479 792 561 792 q 361 722 397 792 q 325 485 325 651 q 361 247 325 318 q 479 175 397 175 m 479 -72 q 590 -115 546 -72 q 633 -219 633 -157 q 590 -324 633 -282 q 479 -367 546 -367 q 369 -324 413 -367 q 325 -219 325 -282 q 369 -115 325 -157 q 479 -72 413 -72 z "},"Ờ":{"ha":1004,"x_min":28,"x_max":1032,"o":"m 690 1178 l 621 1040 l 268 1167 l 367 1367 l 690 1178 m 1032 946 q 992 823 1032 869 q 878 761 951 776 q 931 485 931 644 q 878 213 931 328 q 724 35 825 97 q 479 -28 622 -28 q 145 108 263 -28 q 28 485 28 243 q 81 756 28 642 q 235 933 133 871 q 479 994 336 994 q 794 879 679 994 q 842 903 828 883 q 856 963 856 922 q 839 1053 856 1006 l 1006 1074 q 1032 946 1032 1018 m 479 175 q 598 246 563 175 q 633 485 633 317 q 597 722 633 651 q 479 792 561 792 q 361 722 397 792 q 325 485 325 651 q 361 247 325 318 q 479 175 397 175 z "},"Ở":{"ha":1004,"x_min":28,"x_max":1032,"o":"m 450 1278 q 408 1274 426 1278 q 364 1260 389 1269 l 324 1363 q 488 1401 389 1401 q 625 1360 576 1401 q 674 1251 674 1318 q 643 1161 674 1196 q 554 1115 613 1126 l 554 1061 l 403 1061 l 403 1190 q 478 1203 456 1192 q 501 1239 501 1214 q 488 1267 501 1257 q 450 1278 474 1278 m 1032 946 q 992 823 1032 869 q 878 761 951 776 q 931 485 931 644 q 878 213 931 328 q 724 35 825 97 q 479 -28 622 -28 q 145 108 263 -28 q 28 485 28 243 q 81 756 28 642 q 235 933 133 871 q 479 994 336 994 q 794 879 679 994 q 842 903 828 883 q 856 963 856 922 q 839 1053 856 1006 l 1006 1074 q 1032 946 1032 1018 m 479 175 q 598 246 563 175 q 633 485 633 317 q 597 722 633 651 q 479 792 561 792 q 361 722 397 792 q 325 485 325 651 q 361 247 325 318 q 479 175 397 175 z "},"Ỡ":{"ha":1004,"x_min":28,"x_max":1032,"o":"m 403 1099 q 363 1085 378 1099 q 329 1039 347 1071 l 200 1101 q 280 1237 229 1183 q 396 1290 331 1290 q 455 1281 431 1290 q 506 1253 479 1271 q 533 1236 522 1242 q 557 1231 544 1231 q 596 1244 581 1231 q 629 1290 611 1258 l 758 1228 q 678 1092 729 1144 q 560 1039 626 1039 q 503 1049 526 1039 q 454 1076 481 1058 q 426 1093 438 1088 q 403 1099 415 1099 m 1032 946 q 992 823 1032 869 q 878 761 951 776 q 931 485 931 644 q 878 213 931 328 q 724 35 825 97 q 479 -28 622 -28 q 145 108 263 -28 q 28 485 28 243 q 81 756 28 642 q 235 933 133 871 q 479 994 336 994 q 794 879 679 994 q 842 903 828 883 q 856 963 856 922 q 839 1053 856 1006 l 1006 1074 q 1032 946 1032 1018 m 479 175 q 598 246 563 175 q 633 485 633 317 q 597 722 633 651 q 479 792 561 792 q 361 722 397 792 q 325 485 325 651 q 361 247 325 318 q 479 175 397 175 z "},"Ő":{"ha":958,"x_min":28,"x_max":931,"o":"m 479 994 q 813 860 696 994 q 931 485 931 726 q 878 213 931 328 q 724 35 825 97 q 479 -28 622 -28 q 145 108 263 -28 q 28 485 28 243 q 81 756 28 642 q 235 933 133 871 q 479 994 336 994 m 479 792 q 361 722 397 792 q 325 485 325 651 q 361 247 325 318 q 479 175 397 175 q 598 246 563 175 q 633 485 633 317 q 597 722 633 651 q 479 792 561 792 m 411 1393 l 585 1315 l 414 1042 l 278 1096 l 411 1393 m 675 1393 l 846 1308 l 664 1036 l 531 1100 l 675 1393 z "},"Ƣ":{"ha":1363,"x_min":28,"x_max":1303,"o":"m 986 994 q 1217 919 1132 994 q 1303 701 1303 844 l 1303 -299 l 1017 -299 l 1017 713 q 947 800 1017 800 q 863 782 906 800 q 931 485 931 661 q 878 213 931 328 q 724 35 825 97 q 479 -28 622 -28 q 145 108 263 -28 q 28 485 28 243 q 81 756 28 642 q 235 933 133 871 q 479 994 336 994 q 740 919 631 994 q 986 994 851 994 m 479 175 q 598 246 563 175 q 633 485 633 317 q 597 722 633 651 q 479 792 561 792 q 361 722 397 792 q 325 485 325 651 q 361 247 325 318 q 479 175 397 175 z "},"Ȏ":{"ha":958,"x_min":28,"x_max":931,"o":"m 479 994 q 813 860 696 994 q 931 485 931 726 q 878 213 931 328 q 724 35 825 97 q 479 -28 622 -28 q 145 108 263 -28 q 28 485 28 243 q 81 756 28 642 q 235 933 133 871 q 479 994 336 994 m 479 792 q 361 722 397 792 q 325 485 325 651 q 361 247 325 318 q 479 175 397 175 q 598 246 563 175 q 633 485 633 317 q 597 722 633 651 q 479 792 561 792 m 479 1346 q 662 1268 597 1346 q 736 1074 726 1190 l 593 1050 q 552 1131 581 1101 q 479 1160 524 1160 q 406 1131 435 1160 q 365 1050 378 1101 l 222 1074 q 297 1268 232 1190 q 479 1346 361 1346 z "},"Ō":{"ha":958,"x_min":28,"x_max":931,"o":"m 479 994 q 813 860 696 994 q 931 485 931 726 q 878 213 931 328 q 724 35 825 97 q 479 -28 622 -28 q 145 108 263 -28 q 28 485 28 243 q 81 756 28 642 q 235 933 133 871 q 479 994 336 994 m 479 792 q 361 722 397 792 q 325 485 325 651 q 361 247 325 318 q 479 175 397 175 q 598 246 563 175 q 633 485 633 317 q 597 722 633 651 q 479 792 561 792 m 704 1075 l 253 1075 l 253 1261 l 704 1261 l 704 1075 z "},"Ṓ":{"ha":958,"x_min":28,"x_max":931,"o":"m 479 994 q 813 860 696 994 q 931 485 931 726 q 878 213 931 328 q 724 35 825 97 q 479 -28 622 -28 q 145 108 263 -28 q 28 485 28 243 q 81 756 28 642 q 235 933 133 871 q 479 994 336 994 m 479 792 q 361 722 397 792 q 325 485 325 651 q 361 247 325 318 q 479 175 397 175 q 598 246 563 175 q 633 485 633 317 q 597 722 633 651 q 479 792 561 792 m 704 1058 l 253 1058 l 253 1244 l 704 1244 l 704 1058 m 593 1600 l 690 1400 l 338 1274 l 268 1411 l 593 1600 z "},"Ṑ":{"ha":958,"x_min":28,"x_max":931,"o":"m 367 1600 l 690 1411 l 621 1274 l 268 1400 l 367 1600 m 704 1058 l 253 1058 l 253 1244 l 704 1244 l 704 1058 m 479 994 q 813 860 696 994 q 931 485 931 726 q 878 213 931 328 q 724 35 825 97 q 479 -28 622 -28 q 145 108 263 -28 q 28 485 28 243 q 81 756 28 642 q 235 933 133 871 q 479 994 336 994 m 479 792 q 361 722 397 792 q 325 485 325 651 q 361 247 325 318 q 479 175 397 175 q 598 246 563 175 q 633 485 633 317 q 597 722 633 651 q 479 792 561 792 z "},"Ꞷ":{"ha":1272,"x_min":56,"x_max":1217,"o":"m 1106 967 q 1188 722 1160 844 q 1217 422 1217 600 q 1135 83 1217 194 q 890 -28 1053 -28 q 638 151 690 -28 q 549 16 614 60 q 397 -28 483 -28 q 138 82 221 -28 q 56 422 56 192 q 84 721 56 599 q 165 967 113 843 l 428 967 l 418 929 q 361 688 381 793 q 342 439 342 583 q 362 235 342 296 q 431 175 382 175 q 499 278 499 175 l 499 554 l 781 554 l 781 278 q 795 197 781 219 q 847 175 810 175 q 912 235 893 175 q 931 439 931 294 q 917 640 931 549 q 883 799 903 731 q 831 967 864 867 l 1106 967 z "},"Ǫ":{"ha":958,"x_min":28,"x_max":931,"o":"m 931 485 q 858 174 931 300 q 651 0 786 49 q 527 -65 563 -29 q 492 -132 492 -100 q 563 -193 492 -193 q 647 -182 599 -193 l 631 -342 q 528 -353 582 -353 q 368 -306 431 -353 q 306 -178 306 -258 q 381 -19 306 -83 q 119 141 210 10 q 28 485 28 272 q 81 756 28 642 q 235 933 133 871 q 479 994 336 994 q 813 860 696 994 q 931 485 931 726 m 479 792 q 361 722 397 792 q 325 485 325 651 q 361 247 325 318 q 479 175 397 175 q 598 246 563 175 q 633 485 633 317 q 597 722 633 651 q 479 792 561 792 z "},"Ǭ":{"ha":958,"x_min":28,"x_max":931,"o":"m 704 1261 l 704 1075 l 253 1075 l 253 1261 l 704 1261 m 931 485 q 858 174 931 300 q 651 0 786 49 q 527 -65 563 -29 q 492 -132 492 -100 q 563 -193 492 -193 q 647 -182 599 -193 l 631 -342 q 528 -353 582 -353 q 368 -306 431 -353 q 306 -178 306 -258 q 381 -19 306 -83 q 119 141 210 10 q 28 485 28 272 q 81 756 28 642 q 235 933 133 871 q 479 994 336 994 q 813 860 696 994 q 931 485 931 726 m 479 792 q 361 722 397 792 q 325 485 325 651 q 361 247 325 318 q 479 175 397 175 q 598 246 563 175 q 633 485 633 317 q 597 722 633 651 q 479 792 561 792 z "},"Ɔ":{"ha":811,"x_min":0,"x_max":783,"o":"m 339 994 q 572 934 471 994 q 728 759 672 874 q 783 486 783 644 q 727 206 783 322 q 567 31 671 90 q 325 -28 464 -28 q 144 10 226 -28 q 0 107 61 47 l 124 264 q 217 206 175 225 q 310 188 258 188 q 440 258 394 188 q 486 486 486 329 q 444 717 486 644 q 322 789 403 789 q 231 772 272 789 q 147 721 190 754 l 11 881 q 157 965 78 936 q 339 994 236 994 z "},"Ø":{"ha":958,"x_min":28,"x_max":931,"o":"m 738 926 q 881 753 832 865 q 931 485 931 640 q 878 213 931 328 q 724 35 825 97 q 479 -28 622 -28 q 425 -25 461 -28 l 374 -193 l 165 -137 l 221 42 q 77 216 126 103 q 28 485 28 329 q 81 756 28 642 q 235 933 133 871 q 479 994 336 994 q 533 992 497 994 l 585 1157 l 793 1101 l 738 926 m 479 792 q 361 722 397 792 q 325 485 325 651 q 346 267 325 336 l 504 790 q 479 792 496 792 m 479 175 q 598 246 563 175 q 633 485 633 317 q 613 700 633 632 l 456 176 q 479 175 463 175 z "},"Ǿ":{"ha":958,"x_min":28,"x_max":931,"o":"m 738 926 q 881 753 832 865 q 931 485 931 640 q 878 213 931 328 q 724 35 825 97 q 479 -28 622 -28 q 425 -25 461 -28 l 374 -193 l 165 -137 l 221 42 q 77 216 126 103 q 28 485 28 329 q 81 756 28 642 q 235 933 133 871 q 479 994 336 994 q 533 992 497 994 l 585 1157 l 793 1101 l 738 926 m 479 792 q 361 722 397 792 q 325 485 325 651 q 346 267 325 336 l 504 790 q 479 792 496 792 m 479 175 q 598 246 563 175 q 633 485 633 317 q 613 700 633 632 l 456 176 q 479 175 463 175 m 593 1429 l 690 1229 l 338 1103 l 268 1240 l 593 1429 z "},"Õ":{"ha":958,"x_min":28,"x_max":931,"o":"m 479 994 q 813 860 696 994 q 931 485 931 726 q 878 213 931 328 q 724 35 825 97 q 479 -28 622 -28 q 145 108 263 -28 q 28 485 28 243 q 81 756 28 642 q 235 933 133 871 q 479 994 336 994 m 479 792 q 361 722 397 792 q 325 485 325 651 q 361 247 325 318 q 479 175 397 175 q 598 246 563 175 q 633 485 633 317 q 597 722 633 651 q 479 792 561 792 m 560 1039 q 503 1049 526 1039 q 454 1076 481 1058 q 426 1093 438 1088 q 403 1099 415 1099 q 363 1085 378 1099 q 329 1039 347 1071 l 200 1101 q 280 1237 229 1183 q 396 1290 331 1290 q 455 1281 431 1290 q 506 1253 479 1271 q 533 1236 522 1242 q 557 1231 544 1231 q 596 1244 581 1231 q 629 1290 611 1258 l 758 1228 q 678 1092 729 1144 q 560 1039 626 1039 z "},"Ṍ":{"ha":958,"x_min":28,"x_max":931,"o":"m 479 994 q 813 860 696 994 q 931 485 931 726 q 878 213 931 328 q 724 35 825 97 q 479 -28 622 -28 q 145 108 263 -28 q 28 485 28 243 q 81 756 28 642 q 235 933 133 871 q 479 994 336 994 m 479 792 q 361 722 397 792 q 325 485 325 651 q 361 247 325 318 q 479 175 397 175 q 598 246 563 175 q 633 485 633 317 q 597 722 633 651 q 479 792 561 792 m 560 1047 q 503 1057 526 1047 q 454 1085 481 1067 q 426 1101 438 1096 q 403 1107 415 1107 q 363 1093 378 1107 q 329 1047 347 1079 l 200 1110 q 280 1245 229 1192 q 396 1299 331 1299 q 455 1289 431 1299 q 506 1261 479 1279 q 533 1244 522 1250 q 557 1239 544 1239 q 596 1253 581 1239 q 629 1299 611 1267 l 758 1236 q 678 1100 729 1153 q 560 1047 626 1047 m 593 1639 l 690 1439 l 338 1313 l 268 1450 l 593 1639 z "},"Ȭ":{"ha":958,"x_min":28,"x_max":931,"o":"m 479 994 q 813 860 696 994 q 931 485 931 726 q 878 213 931 328 q 724 35 825 97 q 479 -28 622 -28 q 145 108 263 -28 q 28 485 28 243 q 81 756 28 642 q 235 933 133 871 q 479 994 336 994 m 479 792 q 361 722 397 792 q 325 485 325 651 q 361 247 325 318 q 479 175 397 175 q 598 246 563 175 q 633 485 633 317 q 597 722 633 651 q 479 792 561 792 m 560 1047 q 503 1057 526 1047 q 454 1085 481 1067 q 426 1101 438 1096 q 403 1107 415 1107 q 363 1093 378 1107 q 329 1047 347 1079 l 200 1110 q 280 1245 229 1192 q 396 1299 331 1299 q 455 1289 431 1299 q 506 1261 479 1279 q 533 1244 522 1250 q 557 1239 544 1239 q 596 1253 581 1239 q 629 1299 611 1267 l 758 1236 q 678 1100 729 1153 q 560 1047 626 1047 m 704 1336 l 253 1336 l 253 1522 l 704 1522 l 704 1336 z "},"Œ":{"ha":1264,"x_min":28,"x_max":1236,"o":"m 896 394 q 824 200 878 283 l 1229 200 l 1229 0 l 603 0 q 454 -28 536 -28 q 226 33 322 -28 q 79 210 131 94 q 28 485 28 325 q 79 756 28 640 q 226 933 131 871 q 454 994 322 994 q 608 967 540 994 l 1236 967 l 1207 768 l 825 768 q 894 588 876 690 l 1168 588 l 1168 394 l 896 394 m 465 175 q 572 247 539 175 q 606 485 606 318 q 572 720 606 649 q 465 792 538 792 q 359 720 393 792 q 325 485 325 649 q 359 247 325 319 q 465 175 393 175 z "},"P":{"ha":849,"x_min":60,"x_max":828,"o":"m 408 967 q 717 884 607 967 q 828 642 828 801 q 723 389 828 476 q 440 301 618 301 l 346 301 l 346 0 l 60 0 l 60 967 l 408 967 m 413 503 q 536 642 536 503 q 404 768 536 768 l 346 768 l 346 503 l 413 503 z "},"Ṕ":{"ha":849,"x_min":60,"x_max":828,"o":"m 408 967 q 717 884 607 967 q 828 642 828 801 q 723 389 828 476 q 440 301 618 301 l 346 301 l 346 0 l 60 0 l 60 967 l 408 967 m 413 503 q 536 642 536 503 q 404 768 536 768 l 346 768 l 346 503 l 413 503 m 539 1367 l 636 1167 l 283 1040 l 214 1178 l 539 1367 z "},"Ṗ":{"ha":849,"x_min":60,"x_max":828,"o":"m 408 967 q 717 884 607 967 q 828 642 828 801 q 723 389 828 476 q 440 301 618 301 l 346 301 l 346 0 l 60 0 l 60 967 l 408 967 m 413 503 q 536 642 536 503 q 404 768 536 768 l 346 768 l 346 503 l 413 503 m 425 1326 q 535 1284 492 1326 q 579 1179 579 1242 q 535 1074 579 1117 q 425 1032 492 1032 q 315 1074 358 1032 q 271 1179 271 1117 q 315 1284 271 1242 q 425 1326 358 1326 z "},"Ƥ":{"ha":1094,"x_min":0,"x_max":1074,"o":"m 654 967 q 963 884 853 967 q 1074 642 1074 801 q 969 389 1074 476 q 686 301 864 301 l 592 301 l 592 0 l 306 0 l 306 768 l 271 768 q 214 717 214 768 q 219 678 214 697 q 235 632 224 660 l 64 560 q 17 648 35 606 q 0 736 0 690 q 78 906 0 844 q 286 967 157 967 l 654 967 m 658 503 q 782 642 782 503 q 650 768 782 768 l 592 768 l 592 503 l 658 503 z "},"Þ":{"ha":849,"x_min":60,"x_max":828,"o":"m 408 824 q 717 741 607 824 q 828 497 828 658 q 723 236 828 325 q 440 147 618 147 l 346 147 l 346 0 l 60 0 l 60 967 l 346 967 l 346 824 l 408 824 m 413 349 q 505 385 474 349 q 536 497 536 421 q 404 625 536 625 l 346 625 l 346 349 l 413 349 z "},"Q":{"ha":958,"x_min":28,"x_max":1000,"o":"m 700 67 q 869 46 800 67 q 1000 -21 938 25 l 832 -240 q 670 -83 758 -143 q 458 -22 582 -22 q 227 38 324 -22 q 79 211 131 97 q 28 485 28 325 q 81 756 28 642 q 235 933 133 871 q 479 994 336 994 q 813 860 696 994 q 931 485 931 726 q 865 226 931 326 q 700 67 799 125 m 325 485 q 361 247 325 318 q 479 175 397 175 q 598 246 563 175 q 633 485 633 317 q 597 722 633 651 q 479 792 561 792 q 361 722 397 792 q 325 485 325 651 z "},"Ɋ":{"ha":938,"x_min":28,"x_max":1131,"o":"m 1131 -253 q 913 -315 1044 -315 q 678 -240 764 -315 q 592 -22 592 -165 l 592 36 q 410 -28 521 -28 q 207 33 293 -28 q 74 206 121 93 q 28 471 28 318 q 77 750 28 632 q 213 931 126 868 q 413 994 300 994 q 615 915 529 994 l 622 967 l 878 967 l 878 -40 q 896 -95 878 -76 q 947 -114 914 -114 q 992 -108 974 -114 q 1042 -86 1011 -101 l 1131 -253 m 476 168 q 592 208 542 168 l 592 747 q 476 792 544 792 q 362 718 399 792 q 325 471 325 644 q 362 236 325 304 q 476 168 399 168 z "},"R":{"ha":867,"x_min":60,"x_max":894,"o":"m 399 344 l 346 344 l 346 0 l 60 0 l 60 967 l 414 967 q 726 892 624 967 q 829 660 829 818 q 789 510 829 569 q 658 397 749 450 l 894 0 l 578 0 l 399 344 m 346 536 l 421 536 q 508 567 479 536 q 538 660 538 597 q 407 771 538 771 l 346 771 l 346 536 z "},"Ŕ":{"ha":867,"x_min":60,"x_max":894,"o":"m 399 344 l 346 344 l 346 0 l 60 0 l 60 967 l 414 967 q 726 892 624 967 q 829 660 829 818 q 789 510 829 569 q 658 397 749 450 l 894 0 l 578 0 l 399 344 m 346 536 l 421 536 q 508 567 479 536 q 538 660 538 597 q 407 771 538 771 l 346 771 l 346 536 m 533 1367 l 631 1167 l 278 1040 l 208 1178 l 533 1367 z "},"Ř":{"ha":867,"x_min":60,"x_max":894,"o":"m 399 344 l 346 344 l 346 0 l 60 0 l 60 967 l 414 967 q 726 892 624 967 q 829 660 829 818 q 789 510 829 569 q 658 397 749 450 l 894 0 l 578 0 l 399 344 m 346 536 l 421 536 q 508 567 479 536 q 538 660 538 597 q 407 771 538 771 l 346 771 l 346 536 m 610 1340 l 703 1233 l 501 1038 l 338 1038 l 136 1233 l 229 1340 l 419 1221 l 610 1340 z "},"Ŗ":{"ha":867,"x_min":60,"x_max":894,"o":"m 399 344 l 346 344 l 346 0 l 60 0 l 60 967 l 414 967 q 726 892 624 967 q 829 660 829 818 q 789 510 829 569 q 658 397 749 450 l 894 0 l 578 0 l 399 344 m 346 536 l 421 536 q 508 567 479 536 q 538 660 538 597 q 407 771 538 771 l 346 771 l 346 536 m 433 -86 q 525 -122 489 -86 q 561 -212 561 -158 q 553 -267 561 -242 q 524 -335 544 -292 l 454 -475 l 324 -475 l 358 -317 q 306 -212 306 -276 q 342 -123 306 -160 q 433 -86 378 -86 z "},"Ȑ":{"ha":867,"x_min":60,"x_max":894,"o":"m 399 344 l 346 344 l 346 0 l 60 0 l 60 967 l 414 967 q 726 892 624 967 q 829 660 829 818 q 789 510 829 569 q 658 397 749 450 l 894 0 l 578 0 l 399 344 m 346 536 l 421 536 q 508 567 479 536 q 538 660 538 597 q 407 771 538 771 l 346 771 l 346 536 m 231 1393 l 375 1100 l 242 1036 l 60 1308 l 231 1393 m 494 1393 l 628 1096 l 492 1042 l 321 1315 l 494 1393 z "},"Ṛ":{"ha":867,"x_min":60,"x_max":894,"o":"m 399 344 l 346 344 l 346 0 l 60 0 l 60 967 l 414 967 q 726 892 624 967 q 829 660 829 818 q 789 510 829 569 q 658 397 749 450 l 894 0 l 578 0 l 399 344 m 346 536 l 421 536 q 508 567 479 536 q 538 660 538 597 q 407 771 538 771 l 346 771 l 346 536 m 433 -367 q 323 -324 367 -367 q 279 -219 279 -282 q 323 -115 279 -157 q 433 -72 367 -72 q 544 -115 500 -72 q 588 -219 588 -157 q 544 -324 588 -282 q 433 -367 500 -367 z "},"Ȓ":{"ha":867,"x_min":60,"x_max":894,"o":"m 399 344 l 346 344 l 346 0 l 60 0 l 60 967 l 414 967 q 726 892 624 967 q 829 660 829 818 q 789 510 829 569 q 658 397 749 450 l 894 0 l 578 0 l 399 344 m 346 536 l 421 536 q 508 567 479 536 q 538 660 538 597 q 407 771 538 771 l 346 771 l 346 536 m 419 1346 q 602 1268 538 1346 q 676 1074 667 1190 l 533 1050 q 492 1131 521 1101 q 419 1160 464 1160 q 347 1131 375 1160 q 306 1050 318 1101 l 163 1074 q 237 1268 172 1190 q 419 1346 301 1346 z "},"Ɍ":{"ha":889,"x_min":14,"x_max":917,"o":"m 421 344 l 368 344 l 368 0 l 82 0 l 82 344 l 14 344 l 14 536 l 82 536 l 82 967 l 436 967 q 749 892 646 967 q 851 660 851 818 q 811 510 851 569 q 681 397 771 450 l 917 0 l 600 0 l 421 344 m 368 771 l 368 536 l 443 536 q 531 567 501 536 q 560 660 560 597 q 429 771 560 771 l 368 771 z "},"Ɽ":{"ha":867,"x_min":60,"x_max":894,"o":"m 415 -114 q 460 -108 442 -114 q 510 -86 479 -101 l 599 -253 q 381 -315 513 -315 q 146 -240 232 -315 q 60 -22 60 -165 l 60 967 l 414 967 q 726 892 624 967 q 829 660 829 818 q 789 510 829 569 q 658 397 749 450 l 894 0 l 578 0 l 399 344 l 346 344 l 346 -40 q 364 -95 346 -76 q 415 -114 382 -114 m 346 771 l 346 536 l 421 536 q 508 567 479 536 q 538 660 538 597 q 407 771 538 771 l 346 771 z "},"S":{"ha":817,"x_min":0,"x_max":796,"o":"m 415 994 q 772 863 636 994 l 646 714 q 439 792 549 792 q 361 774 388 792 q 335 722 335 756 q 349 681 335 697 q 398 651 364 665 q 508 613 432 638 q 728 490 661 564 q 796 289 796 417 q 747 124 796 196 q 606 13 697 53 q 389 -28 514 -28 q 164 13 261 -28 q 0 118 67 53 l 140 272 q 378 178 250 178 q 468 202 438 178 q 499 265 499 226 q 485 314 499 294 q 439 350 472 333 q 342 386 406 367 q 107 513 174 439 q 40 699 40 588 q 89 856 40 789 q 223 958 138 922 q 415 994 308 994 z "},"Ś":{"ha":817,"x_min":0,"x_max":796,"o":"m 415 994 q 772 863 636 994 l 646 714 q 439 792 549 792 q 361 774 388 792 q 335 722 335 756 q 349 681 335 697 q 398 651 364 665 q 508 613 432 638 q 728 490 661 564 q 796 289 796 417 q 747 124 796 196 q 606 13 697 53 q 389 -28 514 -28 q 164 13 261 -28 q 0 118 67 53 l 140 272 q 378 178 250 178 q 468 202 438 178 q 499 265 499 226 q 485 314 499 294 q 439 350 472 333 q 342 386 406 367 q 107 513 174 439 q 40 699 40 588 q 89 856 40 789 q 223 958 138 922 q 415 994 308 994 m 540 1367 l 638 1167 l 285 1040 l 215 1178 l 540 1367 z "},"Ꞌ":{"ha":368,"x_min":56,"x_max":313,"o":"m 86 453 l 56 967 l 313 967 l 282 453 l 86 453 z "},"Š":{"ha":817,"x_min":0,"x_max":796,"o":"m 415 994 q 772 863 636 994 l 646 714 q 439 792 549 792 q 361 774 388 792 q 335 722 335 756 q 349 681 335 697 q 398 651 364 665 q 508 613 432 638 q 728 490 661 564 q 796 289 796 417 q 747 124 796 196 q 606 13 697 53 q 389 -28 514 -28 q 164 13 261 -28 q 0 118 67 53 l 140 272 q 378 178 250 178 q 468 202 438 178 q 499 265 499 226 q 485 314 499 294 q 439 350 472 333 q 342 386 406 367 q 107 513 174 439 q 40 699 40 588 q 89 856 40 789 q 223 958 138 922 q 415 994 308 994 m 617 1340 l 710 1233 l 508 1038 l 344 1038 l 143 1233 l 236 1340 l 426 1221 l 617 1340 z "},"Ş":{"ha":817,"x_min":0,"x_max":796,"o":"m 796 289 q 711 81 796 165 q 475 -22 626 -3 l 475 -60 q 628 -210 628 -79 q 567 -333 628 -285 q 400 -382 506 -382 q 303 -369 349 -382 q 226 -335 258 -356 l 286 -215 q 375 -240 332 -240 q 438 -207 438 -240 q 407 -176 438 -185 q 307 -167 376 -167 l 325 -25 q 0 118 131 -7 l 140 272 q 378 178 250 178 q 468 202 438 178 q 499 265 499 226 q 485 314 499 294 q 439 350 472 333 q 342 386 406 367 q 107 513 174 439 q 40 699 40 588 q 89 856 40 789 q 223 958 138 922 q 415 994 308 994 q 772 863 636 994 l 646 714 q 439 792 549 792 q 361 774 388 792 q 335 722 335 756 q 349 681 335 697 q 398 651 364 665 q 508 613 432 638 q 728 490 661 564 q 796 289 796 417 z "},"Ŝ":{"ha":817,"x_min":0,"x_max":796,"o":"m 415 994 q 772 863 636 994 l 646 714 q 439 792 549 792 q 361 774 388 792 q 335 722 335 756 q 349 681 335 697 q 398 651 364 665 q 508 613 432 638 q 728 490 661 564 q 796 289 796 417 q 747 124 796 196 q 606 13 697 53 q 389 -28 514 -28 q 164 13 261 -28 q 0 118 67 53 l 140 272 q 378 178 250 178 q 468 202 438 178 q 499 265 499 226 q 485 314 499 294 q 439 350 472 333 q 342 386 406 367 q 107 513 174 439 q 40 699 40 588 q 89 856 40 789 q 223 958 138 922 q 415 994 308 994 m 236 1044 l 143 1151 l 344 1347 l 508 1347 l 710 1151 l 617 1044 l 426 1164 l 236 1044 z "},"Ș":{"ha":817,"x_min":0,"x_max":796,"o":"m 415 994 q 772 863 636 994 l 646 714 q 439 792 549 792 q 361 774 388 792 q 335 722 335 756 q 349 681 335 697 q 398 651 364 665 q 508 613 432 638 q 728 490 661 564 q 796 289 796 417 q 747 124 796 196 q 606 13 697 53 q 389 -28 514 -28 q 164 13 261 -28 q 0 118 67 53 l 140 272 q 378 178 250 178 q 468 202 438 178 q 499 265 499 226 q 485 314 499 294 q 439 350 472 333 q 342 386 406 367 q 107 513 174 439 q 40 699 40 588 q 89 856 40 789 q 223 958 138 922 q 415 994 308 994 m 407 -86 q 499 -122 463 -86 q 535 -212 535 -158 q 526 -267 535 -242 q 497 -335 518 -292 l 428 -475 l 297 -475 l 332 -317 q 279 -212 279 -276 q 315 -123 279 -160 q 407 -86 351 -86 z "},"Ṡ":{"ha":817,"x_min":0,"x_max":796,"o":"m 415 994 q 772 863 636 994 l 646 714 q 439 792 549 792 q 361 774 388 792 q 335 722 335 756 q 349 681 335 697 q 398 651 364 665 q 508 613 432 638 q 728 490 661 564 q 796 289 796 417 q 747 124 796 196 q 606 13 697 53 q 389 -28 514 -28 q 164 13 261 -28 q 0 118 67 53 l 140 272 q 378 178 250 178 q 468 202 438 178 q 499 265 499 226 q 485 314 499 294 q 439 350 472 333 q 342 386 406 367 q 107 513 174 439 q 40 699 40 588 q 89 856 40 789 q 223 958 138 922 q 415 994 308 994 m 426 1326 q 537 1284 493 1326 q 581 1179 581 1242 q 537 1074 581 1117 q 426 1032 493 1032 q 316 1074 360 1032 q 272 1179 272 1117 q 316 1284 272 1242 q 426 1326 360 1326 z "},"Ṣ":{"ha":817,"x_min":0,"x_max":796,"o":"m 415 994 q 772 863 636 994 l 646 714 q 439 792 549 792 q 361 774 388 792 q 335 722 335 756 q 349 681 335 697 q 398 651 364 665 q 508 613 432 638 q 728 490 661 564 q 796 289 796 417 q 747 124 796 196 q 606 13 697 53 q 389 -28 514 -28 q 164 13 261 -28 q 0 118 67 53 l 140 272 q 378 178 250 178 q 468 202 438 178 q 499 265 499 226 q 485 314 499 294 q 439 350 472 333 q 342 386 406 367 q 107 513 174 439 q 40 699 40 588 q 89 856 40 789 q 223 958 138 922 q 415 994 308 994 m 407 -367 q 297 -324 340 -367 q 253 -219 253 -282 q 297 -115 253 -157 q 407 -72 340 -72 q 517 -115 474 -72 q 561 -219 561 -157 q 517 -324 561 -282 q 407 -367 474 -367 z "},"ẞ":{"ha":940,"x_min":60,"x_max":919,"o":"m 424 994 q 645 970 551 994 q 856 896 739 946 l 856 781 l 671 550 q 852 463 785 526 q 919 275 919 400 q 872 108 919 176 q 744 6 824 39 q 572 -28 665 -28 q 379 13 460 -28 l 460 196 q 532 182 492 182 q 595 206 568 182 q 622 281 622 229 q 578 378 622 343 q 431 428 535 414 l 431 557 l 590 769 q 444 792 519 792 q 369 765 392 792 q 346 679 346 739 l 346 0 l 60 0 l 60 669 q 153 908 60 822 q 424 994 246 994 z "},"Ə":{"ha":881,"x_min":14,"x_max":853,"o":"m 424 994 q 742 865 631 994 q 853 486 853 735 q 742 105 853 238 q 429 -28 631 -28 q 115 106 217 -28 q 14 472 14 239 q 24 578 14 526 l 565 578 q 394 792 557 792 q 286 773 332 792 q 192 719 240 754 l 68 868 q 228 963 143 932 q 424 994 314 994 m 429 175 q 530 224 496 175 q 565 390 564 274 l 288 390 q 324 225 288 275 q 429 175 361 175 z "},"T":{"ha":769,"x_min":7,"x_max":776,"o":"m 776 967 l 747 753 l 528 753 l 528 0 l 242 0 l 242 753 l 7 753 l 7 967 l 776 967 z "},"Ŧ":{"ha":769,"x_min":7,"x_max":776,"o":"m 747 753 l 528 753 l 528 543 l 679 543 l 679 396 l 528 396 l 528 0 l 242 0 l 242 396 l 89 396 l 89 543 l 242 543 l 242 753 l 7 753 l 7 967 l 776 967 l 747 753 z "},"Ť":{"ha":769,"x_min":7,"x_max":776,"o":"m 776 967 l 747 753 l 528 753 l 528 0 l 242 0 l 242 753 l 7 753 l 7 967 l 776 967 m 575 1340 l 668 1233 l 467 1038 l 303 1038 l 101 1233 l 194 1340 l 385 1221 l 575 1340 z "},"Ţ":{"ha":769,"x_min":7,"x_max":776,"o":"m 528 -60 q 681 -210 681 -79 q 619 -333 681 -285 q 453 -382 558 -382 q 357 -368 403 -382 q 279 -335 311 -354 l 339 -215 q 425 -240 385 -240 q 474 -233 458 -240 q 490 -206 490 -225 q 460 -176 490 -185 q 360 -167 429 -167 l 381 0 l 242 0 l 242 753 l 7 753 l 7 967 l 776 967 l 747 753 l 528 753 l 528 -60 z "},"Ṱ":{"ha":769,"x_min":7,"x_max":776,"o":"m 776 967 l 747 753 l 528 753 l 528 0 l 242 0 l 242 753 l 7 753 l 7 967 l 776 967 m 194 -400 l 101 -293 l 303 -83 l 467 -83 l 668 -293 l 575 -400 l 385 -267 l 194 -400 z "},"Ț":{"ha":769,"x_min":7,"x_max":776,"o":"m 776 967 l 747 753 l 528 753 l 528 0 l 242 0 l 242 753 l 7 753 l 7 967 l 776 967 m 385 -86 q 476 -122 440 -86 q 513 -212 513 -158 q 504 -267 513 -242 q 475 -335 496 -292 l 406 -475 l 275 -475 l 310 -317 q 257 -212 257 -276 q 293 -123 257 -160 q 385 -86 329 -86 z "},"Ⱦ":{"ha":769,"x_min":7,"x_max":776,"o":"m 747 767 l 633 767 l 507 519 l 507 0 l 263 0 l 263 42 l 186 -107 l 113 -68 l 263 225 l 263 767 l 7 767 l 7 967 l 643 967 l 688 1054 l 761 1015 l 736 967 l 776 967 l 747 767 m 507 701 l 540 767 l 507 767 l 507 701 z "},"Ṫ":{"ha":769,"x_min":7,"x_max":776,"o":"m 776 967 l 747 753 l 528 753 l 528 0 l 242 0 l 242 753 l 7 753 l 7 967 l 776 967 m 385 1326 q 495 1284 451 1326 q 539 1179 539 1242 q 495 1074 539 1117 q 385 1032 451 1032 q 274 1074 318 1032 q 231 1179 231 1117 q 274 1284 231 1242 q 385 1326 318 1326 z "},"Ṭ":{"ha":769,"x_min":7,"x_max":776,"o":"m 776 967 l 747 753 l 528 753 l 528 0 l 242 0 l 242 753 l 7 753 l 7 967 l 776 967 m 385 -367 q 274 -324 318 -367 q 231 -219 231 -282 q 274 -115 231 -157 q 385 -72 318 -72 q 495 -115 451 -72 q 539 -219 539 -157 q 495 -324 539 -282 q 385 -367 451 -367 z "},"Ƭ":{"ha":860,"x_min":0,"x_max":867,"o":"m 838 753 l 618 753 l 618 0 l 332 0 l 332 753 l 271 753 q 228 740 243 753 q 214 703 214 726 q 218 670 214 685 q 232 632 222 656 l 51 560 q 0 736 0 650 q 81 906 0 844 q 299 967 161 967 l 867 967 l 838 753 z "},"Ṯ":{"ha":769,"x_min":7,"x_max":776,"o":"m 776 967 l 747 753 l 528 753 l 528 0 l 242 0 l 242 753 l 7 753 l 7 967 l 776 967 m 610 -281 l 158 -281 l 158 -94 l 610 -94 l 610 -281 z "},"Ƽ":{"ha":781,"x_min":7,"x_max":746,"o":"m 665 775 l 333 775 l 333 617 q 471 646 401 646 q 611 608 549 646 q 710 499 674 571 q 746 325 746 426 q 697 139 746 218 q 558 16 649 60 q 344 -28 467 -28 q 149 15 235 -28 q 7 129 64 57 l 158 267 q 235 199 190 224 q 333 175 281 175 q 431 212 397 175 q 465 322 465 249 q 354 464 465 464 q 249 431 306 464 l 69 431 l 69 967 l 694 967 l 665 775 z "},"Ƅ":{"ha":890,"x_min":0,"x_max":876,"o":"m 483 651 q 775 572 674 651 q 876 336 876 493 q 772 86 876 172 q 494 0 667 0 l 108 0 l 108 656 l 0 733 q 158 967 92 828 l 394 967 l 394 651 l 483 651 m 457 201 q 549 235 519 201 q 579 333 579 269 q 451 460 579 460 l 394 460 l 394 201 l 457 201 z "},"Ƨ":{"ha":803,"x_min":21,"x_max":803,"o":"m 415 994 q 608 958 525 994 q 738 856 692 922 q 783 701 783 789 q 713 522 783 593 q 475 399 642 450 q 351 341 385 371 q 318 268 318 311 q 431 182 318 182 q 663 272 550 182 l 803 118 q 633 13 732 54 q 407 -28 533 -28 q 203 13 290 -28 q 68 124 115 53 q 21 289 21 196 q 88 481 21 410 q 308 600 156 551 q 451 659 413 633 q 489 722 489 685 q 463 773 489 754 q 392 792 438 792 q 278 772 331 792 q 178 714 226 753 l 51 863 q 415 994 199 994 z "},"Ʈ":{"ha":774,"x_min":7,"x_max":781,"o":"m 781 -253 q 563 -315 694 -315 q 328 -240 414 -315 q 242 -22 242 -165 l 242 753 l 7 753 l 7 967 l 776 967 l 747 753 l 528 753 l 528 -40 q 546 -95 528 -76 q 597 -114 564 -114 q 642 -108 624 -114 q 692 -86 661 -101 l 781 -253 z "},"U":{"ha":894,"x_min":46,"x_max":849,"o":"m 849 328 q 804 146 849 226 q 669 19 760 65 q 447 -28 579 -28 q 147 68 249 -28 q 46 328 46 164 l 46 967 l 332 967 l 332 336 q 359 216 332 254 q 447 178 386 178 q 535 216 508 178 q 563 336 563 254 l 563 967 l 849 967 l 849 328 z "},"Ú":{"ha":894,"x_min":46,"x_max":849,"o":"m 849 328 q 804 146 849 226 q 669 19 760 65 q 447 -28 579 -28 q 147 68 249 -28 q 46 328 46 164 l 46 967 l 332 967 l 332 336 q 359 216 332 254 q 447 178 386 178 q 535 216 508 178 q 563 336 563 254 l 563 967 l 849 967 l 849 328 m 561 1367 l 658 1167 l 306 1040 l 236 1178 l 561 1367 z "},"Ʉ":{"ha":939,"x_min":0,"x_max":939,"o":"m 939 688 l 871 688 l 871 328 q 826 146 871 226 q 692 19 782 65 q 469 -28 601 -28 q 169 68 271 -28 q 68 328 68 164 l 68 688 l 0 688 l 0 835 l 68 835 l 68 967 l 354 967 l 354 835 l 585 835 l 585 967 l 871 967 l 871 835 l 939 835 l 939 688 m 585 688 l 354 688 l 354 336 q 381 216 354 254 q 469 178 408 178 q 558 216 531 178 q 585 336 585 254 l 585 688 z "},"Ŭ":{"ha":894,"x_min":46,"x_max":849,"o":"m 849 328 q 804 146 849 226 q 669 19 760 65 q 447 -28 579 -28 q 147 68 249 -28 q 46 328 46 164 l 46 967 l 332 967 l 332 336 q 359 216 332 254 q 447 178 386 178 q 535 216 508 178 q 563 336 563 254 l 563 967 l 849 967 l 849 328 m 447 1036 q 265 1112 331 1036 q 190 1294 200 1188 l 333 1318 q 374 1249 346 1276 q 447 1222 403 1222 q 520 1249 492 1222 q 561 1318 549 1276 l 704 1294 q 629 1112 694 1188 q 447 1036 564 1036 z "},"Ǔ":{"ha":894,"x_min":46,"x_max":849,"o":"m 849 328 q 804 146 849 226 q 669 19 760 65 q 447 -28 579 -28 q 147 68 249 -28 q 46 328 46 164 l 46 967 l 332 967 l 332 336 q 359 216 332 254 q 447 178 386 178 q 535 216 508 178 q 563 336 563 254 l 563 967 l 849 967 l 849 328 m 638 1340 l 731 1233 l 529 1038 l 365 1038 l 164 1233 l 257 1340 l 447 1221 l 638 1340 z "},"Û":{"ha":894,"x_min":46,"x_max":849,"o":"m 849 328 q 804 146 849 226 q 669 19 760 65 q 447 -28 579 -28 q 147 68 249 -28 q 46 328 46 164 l 46 967 l 332 967 l 332 336 q 359 216 332 254 q 447 178 386 178 q 535 216 508 178 q 563 336 563 254 l 563 967 l 849 967 l 849 328 m 257 1044 l 164 1151 l 365 1347 l 529 1347 l 731 1151 l 638 1044 l 447 1164 l 257 1044 z "},"Ȕ":{"ha":894,"x_min":46,"x_max":849,"o":"m 849 328 q 804 146 849 226 q 669 19 760 65 q 447 -28 579 -28 q 147 68 249 -28 q 46 328 46 164 l 46 967 l 332 967 l 332 336 q 359 216 332 254 q 447 178 386 178 q 535 216 508 178 q 563 336 563 254 l 563 967 l 849 967 l 849 328 m 258 1393 l 403 1100 l 269 1036 l 88 1308 l 258 1393 m 522 1393 l 656 1096 l 519 1042 l 349 1315 l 522 1393 z "},"Ü":{"ha":894,"x_min":46,"x_max":849,"o":"m 849 328 q 804 146 849 226 q 669 19 760 65 q 447 -28 579 -28 q 147 68 249 -28 q 46 328 46 164 l 46 967 l 332 967 l 332 336 q 359 216 332 254 q 447 178 386 178 q 535 216 508 178 q 563 336 563 254 l 563 967 l 849 967 l 849 328 m 274 1311 q 367 1274 329 1311 q 406 1183 406 1236 q 367 1092 406 1129 q 274 1054 329 1054 q 181 1092 219 1054 q 142 1183 142 1129 q 181 1274 142 1236 q 274 1311 219 1311 m 614 1311 q 708 1274 669 1311 q 746 1183 746 1236 q 708 1092 746 1129 q 614 1054 669 1054 q 521 1092 560 1054 q 482 1183 482 1129 q 521 1274 482 1236 q 614 1311 560 1311 z "},"Ǘ":{"ha":894,"x_min":46,"x_max":849,"o":"m 849 328 q 804 146 849 226 q 669 19 760 65 q 447 -28 579 -28 q 147 68 249 -28 q 46 328 46 164 l 46 967 l 332 967 l 332 336 q 359 216 332 254 q 447 178 386 178 q 535 216 508 178 q 563 336 563 254 l 563 967 l 849 967 l 849 328 m 536 1592 l 681 1450 l 443 1243 l 342 1333 l 536 1592 m 263 1297 q 356 1260 317 1297 q 394 1169 394 1222 q 356 1078 394 1115 q 263 1040 317 1040 q 169 1078 207 1040 q 131 1169 131 1115 q 169 1260 131 1222 q 263 1297 207 1297 m 631 1297 q 724 1260 685 1297 q 763 1169 763 1222 q 724 1078 763 1115 q 631 1040 685 1040 q 537 1078 575 1040 q 499 1169 499 1115 q 537 1260 499 1222 q 631 1297 575 1297 z "},"Ǚ":{"ha":894,"x_min":46,"x_max":849,"o":"m 849 328 q 804 146 849 226 q 669 19 760 65 q 447 -28 579 -28 q 147 68 249 -28 q 46 328 46 164 l 46 967 l 332 967 l 332 336 q 359 216 332 254 q 447 178 386 178 q 535 216 508 178 q 563 336 563 254 l 563 967 l 849 967 l 849 328 m 635 1593 l 728 1486 l 526 1290 l 363 1290 l 161 1486 l 254 1593 l 444 1474 l 635 1593 m 263 1297 q 356 1260 317 1297 q 394 1169 394 1222 q 356 1078 394 1115 q 263 1040 317 1040 q 169 1078 207 1040 q 131 1169 131 1115 q 169 1260 131 1222 q 263 1297 207 1297 m 631 1297 q 724 1260 685 1297 q 763 1169 763 1222 q 724 1078 763 1115 q 631 1040 685 1040 q 537 1078 575 1040 q 499 1169 499 1115 q 537 1260 499 1222 q 631 1297 575 1297 z "},"Ǜ":{"ha":894,"x_min":46,"x_max":849,"o":"m 849 328 q 804 146 849 226 q 669 19 760 65 q 447 -28 579 -28 q 147 68 249 -28 q 46 328 46 164 l 46 967 l 332 967 l 332 336 q 359 216 332 254 q 447 178 386 178 q 535 216 508 178 q 563 336 563 254 l 563 967 l 849 967 l 849 328 m 360 1592 l 554 1333 l 453 1243 l 215 1450 l 360 1592 m 263 1297 q 356 1260 318 1297 q 394 1169 394 1222 q 356 1078 394 1115 q 263 1040 318 1040 q 169 1078 208 1040 q 131 1169 131 1115 q 169 1260 131 1222 q 263 1297 208 1297 m 631 1297 q 724 1260 686 1297 q 763 1169 763 1222 q 724 1078 763 1115 q 631 1040 686 1040 q 538 1078 576 1040 q 499 1169 499 1115 q 538 1260 499 1222 q 631 1297 576 1297 z "},"Ǖ":{"ha":894,"x_min":46,"x_max":849,"o":"m 849 328 q 804 146 849 226 q 669 19 760 65 q 447 -28 579 -28 q 147 68 249 -28 q 46 328 46 164 l 46 967 l 332 967 l 332 336 q 359 216 332 254 q 447 178 386 178 q 535 216 508 178 q 563 336 563 254 l 563 967 l 849 967 l 849 328 m 276 1292 q 370 1254 332 1292 q 408 1164 408 1217 q 370 1072 408 1110 q 276 1035 332 1035 q 183 1072 222 1035 q 144 1164 144 1110 q 183 1254 144 1217 q 276 1292 222 1292 m 617 1292 q 710 1254 672 1292 q 749 1164 749 1217 q 710 1072 749 1110 q 617 1035 672 1035 q 524 1072 563 1035 q 485 1164 485 1110 q 524 1254 485 1217 q 617 1292 563 1292 m 678 1338 l 226 1338 l 226 1524 l 678 1524 l 678 1338 z "},"Ụ":{"ha":894,"x_min":46,"x_max":849,"o":"m 849 328 q 804 146 849 226 q 669 19 760 65 q 447 -28 579 -28 q 147 68 249 -28 q 46 328 46 164 l 46 967 l 332 967 l 332 336 q 359 216 332 254 q 447 178 386 178 q 535 216 508 178 q 563 336 563 254 l 563 967 l 849 967 l 849 328 m 447 -367 q 337 -324 381 -367 q 293 -219 293 -282 q 337 -115 293 -157 q 447 -72 381 -72 q 558 -115 514 -72 q 601 -219 601 -157 q 558 -324 601 -282 q 447 -367 514 -367 z "},"Ù":{"ha":894,"x_min":46,"x_max":849,"o":"m 849 328 q 804 146 849 226 q 669 19 760 65 q 447 -28 579 -28 q 147 68 249 -28 q 46 328 46 164 l 46 967 l 332 967 l 332 336 q 359 216 332 254 q 447 178 386 178 q 535 216 508 178 q 563 336 563 254 l 563 967 l 849 967 l 849 328 m 335 1367 l 658 1178 l 589 1040 l 236 1167 l 335 1367 z "},"Ủ":{"ha":894,"x_min":46,"x_max":849,"o":"m 849 328 q 804 146 849 226 q 669 19 760 65 q 447 -28 579 -28 q 147 68 249 -28 q 46 328 46 164 l 46 967 l 332 967 l 332 336 q 359 216 332 254 q 447 178 386 178 q 535 216 508 178 q 563 336 563 254 l 563 967 l 849 967 l 849 328 m 371 1190 q 447 1203 424 1192 q 469 1239 469 1214 q 456 1267 469 1257 q 418 1278 442 1278 q 376 1274 394 1278 q 332 1260 357 1269 l 292 1363 q 456 1401 357 1401 q 593 1360 544 1401 q 642 1251 642 1318 q 611 1161 642 1196 q 522 1115 581 1126 l 522 1061 l 371 1061 l 371 1190 z "},"Ư":{"ha":1049,"x_min":46,"x_max":1076,"o":"m 1050 1074 q 1076 946 1076 1018 q 1016 803 1076 851 q 849 754 956 754 l 849 328 q 804 146 849 226 q 669 19 760 65 q 447 -28 579 -28 q 147 68 249 -28 q 46 328 46 164 l 46 967 l 332 967 l 332 336 q 359 216 332 254 q 447 178 386 178 q 535 216 508 178 q 563 336 563 254 l 563 967 l 849 967 l 849 881 q 888 906 876 886 q 900 963 900 925 q 883 1053 900 1006 l 1050 1074 z "},"Ứ":{"ha":1049,"x_min":46,"x_max":1076,"o":"m 658 1167 l 306 1040 l 236 1178 l 561 1367 l 658 1167 m 1050 1074 q 1076 946 1076 1018 q 1016 803 1076 851 q 849 754 956 754 l 849 328 q 804 146 849 226 q 669 19 760 65 q 447 -28 579 -28 q 147 68 249 -28 q 46 328 46 164 l 46 967 l 332 967 l 332 336 q 359 216 332 254 q 447 178 386 178 q 535 216 508 178 q 563 336 563 254 l 563 967 l 849 967 l 849 881 q 888 906 876 886 q 900 963 900 925 q 883 1053 900 1006 l 1050 1074 z "},"Ự":{"ha":1049,"x_min":46,"x_max":1076,"o":"m 1050 1074 q 1076 946 1076 1018 q 1016 803 1076 851 q 849 754 956 754 l 849 328 q 804 146 849 226 q 669 19 760 65 q 447 -28 579 -28 q 147 68 249 -28 q 46 328 46 164 l 46 967 l 332 967 l 332 336 q 359 216 332 254 q 447 178 386 178 q 535 216 508 178 q 563 336 563 254 l 563 967 l 849 967 l 849 881 q 888 906 876 886 q 900 963 900 925 q 883 1053 900 1006 l 1050 1074 m 447 -72 q 558 -115 514 -72 q 601 -219 601 -157 q 558 -324 601 -282 q 447 -367 514 -367 q 337 -324 381 -367 q 293 -219 293 -282 q 337 -115 293 -157 q 447 -72 381 -72 z "},"Ừ":{"ha":1049,"x_min":46,"x_max":1076,"o":"m 658 1178 l 589 1040 l 236 1167 l 335 1367 l 658 1178 m 1050 1074 q 1076 946 1076 1018 q 1016 803 1076 851 q 849 754 956 754 l 849 328 q 804 146 849 226 q 669 19 760 65 q 447 -28 579 -28 q 147 68 249 -28 q 46 328 46 164 l 46 967 l 332 967 l 332 336 q 359 216 332 254 q 447 178 386 178 q 535 216 508 178 q 563 336 563 254 l 563 967 l 849 967 l 849 881 q 888 906 876 886 q 900 963 900 925 q 883 1053 900 1006 l 1050 1074 z "},"Ử":{"ha":1049,"x_min":46,"x_max":1076,"o":"m 418 1278 q 376 1274 394 1278 q 332 1260 357 1269 l 292 1363 q 456 1401 357 1401 q 593 1360 544 1401 q 642 1251 642 1318 q 611 1161 642 1196 q 522 1115 581 1126 l 522 1061 l 371 1061 l 371 1190 q 447 1203 424 1192 q 469 1239 469 1214 q 456 1267 469 1257 q 418 1278 442 1278 m 1050 1074 q 1076 946 1076 1018 q 1016 803 1076 851 q 849 754 956 754 l 849 328 q 804 146 849 226 q 669 19 760 65 q 447 -28 579 -28 q 147 68 249 -28 q 46 328 46 164 l 46 967 l 332 967 l 332 336 q 359 216 332 254 q 447 178 386 178 q 535 216 508 178 q 563 336 563 254 l 563 967 l 849 967 l 849 881 q 888 906 876 886 q 900 963 900 925 q 883 1053 900 1006 l 1050 1074 z "},"Ữ":{"ha":1049,"x_min":46,"x_max":1076,"o":"m 371 1099 q 331 1085 346 1099 q 297 1039 315 1071 l 168 1101 q 248 1237 197 1183 q 364 1290 299 1290 q 423 1281 399 1290 q 474 1253 447 1271 q 501 1236 490 1242 q 525 1231 513 1231 q 564 1244 549 1231 q 597 1290 579 1258 l 726 1228 q 646 1092 697 1144 q 528 1039 594 1039 q 472 1049 494 1039 q 422 1076 449 1058 q 394 1093 406 1088 q 371 1099 383 1099 m 1050 1074 q 1076 946 1076 1018 q 1016 803 1076 851 q 849 754 956 754 l 849 328 q 804 146 849 226 q 669 19 760 65 q 447 -28 579 -28 q 147 68 249 -28 q 46 328 46 164 l 46 967 l 332 967 l 332 336 q 359 216 332 254 q 447 178 386 178 q 535 216 508 178 q 563 336 563 254 l 563 967 l 849 967 l 849 881 q 888 906 876 886 q 900 963 900 925 q 883 1053 900 1006 l 1050 1074 z "},"Ű":{"ha":894,"x_min":46,"x_max":849,"o":"m 849 328 q 804 146 849 226 q 669 19 760 65 q 447 -28 579 -28 q 147 68 249 -28 q 46 328 46 164 l 46 967 l 332 967 l 332 336 q 359 216 332 254 q 447 178 386 178 q 535 216 508 178 q 563 336 563 254 l 563 967 l 849 967 l 849 328 m 379 1393 l 553 1315 l 382 1042 l 246 1096 l 379 1393 m 643 1393 l 814 1308 l 632 1036 l 499 1100 l 643 1393 z "},"Ȗ":{"ha":894,"x_min":46,"x_max":849,"o":"m 849 328 q 804 146 849 226 q 669 19 760 65 q 447 -28 579 -28 q 147 68 249 -28 q 46 328 46 164 l 46 967 l 332 967 l 332 336 q 359 216 332 254 q 447 178 386 178 q 535 216 508 178 q 563 336 563 254 l 563 967 l 849 967 l 849 328 m 447 1346 q 630 1268 565 1346 q 704 1074 694 1190 l 561 1050 q 520 1131 549 1101 q 447 1160 492 1160 q 374 1131 403 1160 q 333 1050 346 1101 l 190 1074 q 265 1268 200 1190 q 447 1346 329 1346 z "},"Ū":{"ha":894,"x_min":46,"x_max":849,"o":"m 849 328 q 804 146 849 226 q 669 19 760 65 q 447 -28 579 -28 q 147 68 249 -28 q 46 328 46 164 l 46 967 l 332 967 l 332 336 q 359 216 332 254 q 447 178 386 178 q 535 216 508 178 q 563 336 563 254 l 563 967 l 849 967 l 849 328 m 672 1075 l 221 1075 l 221 1261 l 672 1261 l 672 1075 z "},"Ų":{"ha":894,"x_min":46,"x_max":849,"o":"m 849 967 l 849 328 q 792 126 849 214 q 625 0 735 39 q 500 -65 535 -31 q 465 -132 465 -100 q 536 -193 465 -193 q 621 -182 572 -193 l 604 -342 q 501 -353 556 -353 q 342 -306 404 -353 q 279 -178 279 -258 q 383 -25 279 -78 q 131 84 217 -10 q 46 328 46 178 l 46 967 l 332 967 l 332 336 q 359 216 332 254 q 447 178 386 178 q 535 216 508 178 q 563 336 563 254 l 563 967 l 849 967 z "},"Ʊ":{"ha":958,"x_min":28,"x_max":931,"o":"m 479 -28 q 237 31 339 -28 q 81 189 135 89 q 28 408 28 289 q 213 769 28 653 l 57 769 l 57 967 l 413 967 l 413 783 q 346 633 367 714 q 325 408 325 553 q 363 234 325 293 q 479 175 400 175 q 596 234 558 175 q 633 408 633 293 q 613 633 633 553 q 546 783 592 714 l 546 967 l 901 967 l 901 769 l 746 769 q 931 408 931 654 q 877 189 931 289 q 722 31 824 89 q 479 -28 619 -28 z "},"Ů":{"ha":894,"x_min":46,"x_max":849,"o":"m 849 328 q 804 146 849 226 q 669 19 760 65 q 447 -28 579 -28 q 147 68 249 -28 q 46 328 46 164 l 46 967 l 332 967 l 332 336 q 359 216 332 254 q 447 178 386 178 q 535 216 508 178 q 563 336 563 254 l 563 967 l 849 967 l 849 328 m 447 1406 q 561 1378 513 1406 q 635 1304 610 1350 q 661 1203 661 1258 q 635 1101 661 1147 q 561 1026 610 1054 q 447 999 513 999 q 333 1026 382 999 q 259 1101 285 1054 q 233 1203 233 1147 q 259 1304 233 1258 q 333 1378 285 1350 q 447 1406 382 1406 m 447 1267 q 407 1251 422 1267 q 392 1203 392 1235 q 407 1155 392 1171 q 447 1139 422 1139 q 488 1155 472 1139 q 503 1203 503 1171 q 488 1251 503 1235 q 447 1267 472 1267 z "},"Ũ":{"ha":894,"x_min":46,"x_max":849,"o":"m 849 328 q 804 146 849 226 q 669 19 760 65 q 447 -28 579 -28 q 147 68 249 -28 q 46 328 46 164 l 46 967 l 332 967 l 332 336 q 359 216 332 254 q 447 178 386 178 q 535 216 508 178 q 563 336 563 254 l 563 967 l 849 967 l 849 328 m 528 1039 q 472 1049 494 1039 q 422 1076 449 1058 q 394 1093 406 1088 q 371 1099 383 1099 q 331 1085 346 1099 q 297 1039 315 1071 l 168 1101 q 248 1237 197 1183 q 364 1290 299 1290 q 423 1281 399 1290 q 474 1253 447 1271 q 501 1236 490 1242 q 525 1231 513 1231 q 564 1244 549 1231 q 597 1290 579 1258 l 726 1228 q 646 1092 697 1144 q 528 1039 594 1039 z "},"Ṹ":{"ha":894,"x_min":46,"x_max":849,"o":"m 849 328 q 804 146 849 226 q 669 19 760 65 q 447 -28 579 -28 q 147 68 249 -28 q 46 328 46 164 l 46 967 l 332 967 l 332 336 q 359 216 332 254 q 447 178 386 178 q 535 216 508 178 q 563 336 563 254 l 563 967 l 849 967 l 849 328 m 528 1047 q 472 1057 494 1047 q 422 1085 449 1067 q 394 1101 406 1096 q 371 1107 383 1107 q 331 1093 346 1107 q 297 1047 315 1079 l 168 1110 q 248 1245 197 1192 q 364 1299 299 1299 q 423 1289 399 1299 q 474 1261 447 1279 q 501 1244 490 1250 q 525 1239 513 1239 q 564 1253 549 1239 q 597 1299 579 1267 l 726 1236 q 646 1100 697 1153 q 528 1047 594 1047 m 561 1639 l 658 1439 l 306 1313 l 236 1450 l 561 1639 z "},"V":{"ha":804,"x_min":-35,"x_max":839,"o":"m 839 967 l 594 0 l 225 0 l -35 967 l 267 967 l 414 199 l 546 967 l 839 967 z "},"Ʋ":{"ha":894,"x_min":46,"x_max":849,"o":"m 608 994 q 849 731 849 994 l 849 397 q 795 168 849 264 q 644 22 742 72 q 417 -28 546 -28 q 219 14 303 -28 q 90 130 135 56 q 46 300 46 204 l 46 967 l 332 967 l 332 297 q 356 210 332 242 q 426 178 381 178 q 526 227 489 178 q 563 388 563 276 l 563 749 q 526 793 563 793 q 497 789 513 793 l 460 971 q 608 994 524 994 z "},"Ʌ":{"ha":835,"x_min":-35,"x_max":869,"o":"m 589 967 l 869 0 l 567 0 l 415 767 l 264 0 l -35 0 l 247 967 l 589 967 z "},"W":{"ha":1193,"x_min":0,"x_max":1193,"o":"m 1193 967 l 1053 0 l 681 0 l 594 694 l 499 0 l 135 0 l 0 967 l 286 967 l 347 207 l 450 967 l 749 967 l 835 207 l 918 967 l 1193 967 z "},"Ẃ":{"ha":1193,"x_min":0,"x_max":1193,"o":"m 1193 967 l 1053 0 l 681 0 l 594 694 l 499 0 l 135 0 l 0 967 l 286 967 l 347 207 l 450 967 l 749 967 l 835 207 l 918 967 l 1193 967 m 714 1367 l 811 1167 l 458 1040 l 389 1178 l 714 1367 z "},"Ŵ":{"ha":1193,"x_min":0,"x_max":1193,"o":"m 1193 967 l 1053 0 l 681 0 l 594 694 l 499 0 l 135 0 l 0 967 l 286 967 l 347 207 l 450 967 l 749 967 l 835 207 l 918 967 l 1193 967 m 410 1044 l 317 1151 l 518 1347 l 682 1347 l 883 1151 l 790 1044 l 600 1164 l 410 1044 z "},"Ẅ":{"ha":1193,"x_min":0,"x_max":1193,"o":"m 1193 967 l 1053 0 l 681 0 l 594 694 l 499 0 l 135 0 l 0 967 l 286 967 l 347 207 l 450 967 l 749 967 l 835 207 l 918 967 l 1193 967 m 426 1311 q 520 1274 482 1311 q 558 1183 558 1236 q 520 1092 558 1129 q 426 1054 482 1054 q 333 1092 372 1054 q 294 1183 294 1129 q 333 1274 294 1236 q 426 1311 372 1311 m 767 1311 q 860 1274 822 1311 q 899 1183 899 1236 q 860 1092 899 1129 q 767 1054 822 1054 q 674 1092 713 1054 q 635 1183 635 1129 q 674 1274 635 1236 q 767 1311 713 1311 z "},"Ẁ":{"ha":1193,"x_min":0,"x_max":1193,"o":"m 1193 967 l 1053 0 l 681 0 l 594 694 l 499 0 l 135 0 l 0 967 l 286 967 l 347 207 l 450 967 l 749 967 l 835 207 l 918 967 l 1193 967 m 488 1367 l 811 1178 l 742 1040 l 389 1167 l 488 1367 z "},"Ⱳ":{"ha":1299,"x_min":0,"x_max":1340,"o":"m 135 0 l 499 0 l 594 694 l 681 0 l 1043 0 l 1133 726 q 1153 781 1138 764 q 1200 797 1169 797 q 1235 794 1222 797 q 1268 781 1249 790 l 1340 943 q 1257 981 1300 968 q 1153 994 1214 994 q 967 930 1035 994 q 885 718 899 865 l 835 207 l 749 967 l 450 967 l 347 207 l 286 967 l 0 967 l 135 0 z "},"Ƿ":{"ha":849,"x_min":60,"x_max":828,"o":"m 564 994 q 697 960 636 994 q 792 865 757 926 q 828 724 828 803 q 778 533 828 610 q 647 408 729 457 q 440 315 565 360 l 346 282 l 346 0 l 60 0 l 60 967 l 346 967 l 346 914 q 441 974 385 953 q 564 994 497 994 m 368 482 q 498 578 460 525 q 536 703 536 632 q 513 772 536 747 q 450 796 489 796 q 346 758 394 796 l 346 472 l 368 482 z "},"X":{"ha":842,"x_min":-14,"x_max":856,"o":"m 586 521 l 856 0 l 547 0 l 414 332 l 289 0 l -14 0 l 244 513 l 4 967 l 311 967 l 417 689 l 535 967 l 836 967 l 586 521 z "},"Y":{"ha":861,"x_min":-21,"x_max":882,"o":"m 882 967 l 574 357 l 574 0 l 288 0 l 288 356 l -21 967 l 292 967 l 435 572 l 579 967 l 882 967 z "},"Ý":{"ha":861,"x_min":-21,"x_max":882,"o":"m 882 967 l 574 357 l 574 0 l 288 0 l 288 356 l -21 967 l 292 967 l 435 572 l 579 967 l 882 967 m 544 1367 l 642 1167 l 289 1040 l 219 1178 l 544 1367 z "},"Ŷ":{"ha":861,"x_min":-21,"x_max":882,"o":"m 882 967 l 574 357 l 574 0 l 288 0 l 288 356 l -21 967 l 292 967 l 435 572 l 579 967 l 882 967 m 240 1044 l 147 1151 l 349 1347 l 513 1347 l 714 1151 l 621 1044 l 431 1164 l 240 1044 z "},"Ÿ":{"ha":861,"x_min":-21,"x_max":882,"o":"m 882 967 l 574 357 l 574 0 l 288 0 l 288 356 l -21 967 l 292 967 l 435 572 l 579 967 l 882 967 m 257 1311 q 351 1274 313 1311 q 389 1183 389 1236 q 351 1092 389 1129 q 257 1054 313 1054 q 164 1092 203 1054 q 125 1183 125 1129 q 164 1274 125 1236 q 257 1311 203 1311 m 597 1311 q 691 1274 653 1311 q 729 1183 729 1236 q 691 1092 729 1129 q 597 1054 653 1054 q 504 1092 543 1054 q 465 1183 465 1129 q 504 1274 465 1236 q 597 1311 543 1311 z "},"Ỵ":{"ha":861,"x_min":-21,"x_max":882,"o":"m 882 967 l 574 357 l 574 0 l 288 0 l 288 356 l -21 967 l 292 967 l 435 572 l 579 967 l 882 967 m 431 -367 q 320 -324 364 -367 q 276 -219 276 -282 q 320 -115 276 -157 q 431 -72 364 -72 q 541 -115 497 -72 q 585 -219 585 -157 q 541 -324 585 -282 q 431 -367 497 -367 z "},"Ỳ":{"ha":861,"x_min":-21,"x_max":882,"o":"m 882 967 l 574 357 l 574 0 l 288 0 l 288 356 l -21 967 l 292 967 l 435 572 l 579 967 l 882 967 m 318 1367 l 642 1178 l 572 1040 l 219 1167 l 318 1367 z "},"Ƴ":{"ha":918,"x_min":-21,"x_max":960,"o":"m 288 356 l -21 967 l 292 967 l 435 572 l 499 768 q 602 942 538 890 q 779 994 667 994 q 960 946 878 994 l 889 781 q 821 797 853 797 q 772 783 790 797 q 738 732 753 768 l 574 357 l 574 0 l 288 0 l 288 356 z "},"Ỷ":{"ha":861,"x_min":-21,"x_max":882,"o":"m 882 967 l 574 357 l 574 0 l 288 0 l 288 356 l -21 967 l 292 967 l 435 572 l 579 967 l 882 967 m 354 1190 q 430 1203 407 1192 q 453 1239 453 1214 q 439 1267 453 1257 q 401 1278 425 1278 q 359 1274 378 1278 q 315 1260 340 1269 l 275 1363 q 439 1401 340 1401 q 576 1360 528 1401 q 625 1251 625 1318 q 594 1161 625 1196 q 506 1115 564 1126 l 506 1061 l 354 1061 l 354 1190 z "},"Ȳ":{"ha":861,"x_min":-21,"x_max":882,"o":"m 882 967 l 574 357 l 574 0 l 288 0 l 288 356 l -21 967 l 292 967 l 435 572 l 579 967 l 882 967 m 656 1075 l 204 1075 l 204 1261 l 656 1261 l 656 1075 z "},"Ʀ":{"ha":867,"x_min":60,"x_max":894,"o":"m 399 192 l 346 192 l 346 0 l 60 0 l 60 967 l 346 967 l 346 814 l 414 814 q 726 740 624 814 q 829 507 829 665 q 789 357 829 417 q 658 244 749 297 l 894 -153 l 578 -153 l 399 192 m 346 383 l 421 383 q 508 414 479 383 q 538 507 538 444 q 407 618 538 618 l 346 618 l 346 383 z "},"Ɏ":{"ha":863,"x_min":-21,"x_max":883,"o":"m 831 863 l 883 863 l 883 715 l 756 715 l 575 357 l 575 0 l 289 0 l 289 356 l 107 715 l -21 715 l -21 863 l 33 863 l -19 967 l 279 967 l 318 863 l 556 863 l 594 967 l 883 967 l 831 863 m 436 544 l 500 715 l 372 715 l 436 544 z "},"Ỹ":{"ha":861,"x_min":-21,"x_max":882,"o":"m 882 967 l 574 357 l 574 0 l 288 0 l 288 356 l -21 967 l 292 967 l 435 572 l 579 967 l 882 967 m 511 1039 q 455 1049 478 1039 q 406 1076 432 1058 q 378 1093 389 1088 q 354 1099 367 1099 q 314 1085 329 1099 q 281 1039 299 1071 l 151 1101 q 231 1237 181 1183 q 347 1290 282 1290 q 406 1281 382 1290 q 457 1253 431 1271 q 485 1236 474 1242 q 508 1231 496 1231 q 547 1244 532 1231 q 581 1290 563 1258 l 710 1228 q 629 1092 681 1144 q 511 1039 578 1039 z "},"Z":{"ha":774,"x_min":14,"x_max":753,"o":"m 740 967 l 740 754 l 356 224 l 753 224 l 725 0 l 14 0 l 14 210 l 411 750 l 53 750 l 53 967 l 740 967 z "},"Ź":{"ha":774,"x_min":14,"x_max":753,"o":"m 740 967 l 740 754 l 356 224 l 753 224 l 725 0 l 14 0 l 14 210 l 411 750 l 53 750 l 53 967 l 740 967 m 501 1367 l 599 1167 l 246 1040 l 176 1178 l 501 1367 z "},"Ž":{"ha":774,"x_min":14,"x_max":753,"o":"m 740 967 l 740 754 l 356 224 l 753 224 l 725 0 l 14 0 l 14 210 l 411 750 l 53 750 l 53 967 l 740 967 m 578 1340 l 671 1233 l 469 1038 l 306 1038 l 104 1233 l 197 1340 l 388 1221 l 578 1340 z "},"Ż":{"ha":774,"x_min":14,"x_max":753,"o":"m 740 967 l 740 754 l 356 224 l 753 224 l 725 0 l 14 0 l 14 210 l 411 750 l 53 750 l 53 967 l 740 967 m 388 1326 q 498 1284 454 1326 q 542 1179 542 1242 q 498 1074 542 1117 q 388 1032 454 1032 q 277 1074 321 1032 q 233 1179 233 1117 q 277 1284 233 1242 q 388 1326 321 1326 z "},"Ẓ":{"ha":774,"x_min":14,"x_max":753,"o":"m 740 967 l 740 754 l 356 224 l 753 224 l 725 0 l 14 0 l 14 210 l 411 750 l 53 750 l 53 967 l 740 967 m 372 -367 q 262 -324 306 -367 q 218 -219 218 -282 q 262 -115 218 -157 q 372 -72 306 -72 q 483 -115 439 -72 q 526 -219 526 -157 q 483 -324 526 -282 q 372 -367 439 -367 z "},"Ȥ":{"ha":761,"x_min":14,"x_max":740,"o":"m 740 754 l 356 224 l 740 224 l 740 -22 q 654 -240 740 -165 q 419 -315 568 -315 q 201 -253 288 -315 l 290 -86 q 341 -108 321 -101 q 392 -114 361 -114 q 468 -40 468 -114 l 468 0 l 14 0 l 14 210 l 411 750 l 53 750 l 53 967 l 740 967 l 740 754 z "},"Ƶ":{"ha":774,"x_min":14,"x_max":753,"o":"m 328 224 l 753 224 l 725 0 l 14 0 l 14 196 l 169 399 l 64 399 l 64 565 l 297 565 l 439 750 l 53 750 l 53 967 l 740 967 l 740 768 l 586 565 l 678 565 l 678 399 l 460 399 l 328 224 z "},"ʙ":{"ha":767,"x_min":58,"x_max":743,"o":"m 553 410 q 743 224 743 386 q 651 56 743 113 q 400 0 558 0 l 58 0 l 58 735 q 381 769 251 769 q 626 719 539 769 q 713 568 713 668 q 672 465 713 506 q 553 410 632 424 m 374 604 q 333 603 351 604 l 333 457 l 375 457 q 426 476 407 457 q 444 531 444 496 q 426 585 444 565 q 374 604 408 604 m 389 171 q 463 251 463 171 q 444 309 463 289 q 389 329 425 329 l 333 329 l 333 171 l 389 171 z "},"ɢ":{"ha":778,"x_min":24,"x_max":747,"o":"m 428 769 q 602 741 528 769 q 736 661 676 713 l 610 525 q 530 568 568 554 q 447 582 492 582 q 306 374 306 582 q 333 209 306 254 q 417 164 360 164 q 493 176 458 164 l 493 272 l 421 272 l 396 444 l 747 444 l 747 72 q 592 2 678 29 q 413 -25 507 -25 q 119 74 214 -25 q 24 375 24 172 q 75 584 24 494 q 219 722 126 674 q 428 769 311 769 z "},"ʛ":{"ha":778,"x_min":24,"x_max":957,"o":"m 754 1061 q 957 1010 869 1061 l 886 840 q 797 864 836 864 q 751 846 765 864 q 736 789 736 828 l 736 661 l 624 539 q 538 572 574 563 q 451 582 501 582 q 306 374 306 582 q 333 209 306 254 q 417 164 360 164 q 493 176 458 164 l 493 272 l 421 272 l 396 444 l 747 444 l 747 72 q 600 1 685 26 q 417 -25 515 -25 q 119 75 215 -25 q 24 375 24 175 q 74 583 24 493 q 209 721 124 672 q 396 769 294 769 q 503 754 453 769 l 503 813 q 565 996 503 931 q 754 1061 626 1061 z "},"ʜ":{"ha":808,"x_min":58,"x_max":750,"o":"m 475 0 l 475 276 l 333 276 l 333 0 l 58 0 l 58 742 l 333 742 l 333 474 l 475 474 l 475 742 l 750 742 l 750 0 l 475 0 z "},"ɪ":{"ha":472,"x_min":14,"x_max":458,"o":"m 458 550 l 374 550 l 374 194 l 458 194 l 458 0 l 14 0 l 14 194 l 99 194 l 99 550 l 14 550 l 14 742 l 458 742 l 458 550 z "},"ʟ":{"ha":638,"x_min":58,"x_max":631,"o":"m 333 742 l 333 206 l 631 206 l 603 0 l 58 0 l 58 742 l 333 742 z "},"ɴ":{"ha":810,"x_min":58,"x_max":751,"o":"m 751 0 l 428 0 l 256 513 q 288 335 276 414 q 299 160 299 257 l 299 0 l 58 0 l 58 742 l 378 742 l 554 231 l 546 274 q 519 435 528 369 q 511 593 511 500 l 511 742 l 751 742 l 751 0 z "},"ɶ":{"ha":1079,"x_min":24,"x_max":1058,"o":"m 765 286 q 719 185 751 233 l 1049 185 l 1049 0 l 556 0 q 406 -28 485 -28 q 126 76 228 -28 q 24 372 24 181 q 70 582 24 492 q 203 721 117 672 q 406 769 289 769 q 558 742 475 769 l 1058 742 l 1031 558 l 721 558 q 764 464 751 510 l 999 464 l 999 286 l 765 286 m 406 169 q 481 217 458 169 q 503 372 503 264 q 480 526 503 481 q 406 572 457 572 q 329 525 353 572 q 306 372 306 478 q 329 216 306 263 q 406 169 353 169 z "},"ʀ":{"ha":739,"x_min":58,"x_max":760,"o":"m 354 239 l 319 239 l 319 0 l 58 0 l 58 742 l 364 742 q 700 486 700 742 q 673 363 700 417 q 590 278 646 310 l 760 0 l 476 0 l 354 239 m 319 393 l 354 393 q 418 413 399 393 q 438 488 438 433 q 419 557 438 539 q 357 575 400 575 l 319 575 l 319 393 z "},"ʁ":{"ha":739,"x_min":58,"x_max":760,"o":"m 590 464 q 673 379 646 432 q 700 260 700 326 q 364 0 700 0 l 58 0 l 58 742 l 319 742 l 319 503 l 354 503 l 476 742 l 760 742 l 590 464 m 357 167 q 419 185 400 167 q 438 258 438 204 q 418 328 438 308 q 354 349 399 349 l 319 349 l 319 167 l 357 167 z "},"ʏ":{"ha":725,"x_min":-28,"x_max":753,"o":"m 753 742 l 500 263 l 500 0 l 225 0 l 225 261 l -28 742 l 265 742 l 367 432 l 468 742 l 753 742 z "},"a":{"ha":765,"x_min":21,"x_max":744,"o":"m 700 240 q 710 183 700 201 q 744 154 719 164 l 689 -22 q 567 6 614 -17 q 489 81 519 29 q 265 -28 417 -28 q 88 38 156 -28 q 21 208 21 104 q 113 397 21 332 q 379 463 204 463 l 432 463 l 432 481 q 410 556 432 536 q 325 575 388 575 q 240 565 292 575 q 133 536 188 554 l 74 711 q 222 754 142 739 q 367 769 301 769 q 621 702 542 769 q 700 496 700 635 l 700 240 m 350 165 q 397 178 375 165 q 432 210 418 190 l 432 319 l 403 319 q 317 299 344 319 q 289 235 289 278 q 306 184 289 203 q 350 165 322 165 z "},"á":{"ha":765,"x_min":21,"x_max":744,"o":"m 700 240 q 710 183 700 201 q 744 154 719 164 l 689 -22 q 567 6 614 -17 q 489 81 519 29 q 265 -28 417 -28 q 88 38 156 -28 q 21 208 21 104 q 113 397 21 332 q 379 463 204 463 l 432 463 l 432 481 q 410 556 432 536 q 325 575 388 575 q 240 565 292 575 q 133 536 188 554 l 74 711 q 222 754 142 739 q 367 769 301 769 q 621 702 542 769 q 700 496 700 635 l 700 240 m 350 165 q 397 178 375 165 q 432 210 418 190 l 432 319 l 403 319 q 317 299 344 319 q 289 235 289 278 q 306 184 289 203 q 350 165 322 165 m 479 1189 l 582 989 l 233 851 l 160 989 l 479 1189 z "},"ă":{"ha":765,"x_min":21,"x_max":744,"o":"m 700 240 q 710 183 700 201 q 744 154 719 164 l 689 -22 q 567 6 614 -17 q 489 81 519 29 q 265 -28 417 -28 q 88 38 156 -28 q 21 208 21 104 q 113 397 21 332 q 379 463 204 463 l 432 463 l 432 481 q 410 556 432 536 q 325 575 388 575 q 240 565 292 575 q 133 536 188 554 l 74 711 q 222 754 142 739 q 367 769 301 769 q 621 702 542 769 q 700 496 700 635 l 700 240 m 350 165 q 397 178 375 165 q 432 210 418 190 l 432 319 l 403 319 q 317 299 344 319 q 289 235 289 278 q 306 184 289 203 q 350 165 322 165 m 385 869 q 202 947 267 869 q 128 1142 138 1025 l 271 1165 q 312 1085 283 1114 q 385 1056 340 1056 q 458 1085 429 1056 q 499 1165 486 1114 l 642 1142 q 567 947 632 1025 q 385 869 503 869 z "},"ắ":{"ha":765,"x_min":21,"x_max":744,"o":"m 700 240 q 710 183 700 201 q 744 154 719 164 l 689 -22 q 567 6 614 -17 q 489 81 519 29 q 265 -28 417 -28 q 88 38 156 -28 q 21 208 21 104 q 113 397 21 332 q 379 463 204 463 l 432 463 l 432 481 q 410 556 432 536 q 325 575 388 575 q 240 565 292 575 q 133 536 188 554 l 74 711 q 222 754 142 739 q 367 769 301 769 q 621 702 542 769 q 700 496 700 635 l 700 240 m 350 165 q 397 178 375 165 q 432 210 418 190 l 432 319 l 403 319 q 317 299 344 319 q 289 235 289 278 q 306 184 289 203 q 350 165 322 165 m 386 838 q 204 913 269 838 q 129 1096 139 989 l 272 1119 q 313 1051 285 1078 q 386 1024 342 1024 q 459 1051 431 1024 q 500 1119 488 1078 l 643 1096 q 568 913 633 989 q 386 838 503 838 m 483 1439 l 628 1297 l 390 1090 l 289 1181 l 483 1439 z "},"ặ":{"ha":765,"x_min":21,"x_max":744,"o":"m 700 240 q 710 183 700 201 q 744 154 719 164 l 689 -22 q 567 6 614 -17 q 489 81 519 29 q 265 -28 417 -28 q 88 38 156 -28 q 21 208 21 104 q 113 397 21 332 q 379 463 204 463 l 432 463 l 432 481 q 410 556 432 536 q 325 575 388 575 q 240 565 292 575 q 133 536 188 554 l 74 711 q 222 754 142 739 q 367 769 301 769 q 621 702 542 769 q 700 496 700 635 l 700 240 m 350 165 q 397 178 375 165 q 432 210 418 190 l 432 319 l 403 319 q 317 299 344 319 q 289 235 289 278 q 306 184 289 203 q 350 165 322 165 m 385 869 q 202 947 267 869 q 128 1142 138 1025 l 271 1165 q 312 1085 283 1114 q 385 1056 340 1056 q 458 1085 429 1056 q 499 1165 486 1114 l 642 1142 q 567 947 632 1025 q 385 869 503 869 m 385 -367 q 274 -324 318 -367 q 231 -219 231 -282 q 274 -115 231 -157 q 385 -72 318 -72 q 495 -115 451 -72 q 539 -219 539 -157 q 495 -324 539 -282 q 385 -367 451 -367 z "},"ằ":{"ha":765,"x_min":21,"x_max":744,"o":"m 700 240 q 710 183 700 201 q 744 154 719 164 l 689 -22 q 567 6 614 -17 q 489 81 519 29 q 265 -28 417 -28 q 88 38 156 -28 q 21 208 21 104 q 113 397 21 332 q 379 463 204 463 l 432 463 l 432 481 q 410 556 432 536 q 325 575 388 575 q 240 565 292 575 q 133 536 188 554 l 74 711 q 222 754 142 739 q 367 769 301 769 q 621 702 542 769 q 700 496 700 635 l 700 240 m 350 165 q 397 178 375 165 q 432 210 418 190 l 432 319 l 403 319 q 317 299 344 319 q 289 235 289 278 q 306 184 289 203 q 350 165 322 165 m 386 838 q 204 913 269 838 q 129 1096 139 989 l 272 1119 q 313 1051 285 1078 q 386 1024 342 1024 q 459 1051 431 1024 q 500 1119 488 1078 l 643 1096 q 568 913 633 989 q 386 838 503 838 m 282 1439 l 476 1181 l 375 1090 l 138 1297 l 282 1439 z "},"ẳ":{"ha":765,"x_min":21,"x_max":744,"o":"m 700 240 q 710 183 700 201 q 744 154 719 164 l 689 -22 q 567 6 614 -17 q 489 81 519 29 q 265 -28 417 -28 q 88 38 156 -28 q 21 208 21 104 q 113 397 21 332 q 379 463 204 463 l 432 463 l 432 481 q 410 556 432 536 q 325 575 388 575 q 240 565 292 575 q 133 536 188 554 l 74 711 q 222 754 142 739 q 367 769 301 769 q 621 702 542 769 q 700 496 700 635 l 700 240 m 350 165 q 397 178 375 165 q 432 210 418 190 l 432 319 l 403 319 q 317 299 344 319 q 289 235 289 278 q 306 184 289 203 q 350 165 322 165 m 386 838 q 204 913 269 838 q 129 1096 139 989 l 272 1119 q 313 1051 285 1078 q 386 1024 342 1024 q 459 1051 431 1024 q 500 1119 488 1078 l 643 1096 q 568 913 633 989 q 386 838 503 838 m 311 1244 q 387 1257 364 1246 q 410 1293 410 1268 q 396 1322 410 1311 q 358 1332 382 1332 q 316 1328 335 1332 q 272 1314 297 1324 l 232 1417 q 396 1456 297 1456 q 533 1414 485 1456 q 582 1306 582 1372 q 551 1215 582 1250 q 463 1169 521 1181 l 463 1101 l 311 1101 l 311 1244 z "},"ẵ":{"ha":765,"x_min":21,"x_max":744,"o":"m 700 240 q 710 183 700 201 q 744 154 719 164 l 689 -22 q 567 6 614 -17 q 489 81 519 29 q 265 -28 417 -28 q 88 38 156 -28 q 21 208 21 104 q 113 397 21 332 q 379 463 204 463 l 432 463 l 432 481 q 410 556 432 536 q 325 575 388 575 q 240 565 292 575 q 133 536 188 554 l 74 711 q 222 754 142 739 q 367 769 301 769 q 621 702 542 769 q 700 496 700 635 l 700 240 m 350 165 q 397 178 375 165 q 432 210 418 190 l 432 319 l 403 319 q 317 299 344 319 q 289 235 289 278 q 306 184 289 203 q 350 165 322 165 m 383 838 q 201 913 267 838 q 126 1096 136 989 l 269 1119 q 310 1051 282 1078 q 383 1024 339 1024 q 456 1051 428 1024 q 497 1119 485 1078 l 640 1096 q 565 913 631 989 q 383 838 500 838 m 465 1156 q 409 1165 432 1156 q 360 1189 386 1174 q 340 1199 357 1190 q 308 1208 324 1208 q 268 1197 283 1208 q 235 1156 253 1185 l 106 1211 q 185 1334 135 1286 q 301 1382 236 1382 q 360 1373 336 1382 q 411 1347 385 1364 q 431 1337 414 1346 q 463 1328 447 1328 q 501 1340 486 1328 q 535 1382 517 1353 l 664 1325 q 583 1203 635 1250 q 465 1156 532 1156 z "},"ǎ":{"ha":765,"x_min":21,"x_max":744,"o":"m 700 240 q 710 183 700 201 q 744 154 719 164 l 689 -22 q 567 6 614 -17 q 489 81 519 29 q 265 -28 417 -28 q 88 38 156 -28 q 21 208 21 104 q 113 397 21 332 q 379 463 204 463 l 432 463 l 432 481 q 410 556 432 536 q 325 575 388 575 q 240 565 292 575 q 133 536 188 554 l 74 711 q 222 754 142 739 q 367 769 301 769 q 621 702 542 769 q 700 496 700 635 l 700 240 m 350 165 q 397 178 375 165 q 432 210 418 190 l 432 319 l 403 319 q 317 299 344 319 q 289 235 289 278 q 306 184 289 203 q 350 165 322 165 m 575 1153 l 668 1046 l 467 836 l 303 836 l 101 1046 l 194 1153 l 385 1019 l 575 1153 z "},"â":{"ha":765,"x_min":21,"x_max":744,"o":"m 700 240 q 710 183 700 201 q 744 154 719 164 l 689 -22 q 567 6 614 -17 q 489 81 519 29 q 265 -28 417 -28 q 88 38 156 -28 q 21 208 21 104 q 113 397 21 332 q 379 463 204 463 l 432 463 l 432 481 q 410 556 432 536 q 325 575 388 575 q 240 565 292 575 q 133 536 188 554 l 74 711 q 222 754 142 739 q 367 769 301 769 q 621 702 542 769 q 700 496 700 635 l 700 240 m 350 165 q 397 178 375 165 q 432 210 418 190 l 432 319 l 403 319 q 317 299 344 319 q 289 235 289 278 q 306 184 289 203 q 350 165 322 165 m 194 850 l 101 957 l 303 1167 l 467 1167 l 668 957 l 575 850 l 385 983 l 194 850 z "},"ấ":{"ha":765,"x_min":21,"x_max":875,"o":"m 700 240 q 710 183 700 201 q 744 154 719 164 l 689 -22 q 567 6 614 -17 q 489 81 519 29 q 265 -28 417 -28 q 88 38 156 -28 q 21 208 21 104 q 113 397 21 332 q 379 463 204 463 l 432 463 l 432 481 q 410 556 432 536 q 325 575 388 575 q 240 565 292 575 q 133 536 188 554 l 74 711 q 222 754 142 739 q 367 769 301 769 q 621 702 542 769 q 700 496 700 635 l 700 240 m 350 165 q 397 178 375 165 q 432 210 418 190 l 432 319 l 403 319 q 317 299 344 319 q 289 235 289 278 q 306 184 289 203 q 350 165 322 165 m 194 808 l 101 915 l 303 1111 l 467 1111 l 668 915 l 575 808 l 385 928 l 194 808 m 731 1383 l 875 1242 l 638 1035 l 536 1125 l 731 1383 z "},"ậ":{"ha":765,"x_min":21,"x_max":744,"o":"m 700 240 q 710 183 700 201 q 744 154 719 164 l 689 -22 q 567 6 614 -17 q 489 81 519 29 q 265 -28 417 -28 q 88 38 156 -28 q 21 208 21 104 q 113 397 21 332 q 379 463 204 463 l 432 463 l 432 481 q 410 556 432 536 q 325 575 388 575 q 240 565 292 575 q 133 536 188 554 l 74 711 q 222 754 142 739 q 367 769 301 769 q 621 702 542 769 q 700 496 700 635 l 700 240 m 350 165 q 397 178 375 165 q 432 210 418 190 l 432 319 l 403 319 q 317 299 344 319 q 289 235 289 278 q 306 184 289 203 q 350 165 322 165 m 194 850 l 101 957 l 303 1167 l 467 1167 l 668 957 l 575 850 l 385 983 l 194 850 m 385 -367 q 274 -324 318 -367 q 231 -219 231 -282 q 274 -115 231 -157 q 385 -72 318 -72 q 495 -115 451 -72 q 539 -219 539 -157 q 495 -324 539 -282 q 385 -367 451 -367 z "},"ầ":{"ha":765,"x_min":-103,"x_max":744,"o":"m 700 240 q 710 183 700 201 q 744 154 719 164 l 689 -22 q 567 6 614 -17 q 489 81 519 29 q 265 -28 417 -28 q 88 38 156 -28 q 21 208 21 104 q 113 397 21 332 q 379 463 204 463 l 432 463 l 432 481 q 410 556 432 536 q 325 575 388 575 q 240 565 292 575 q 133 536 188 554 l 74 711 q 222 754 142 739 q 367 769 301 769 q 621 702 542 769 q 700 496 700 635 l 700 240 m 350 165 q 397 178 375 165 q 432 210 418 190 l 432 319 l 403 319 q 317 299 344 319 q 289 235 289 278 q 306 184 289 203 q 350 165 322 165 m 194 808 l 101 915 l 303 1111 l 467 1111 l 668 915 l 575 808 l 385 928 l 194 808 m 42 1383 l 236 1125 l 135 1035 l -103 1242 l 42 1383 z "},"ẩ":{"ha":765,"x_min":21,"x_max":794,"o":"m 700 240 q 710 183 700 201 q 744 154 719 164 l 689 -22 q 567 6 614 -17 q 489 81 519 29 q 265 -28 417 -28 q 88 38 156 -28 q 21 208 21 104 q 113 397 21 332 q 379 463 204 463 l 432 463 l 432 481 q 410 556 432 536 q 325 575 388 575 q 240 565 292 575 q 133 536 188 554 l 74 711 q 222 754 142 739 q 367 769 301 769 q 621 702 542 769 q 700 496 700 635 l 700 240 m 350 165 q 397 178 375 165 q 432 210 418 190 l 432 319 l 403 319 q 317 299 344 319 q 289 235 289 278 q 306 184 289 203 q 350 165 322 165 m 194 808 l 101 915 l 303 1111 l 467 1111 l 668 915 l 575 808 l 385 928 l 194 808 m 524 1221 q 599 1233 576 1222 q 622 1269 622 1244 q 608 1298 622 1288 q 571 1308 594 1308 q 528 1304 547 1308 q 485 1290 510 1300 l 444 1393 q 608 1432 510 1432 q 746 1390 697 1432 q 794 1282 794 1349 q 764 1192 794 1226 q 675 1146 733 1157 l 675 1078 l 524 1078 l 524 1221 z "},"ẫ":{"ha":765,"x_min":21,"x_max":744,"o":"m 700 240 q 710 183 700 201 q 744 154 719 164 l 689 -22 q 567 6 614 -17 q 489 81 519 29 q 265 -28 417 -28 q 88 38 156 -28 q 21 208 21 104 q 113 397 21 332 q 379 463 204 463 l 432 463 l 432 481 q 410 556 432 536 q 325 575 388 575 q 240 565 292 575 q 133 536 188 554 l 74 711 q 222 754 142 739 q 367 769 301 769 q 621 702 542 769 q 700 496 700 635 l 700 240 m 350 165 q 397 178 375 165 q 432 210 418 190 l 432 319 l 403 319 q 317 299 344 319 q 289 235 289 278 q 306 184 289 203 q 350 165 322 165 m 194 808 l 101 915 l 303 1111 l 467 1111 l 668 915 l 575 808 l 385 928 l 194 808 m 464 1147 q 408 1156 431 1147 q 358 1181 385 1165 q 339 1191 356 1182 q 307 1200 322 1200 q 267 1188 282 1200 q 233 1147 251 1176 l 104 1203 q 184 1326 133 1278 q 300 1374 235 1374 q 359 1365 335 1374 q 410 1339 383 1356 q 429 1328 413 1338 q 461 1319 446 1319 q 500 1332 485 1319 q 533 1374 515 1344 l 663 1317 q 582 1194 633 1242 q 464 1147 531 1147 z "},"ȁ":{"ha":765,"x_min":21,"x_max":744,"o":"m 700 240 q 710 183 700 201 q 744 154 719 164 l 689 -22 q 567 6 614 -17 q 489 81 519 29 q 265 -28 417 -28 q 88 38 156 -28 q 21 208 21 104 q 113 397 21 332 q 379 463 204 463 l 432 463 l 432 481 q 410 556 432 536 q 325 575 388 575 q 240 565 292 575 q 133 536 188 554 l 74 711 q 222 754 142 739 q 367 769 301 769 q 621 702 542 769 q 700 496 700 635 l 700 240 m 350 165 q 397 178 375 165 q 432 210 418 190 l 432 319 l 403 319 q 317 299 344 319 q 289 235 289 278 q 306 184 289 203 q 350 165 322 165 m 215 1218 l 360 925 l 226 861 l 44 1133 l 215 1218 m 479 1218 l 613 921 l 476 867 l 306 1140 l 479 1218 z "},"ä":{"ha":765,"x_min":21,"x_max":744,"o":"m 700 240 q 710 183 700 201 q 744 154 719 164 l 689 -22 q 567 6 614 -17 q 489 81 519 29 q 265 -28 417 -28 q 88 38 156 -28 q 21 208 21 104 q 113 397 21 332 q 379 463 204 463 l 432 463 l 432 481 q 410 556 432 536 q 325 575 388 575 q 240 565 292 575 q 133 536 188 554 l 74 711 q 222 754 142 739 q 367 769 301 769 q 621 702 542 769 q 700 496 700 635 l 700 240 m 350 165 q 397 178 375 165 q 432 210 418 190 l 432 319 l 403 319 q 317 299 344 319 q 289 235 289 278 q 306 184 289 203 q 350 165 322 165 m 214 1136 q 308 1099 269 1136 q 346 1008 346 1061 q 308 917 346 954 q 214 879 269 879 q 121 917 160 879 q 82 1008 82 954 q 121 1099 82 1061 q 214 1136 160 1136 m 554 1136 q 648 1099 610 1136 q 686 1008 686 1061 q 648 917 686 954 q 554 879 610 879 q 461 917 500 879 q 422 1008 422 954 q 461 1099 422 1061 q 554 1136 500 1136 z "},"ǟ":{"ha":765,"x_min":21,"x_max":744,"o":"m 700 240 q 710 183 700 201 q 744 154 719 164 l 689 -22 q 567 6 614 -17 q 489 81 519 29 q 265 -28 417 -28 q 88 38 156 -28 q 21 208 21 104 q 113 397 21 332 q 379 463 204 463 l 432 463 l 432 481 q 410 556 432 536 q 325 575 388 575 q 240 565 292 575 q 133 536 188 554 l 74 711 q 222 754 142 739 q 367 769 301 769 q 621 702 542 769 q 700 496 700 635 l 700 240 m 350 165 q 397 178 375 165 q 432 210 418 190 l 432 319 l 403 319 q 317 299 344 319 q 289 235 289 278 q 306 184 289 203 q 350 165 322 165 m 213 1074 q 306 1036 268 1074 q 344 946 344 999 q 306 854 344 892 q 213 817 268 817 q 119 854 158 817 q 81 946 81 892 q 119 1036 81 999 q 213 1074 158 1074 m 553 1074 q 647 1036 608 1074 q 685 946 685 999 q 647 854 685 892 q 553 817 608 817 q 460 854 499 817 q 421 946 421 892 q 460 1036 421 999 q 553 1074 499 1074 m 608 1121 l 157 1121 l 157 1307 l 608 1307 l 608 1121 z "},"ȧ":{"ha":765,"x_min":21,"x_max":744,"o":"m 700 240 q 710 183 700 201 q 744 154 719 164 l 689 -22 q 567 6 614 -17 q 489 81 519 29 q 265 -28 417 -28 q 88 38 156 -28 q 21 208 21 104 q 113 397 21 332 q 379 463 204 463 l 432 463 l 432 481 q 410 556 432 536 q 325 575 388 575 q 240 565 292 575 q 133 536 188 554 l 74 711 q 222 754 142 739 q 367 769 301 769 q 621 702 542 769 q 700 496 700 635 l 700 240 m 350 165 q 397 178 375 165 q 432 210 418 190 l 432 319 l 403 319 q 317 299 344 319 q 289 235 289 278 q 306 184 289 203 q 350 165 322 165 m 385 1151 q 495 1109 451 1151 q 539 1004 539 1067 q 495 899 539 942 q 385 857 451 857 q 274 899 318 857 q 231 1004 231 942 q 274 1109 231 1067 q 385 1151 318 1151 z "},"ạ":{"ha":765,"x_min":21,"x_max":744,"o":"m 700 240 q 710 183 700 201 q 744 154 719 164 l 689 -22 q 567 6 614 -17 q 489 81 519 29 q 265 -28 417 -28 q 88 38 156 -28 q 21 208 21 104 q 113 397 21 332 q 379 463 204 463 l 432 463 l 432 481 q 410 556 432 536 q 325 575 388 575 q 240 565 292 575 q 133 536 188 554 l 74 711 q 222 754 142 739 q 367 769 301 769 q 621 702 542 769 q 700 496 700 635 l 700 240 m 350 165 q 397 178 375 165 q 432 210 418 190 l 432 319 l 403 319 q 317 299 344 319 q 289 235 289 278 q 306 184 289 203 q 350 165 322 165 m 385 -367 q 274 -324 318 -367 q 231 -219 231 -282 q 274 -115 231 -157 q 385 -72 318 -72 q 495 -115 451 -72 q 539 -219 539 -157 q 495 -324 539 -282 q 385 -367 451 -367 z "},"ǡ":{"ha":765,"x_min":21,"x_max":744,"o":"m 700 240 q 710 183 700 201 q 744 154 719 164 l 689 -22 q 567 6 614 -17 q 489 81 519 29 q 265 -28 417 -28 q 88 38 156 -28 q 21 208 21 104 q 113 397 21 332 q 379 463 204 463 l 432 463 l 432 481 q 410 556 432 536 q 325 575 388 575 q 240 565 292 575 q 133 536 188 554 l 74 711 q 222 754 142 739 q 367 769 301 769 q 621 702 542 769 q 700 496 700 635 l 700 240 m 350 165 q 397 178 375 165 q 432 210 418 190 l 432 319 l 403 319 q 317 299 344 319 q 289 235 289 278 q 306 184 289 203 q 350 165 322 165 m 385 1110 q 495 1067 451 1110 q 539 963 539 1025 q 495 858 539 900 q 385 815 451 815 q 274 858 318 815 q 231 963 231 900 q 274 1067 231 1025 q 385 1110 318 1110 m 610 1146 l 158 1146 l 158 1332 l 610 1332 l 610 1146 z "},"à":{"ha":765,"x_min":21,"x_max":744,"o":"m 700 240 q 710 183 700 201 q 744 154 719 164 l 689 -22 q 567 6 614 -17 q 489 81 519 29 q 265 -28 417 -28 q 88 38 156 -28 q 21 208 21 104 q 113 397 21 332 q 379 463 204 463 l 432 463 l 432 481 q 410 556 432 536 q 325 575 388 575 q 240 565 292 575 q 133 536 188 554 l 74 711 q 222 754 142 739 q 367 769 301 769 q 621 702 542 769 q 700 496 700 635 l 700 240 m 350 165 q 397 178 375 165 q 432 210 418 190 l 432 319 l 403 319 q 317 299 344 319 q 289 235 289 278 q 306 184 289 203 q 350 165 322 165 m 290 1189 l 610 989 l 536 851 l 188 989 l 290 1189 z "},"ả":{"ha":765,"x_min":21,"x_max":744,"o":"m 700 240 q 710 183 700 201 q 744 154 719 164 l 689 -22 q 567 6 614 -17 q 489 81 519 29 q 265 -28 417 -28 q 88 38 156 -28 q 21 208 21 104 q 113 397 21 332 q 379 463 204 463 l 432 463 l 432 481 q 410 556 432 536 q 325 575 388 575 q 240 565 292 575 q 133 536 188 554 l 74 711 q 222 754 142 739 q 367 769 301 769 q 621 702 542 769 q 700 496 700 635 l 700 240 m 350 165 q 397 178 375 165 q 432 210 418 190 l 432 319 l 403 319 q 317 299 344 319 q 289 235 289 278 q 306 184 289 203 q 350 165 322 165 m 308 978 q 384 990 361 979 q 407 1026 407 1001 q 393 1055 407 1044 q 356 1065 379 1065 q 313 1061 332 1065 q 269 1047 294 1057 l 229 1150 q 393 1189 294 1189 q 531 1147 482 1189 q 579 1039 579 1106 q 549 949 579 983 q 460 903 518 914 l 460 835 l 308 835 l 308 978 z "},"ȃ":{"ha":765,"x_min":21,"x_max":744,"o":"m 700 240 q 710 183 700 201 q 744 154 719 164 l 689 -22 q 567 6 614 -17 q 489 81 519 29 q 265 -28 417 -28 q 88 38 156 -28 q 21 208 21 104 q 113 397 21 332 q 379 463 204 463 l 432 463 l 432 481 q 410 556 432 536 q 325 575 388 575 q 240 565 292 575 q 133 536 188 554 l 74 711 q 222 754 142 739 q 367 769 301 769 q 621 702 542 769 q 700 496 700 635 l 700 240 m 350 165 q 397 178 375 165 q 432 210 418 190 l 432 319 l 403 319 q 317 299 344 319 q 289 235 289 278 q 306 184 289 203 q 350 165 322 165 m 385 1121 q 567 1043 503 1121 q 642 849 632 965 l 499 825 q 458 906 486 876 q 385 935 429 935 q 312 906 340 935 q 271 825 283 876 l 128 849 q 202 1043 138 965 q 385 1121 267 1121 z "},"ɑ":{"ha":828,"x_min":24,"x_max":821,"o":"m 764 281 q 776 209 764 233 q 821 168 789 185 l 743 -28 q 610 10 661 -17 q 529 85 558 38 q 432 3 488 33 q 310 -28 376 -28 q 97 80 169 -28 q 24 375 24 188 q 62 580 24 490 q 171 719 100 669 q 338 769 242 769 q 511 690 444 769 l 524 742 l 764 742 l 764 281 m 394 169 q 489 235 451 169 l 489 531 q 449 563 469 553 q 404 574 429 574 q 306 372 306 574 q 329 210 306 251 q 394 169 353 169 z "},"ɒ":{"ha":828,"x_min":7,"x_max":804,"o":"m 518 769 q 731 662 658 769 q 804 367 804 554 q 766 162 804 251 q 657 22 728 72 q 490 -28 586 -28 q 317 51 383 -28 l 304 0 l 64 0 l 64 461 q 51 533 64 508 q 7 574 39 557 l 85 769 q 218 731 167 758 q 299 657 269 704 q 396 739 340 708 q 518 769 451 769 m 424 168 q 522 369 522 168 q 499 531 522 490 q 433 572 475 572 q 339 507 376 572 l 339 211 q 378 178 358 189 q 424 168 399 168 z "},"ā":{"ha":765,"x_min":21,"x_max":744,"o":"m 700 240 q 710 183 700 201 q 744 154 719 164 l 689 -22 q 567 6 614 -17 q 489 81 519 29 q 265 -28 417 -28 q 88 38 156 -28 q 21 208 21 104 q 113 397 21 332 q 379 463 204 463 l 432 463 l 432 481 q 410 556 432 536 q 325 575 388 575 q 240 565 292 575 q 133 536 188 554 l 74 711 q 222 754 142 739 q 367 769 301 769 q 621 702 542 769 q 700 496 700 635 l 700 240 m 350 165 q 397 178 375 165 q 432 210 418 190 l 432 319 l 403 319 q 317 299 344 319 q 289 235 289 278 q 306 184 289 203 q 350 165 322 165 m 610 900 l 158 900 l 158 1086 l 610 1086 l 610 900 z "},"ą":{"ha":765,"x_min":21,"x_max":744,"o":"m 689 -22 q 565 -87 600 -51 q 529 -154 529 -122 q 600 -215 529 -215 q 685 -204 636 -215 l 668 -364 q 565 -375 619 -375 q 406 -328 468 -375 q 343 -200 343 -281 q 535 26 343 -51 q 489 81 506 50 q 265 -28 417 -28 q 88 38 156 -28 q 21 208 21 104 q 113 397 21 332 q 379 463 204 463 l 432 463 l 432 481 q 410 556 432 536 q 325 575 388 575 q 240 565 292 575 q 133 536 188 554 l 74 711 q 222 754 142 739 q 367 769 301 769 q 621 702 542 769 q 700 496 700 635 l 700 240 q 710 183 700 201 q 744 154 719 164 l 689 -22 m 350 165 q 397 178 375 165 q 432 210 418 190 l 432 319 l 403 319 q 317 299 344 319 q 289 235 289 278 q 306 184 289 203 q 350 165 322 165 z "},"å":{"ha":765,"x_min":21,"x_max":744,"o":"m 700 240 q 710 183 700 201 q 744 154 719 164 l 689 -22 q 567 6 614 -17 q 489 81 519 29 q 265 -28 417 -28 q 88 38 156 -28 q 21 208 21 104 q 113 397 21 332 q 379 463 204 463 l 432 463 l 432 481 q 410 556 432 536 q 325 575 388 575 q 240 565 292 575 q 133 536 188 554 l 74 711 q 222 754 142 739 q 367 769 301 769 q 621 702 542 769 q 700 496 700 635 l 700 240 m 350 165 q 397 178 375 165 q 432 210 418 190 l 432 319 l 403 319 q 317 299 344 319 q 289 235 289 278 q 306 184 289 203 q 350 165 322 165 m 385 1231 q 499 1203 450 1231 q 573 1129 547 1175 q 599 1028 599 1083 q 573 926 599 972 q 499 851 547 879 q 385 824 450 824 q 271 851 319 824 q 197 926 222 879 q 171 1028 171 972 q 197 1129 171 1083 q 271 1203 222 1175 q 385 1231 319 1231 m 385 1092 q 344 1076 360 1092 q 329 1028 329 1060 q 344 980 329 996 q 385 964 360 964 q 425 980 410 964 q 440 1028 440 996 q 425 1076 440 1060 q 385 1092 410 1092 z "},"ǻ":{"ha":765,"x_min":21,"x_max":744,"o":"m 596 1333 l 243 1207 l 174 1344 l 499 1533 l 596 1333 m 382 796 q 268 824 317 796 q 194 898 219 851 q 168 1000 168 944 q 194 1101 168 1056 q 268 1175 219 1147 q 382 1203 317 1203 q 496 1175 447 1203 q 570 1101 544 1147 q 596 1000 596 1056 q 570 898 596 944 q 496 824 544 851 q 382 796 447 796 m 382 1064 q 342 1048 357 1064 q 326 1000 326 1032 q 342 952 326 968 q 382 936 357 936 q 422 952 407 936 q 438 1000 438 968 q 422 1048 438 1032 q 382 1064 407 1064 m 700 240 q 710 183 700 201 q 744 154 719 164 l 689 -22 q 567 6 614 -17 q 489 81 519 29 q 265 -28 417 -28 q 88 38 156 -28 q 21 208 21 104 q 113 397 21 332 q 379 463 204 463 l 432 463 l 432 481 q 410 556 432 536 q 325 575 388 575 q 240 565 292 575 q 133 536 188 554 l 74 711 q 222 754 142 739 q 367 769 301 769 q 621 702 542 769 q 700 496 700 635 l 700 240 m 350 165 q 397 178 375 165 q 432 210 418 190 l 432 319 l 403 319 q 317 299 344 319 q 289 235 289 278 q 306 184 289 203 q 350 165 322 165 z "},"ⱥ":{"ha":765,"x_min":21,"x_max":744,"o":"m 700 240 q 710 183 700 201 q 744 154 719 164 l 689 -22 q 567 6 614 -17 q 489 81 519 29 q 329 -22 433 -4 l 310 -107 l 228 -89 l 242 -26 q 81 45 142 -19 q 21 208 21 110 q 106 381 21 318 q 353 449 192 443 l 388 596 l 367 596 q 253 585 321 596 q 133 557 186 575 l 74 711 q 222 754 142 739 q 367 769 301 769 q 428 767 389 769 l 444 839 l 525 821 l 510 754 q 654 667 608 731 q 700 496 700 603 l 700 240 m 474 501 q 464 558 474 539 l 439 449 l 474 449 l 474 501 m 371 156 q 474 206 418 164 l 474 319 l 408 319 l 371 156 m 261 228 q 288 165 261 183 l 321 313 q 276 283 290 303 q 261 228 261 263 z "},"ã":{"ha":765,"x_min":21,"x_max":744,"o":"m 700 240 q 710 183 700 201 q 744 154 719 164 l 689 -22 q 567 6 614 -17 q 489 81 519 29 q 265 -28 417 -28 q 88 38 156 -28 q 21 208 21 104 q 113 397 21 332 q 379 463 204 463 l 432 463 l 432 481 q 410 556 432 536 q 325 575 388 575 q 240 565 292 575 q 133 536 188 554 l 74 711 q 222 754 142 739 q 367 769 301 769 q 621 702 542 769 q 700 496 700 635 l 700 240 m 350 165 q 397 178 375 165 q 432 210 418 190 l 432 319 l 403 319 q 317 299 344 319 q 289 235 289 278 q 306 184 289 203 q 350 165 322 165 m 465 864 q 409 874 432 864 q 360 901 386 883 q 332 918 343 913 q 308 924 321 924 q 268 910 283 924 q 235 864 253 896 l 106 926 q 185 1062 135 1008 q 301 1115 236 1115 q 360 1106 336 1115 q 411 1078 385 1096 q 439 1061 428 1067 q 463 1056 450 1056 q 501 1069 486 1056 q 535 1115 517 1083 l 664 1053 q 583 917 635 969 q 465 864 532 864 z "},"ɐ":{"ha":765,"x_min":21,"x_max":744,"o":"m 440 167 q 526 177 474 167 q 632 206 578 188 l 692 31 q 544 -12 624 3 q 399 -28 464 -28 q 144 40 224 -28 q 65 246 65 107 l 65 501 q 56 559 65 540 q 21 588 46 578 l 76 764 q 199 735 151 758 q 276 661 246 713 q 500 769 349 769 q 677 703 610 769 q 744 533 744 638 q 653 344 744 410 q 386 279 561 279 l 333 279 l 333 261 q 356 186 333 206 q 440 167 378 167 m 415 576 q 369 564 390 576 q 333 532 347 551 l 333 422 l 363 422 q 449 443 421 422 q 476 507 476 464 q 460 558 476 539 q 415 576 443 576 z "},"æ":{"ha":1193,"x_min":21,"x_max":1176,"o":"m 1176 381 q 1171 293 1176 346 l 721 293 q 767 192 732 218 q 869 167 803 167 q 949 183 908 167 q 1038 232 989 199 l 1149 82 q 843 -28 1014 -28 q 663 5 740 -28 q 533 94 585 38 q 271 -28 447 -28 q 88 38 156 -28 q 21 208 21 104 q 115 397 21 332 q 390 463 208 463 l 443 463 l 443 478 q 421 553 443 533 q 336 572 399 572 q 251 562 303 572 q 144 533 199 551 l 85 711 q 233 754 153 739 q 378 769 313 769 q 607 685 531 769 q 835 769 699 769 q 1011 724 933 769 q 1133 590 1089 678 q 1176 381 1176 501 m 906 458 q 885 560 904 524 q 818 596 867 596 q 749 564 772 596 q 719 449 726 532 l 906 449 l 906 458 m 365 165 q 416 182 394 165 q 460 231 438 199 q 449 306 450 272 l 449 313 l 417 313 q 333 293 360 313 q 307 229 307 274 q 322 183 307 200 q 365 165 338 165 z "},"ǽ":{"ha":1193,"x_min":21,"x_max":1176,"o":"m 1176 381 q 1171 293 1176 346 l 721 293 q 767 192 732 218 q 869 167 803 167 q 949 183 908 167 q 1038 232 989 199 l 1149 82 q 843 -28 1014 -28 q 663 5 740 -28 q 533 94 585 38 q 271 -28 447 -28 q 88 38 156 -28 q 21 208 21 104 q 115 397 21 332 q 390 463 208 463 l 443 463 l 443 478 q 421 553 443 533 q 336 572 399 572 q 251 562 303 572 q 144 533 199 551 l 85 711 q 233 754 153 739 q 378 769 313 769 q 607 685 531 769 q 835 769 699 769 q 1011 724 933 769 q 1133 590 1089 678 q 1176 381 1176 501 m 906 458 q 885 560 904 524 q 818 596 867 596 q 749 564 772 596 q 719 449 726 532 l 906 449 l 906 458 m 365 165 q 416 182 394 165 q 460 231 438 199 q 449 306 450 272 l 449 313 l 417 313 q 333 293 360 313 q 307 229 307 274 q 322 183 307 200 q 365 165 338 165 m 692 1189 l 794 989 l 446 851 l 372 989 l 692 1189 z "},"ǣ":{"ha":1193,"x_min":21,"x_max":1176,"o":"m 1176 381 q 1171 293 1176 346 l 721 293 q 767 192 732 218 q 869 167 803 167 q 949 183 908 167 q 1038 232 989 199 l 1149 82 q 843 -28 1014 -28 q 663 5 740 -28 q 533 94 585 38 q 271 -28 447 -28 q 88 38 156 -28 q 21 208 21 104 q 115 397 21 332 q 390 463 208 463 l 443 463 l 443 478 q 421 553 443 533 q 336 572 399 572 q 251 562 303 572 q 144 533 199 551 l 85 711 q 233 754 153 739 q 378 769 313 769 q 607 685 531 769 q 835 769 699 769 q 1011 724 933 769 q 1133 590 1089 678 q 1176 381 1176 501 m 906 458 q 885 560 904 524 q 818 596 867 596 q 749 564 772 596 q 719 449 726 532 l 906 449 l 906 458 m 365 165 q 416 182 394 165 q 460 231 438 199 q 449 306 450 272 l 449 313 l 417 313 q 333 293 360 313 q 307 229 307 274 q 322 183 307 200 q 365 165 338 165 m 822 900 l 371 900 l 371 1086 l 822 1086 l 822 900 z "},"b":{"ha":832,"x_min":58,"x_max":801,"o":"m 528 769 q 732 665 663 769 q 801 369 801 560 q 766 165 801 256 q 663 24 731 75 q 504 -28 596 -28 q 395 -3 444 -28 q 313 64 346 21 l 303 0 l 58 0 l 58 1033 l 333 1061 l 333 676 q 417 744 364 718 q 528 769 469 769 m 421 168 q 494 214 468 168 q 519 369 519 260 q 497 531 519 489 q 431 572 474 572 q 333 503 374 572 l 333 222 q 421 168 365 168 z "},"ḃ":{"ha":832,"x_min":58,"x_max":801,"o":"m 528 769 q 732 665 663 769 q 801 369 801 560 q 766 165 801 256 q 663 24 731 75 q 504 -28 596 -28 q 395 -3 444 -28 q 313 64 346 21 l 303 0 l 58 0 l 58 1033 l 333 1061 l 333 676 q 417 744 364 718 q 528 769 469 769 m 421 168 q 494 214 468 168 q 519 369 519 260 q 497 531 519 489 q 431 572 474 572 q 333 503 374 572 l 333 222 q 421 168 365 168 m 447 1393 q 558 1351 514 1393 q 601 1246 601 1308 q 558 1141 601 1183 q 447 1099 514 1099 q 337 1141 381 1099 q 293 1246 293 1183 q 337 1351 293 1308 q 447 1393 381 1393 z "},"ḅ":{"ha":832,"x_min":58,"x_max":801,"o":"m 528 769 q 732 665 663 769 q 801 369 801 560 q 766 165 801 256 q 663 24 731 75 q 504 -28 596 -28 q 395 -3 444 -28 q 313 64 346 21 l 303 0 l 58 0 l 58 1033 l 333 1061 l 333 676 q 417 744 364 718 q 528 769 469 769 m 421 168 q 494 214 468 168 q 519 369 519 260 q 497 531 519 489 q 431 572 474 572 q 333 503 374 572 l 333 222 q 421 168 365 168 m 428 -367 q 317 -324 361 -367 q 274 -219 274 -282 q 317 -115 274 -157 q 428 -72 361 -72 q 538 -115 494 -72 q 582 -219 582 -157 q 538 -324 582 -282 q 428 -367 494 -367 z "},"ꞵ":{"ha":847,"x_min":58,"x_max":828,"o":"m 564 564 q 750 493 672 553 q 828 292 828 433 q 788 126 828 199 q 676 13 747 54 q 511 -28 604 -28 q 321 26 404 -28 l 321 -278 l 58 -315 l 58 763 q 103 923 58 856 q 228 1026 149 990 q 408 1061 308 1061 q 592 1026 515 1061 q 708 931 668 992 q 747 794 747 871 q 702 647 747 707 q 564 564 657 588 m 426 179 q 518 213 485 179 q 551 319 551 247 q 513 432 551 401 q 413 463 475 463 l 368 463 l 382 642 l 394 642 q 459 674 438 642 q 481 767 481 706 q 403 874 481 874 q 342 847 364 874 q 321 765 321 819 l 321 199 q 426 179 363 179 z "},"ɓ":{"ha":832,"x_min":58,"x_max":801,"o":"m 521 769 q 731 665 661 769 q 801 369 801 561 q 766 165 801 256 q 663 24 731 75 q 504 -28 596 -28 q 395 -3 444 -28 q 313 64 346 21 l 303 0 l 58 0 l 58 785 q 139 983 58 906 q 372 1061 219 1061 q 490 1047 431 1061 q 590 1010 550 1032 l 518 839 q 410 864 464 864 q 351 843 369 864 q 333 771 333 822 l 333 676 q 416 744 364 718 q 521 769 468 769 m 424 168 q 494 214 469 168 q 519 369 519 260 q 497 531 519 489 q 432 572 474 572 q 333 503 372 572 l 333 222 q 424 168 365 168 z "},"ʭ":{"ha":528,"x_min":42,"x_max":486,"o":"m 42 556 l 42 797 l 486 797 l 486 556 l 329 556 l 329 667 l 199 667 l 199 556 l 42 556 m 42 0 l 42 242 l 486 242 l 486 0 l 329 0 l 329 111 l 199 111 l 199 0 l 42 0 z "},"ʘ":{"ha":1113,"x_min":28,"x_max":1085,"o":"m 557 994 q 834 931 714 994 q 1019 752 954 868 q 1085 485 1085 636 q 1019 222 1085 339 q 833 39 953 106 q 557 -28 713 -28 q 280 36 400 -28 q 94 217 160 100 q 28 485 28 333 q 94 747 28 631 q 281 928 160 863 q 557 994 401 994 m 557 811 q 297 485 297 811 q 557 156 297 156 q 750 235 685 156 q 815 485 815 315 q 745 731 815 650 q 557 811 675 811 m 557 600 q 646 566 611 600 q 681 482 681 532 q 646 399 681 432 q 557 365 611 365 q 468 399 503 365 q 433 482 433 432 q 468 566 433 532 q 557 600 503 600 z "},"ʬ":{"ha":653,"x_min":43,"x_max":611,"o":"m 611 929 l 532 556 l 374 556 l 333 825 l 286 556 l 132 556 l 43 929 l 156 929 l 214 636 l 263 929 l 407 929 l 454 635 l 504 929 l 611 929 m 611 374 l 532 0 l 374 0 l 333 269 l 286 0 l 132 0 l 43 374 l 156 374 l 214 81 l 263 374 l 407 374 l 454 79 l 504 374 l 611 374 z "},"ƀ":{"ha":846,"x_min":0,"x_max":815,"o":"m 542 769 q 746 665 676 769 q 815 369 815 560 q 780 165 815 256 q 677 24 744 75 q 518 -28 610 -28 q 409 -3 458 -28 q 326 64 360 21 l 317 0 l 72 0 l 72 819 l 0 819 l 0 967 l 72 967 l 72 1033 l 347 1061 l 347 967 l 517 967 l 517 819 l 347 819 l 347 676 q 431 744 378 718 q 542 769 483 769 m 435 168 q 508 214 482 168 q 533 369 533 260 q 510 531 533 489 q 444 572 488 572 q 347 503 388 572 l 347 222 q 435 168 379 168 z "},"ƃ":{"ha":832,"x_min":58,"x_max":801,"o":"m 521 742 q 731 640 661 742 q 801 356 801 538 q 766 161 801 249 q 663 23 731 74 q 504 -28 596 -28 q 395 -3 444 -28 q 313 64 346 21 l 303 0 l 58 0 l 58 1033 l 631 1033 l 603 840 l 333 840 l 333 649 q 416 716 364 690 q 521 742 468 742 m 424 168 q 519 356 519 168 q 497 505 519 465 q 432 544 474 544 q 333 475 372 544 l 333 222 q 424 168 365 168 z "},"c":{"ha":665,"x_min":24,"x_max":679,"o":"m 410 769 q 679 671 568 769 l 565 511 q 435 563 501 563 q 340 518 371 563 q 310 365 310 474 q 341 223 310 261 q 432 185 372 185 q 492 195 464 185 q 561 232 519 206 l 679 64 q 417 -28 567 -28 q 207 22 296 -28 q 71 160 118 71 q 24 365 24 250 q 72 574 24 482 q 207 717 119 665 q 410 769 294 769 z "},"ć":{"ha":665,"x_min":24,"x_max":679,"o":"m 410 769 q 679 671 568 769 l 565 511 q 435 563 501 563 q 340 518 371 563 q 310 365 310 474 q 341 223 310 261 q 432 185 372 185 q 492 195 464 185 q 561 232 519 206 l 679 64 q 417 -28 567 -28 q 207 22 296 -28 q 71 160 118 71 q 24 365 24 250 q 72 574 24 482 q 207 717 119 665 q 410 769 294 769 m 500 1189 l 603 989 l 254 851 l 181 989 l 500 1189 z "},"č":{"ha":665,"x_min":24,"x_max":689,"o":"m 410 769 q 679 671 568 769 l 565 511 q 435 563 501 563 q 340 518 371 563 q 310 365 310 474 q 341 223 310 261 q 432 185 372 185 q 492 195 464 185 q 561 232 519 206 l 679 64 q 417 -28 567 -28 q 207 22 296 -28 q 71 160 118 71 q 24 365 24 250 q 72 574 24 482 q 207 717 119 665 q 410 769 294 769 m 596 1153 l 689 1046 l 488 836 l 324 836 l 122 1046 l 215 1153 l 406 1019 l 596 1153 z "},"ç":{"ha":665,"x_min":24,"x_max":679,"o":"m 679 64 q 463 -25 583 -14 l 463 -60 q 615 -210 615 -79 q 554 -333 615 -285 q 388 -382 493 -382 q 291 -369 336 -382 q 214 -335 246 -356 l 274 -215 q 363 -240 319 -240 q 425 -207 425 -240 q 394 -176 425 -185 q 294 -167 364 -167 l 313 -17 q 100 115 176 13 q 24 365 24 217 q 72 574 24 482 q 207 717 119 665 q 410 769 294 769 q 679 671 568 769 l 565 511 q 435 563 501 563 q 340 518 371 563 q 310 365 310 474 q 341 223 310 261 q 432 185 372 185 q 492 195 464 185 q 561 232 519 206 l 679 64 z "},"ĉ":{"ha":665,"x_min":24,"x_max":689,"o":"m 410 769 q 679 671 568 769 l 565 511 q 435 563 501 563 q 340 518 371 563 q 310 365 310 474 q 341 223 310 261 q 432 185 372 185 q 492 195 464 185 q 561 232 519 206 l 679 64 q 417 -28 567 -28 q 207 22 296 -28 q 71 160 118 71 q 24 365 24 250 q 72 574 24 482 q 207 717 119 665 q 410 769 294 769 m 215 850 l 122 957 l 324 1167 l 488 1167 l 689 957 l 596 850 l 406 983 l 215 850 z "},"ɕ":{"ha":707,"x_min":24,"x_max":714,"o":"m 529 371 q 661 324 608 371 q 714 194 714 278 q 635 28 714 83 q 438 -28 557 -28 q 340 -19 381 -28 l 293 -125 l 169 -78 l 217 22 q 74 156 124 67 q 24 365 24 246 q 72 574 24 482 q 207 717 119 665 q 410 769 294 769 q 679 671 568 769 l 565 511 q 435 563 501 563 q 340 518 371 563 q 310 365 310 474 q 325 244 310 296 q 408 342 358 313 q 529 371 458 371 m 472 160 q 536 204 536 160 q 501 238 536 238 q 419 167 454 238 q 472 160 447 160 z "},"ċ":{"ha":665,"x_min":24,"x_max":679,"o":"m 410 769 q 679 671 568 769 l 565 511 q 435 563 501 563 q 340 518 371 563 q 310 365 310 474 q 341 223 310 261 q 432 185 372 185 q 492 195 464 185 q 561 232 519 206 l 679 64 q 417 -28 567 -28 q 207 22 296 -28 q 71 160 118 71 q 24 365 24 250 q 72 574 24 482 q 207 717 119 665 q 410 769 294 769 m 406 1151 q 516 1109 472 1151 q 560 1004 560 1067 q 516 899 560 942 q 406 857 472 857 q 295 899 339 857 q 251 1004 251 942 q 295 1109 251 1067 q 406 1151 339 1151 z "},"ƈ":{"ha":665,"x_min":24,"x_max":901,"o":"m 697 1061 q 901 1010 811 1061 l 829 840 q 740 864 779 864 q 694 846 708 864 q 679 789 679 828 l 679 671 l 581 532 q 440 563 515 563 q 342 518 374 563 q 310 365 310 474 q 341 223 310 261 q 432 185 372 185 q 492 195 464 185 q 561 232 519 206 l 679 64 q 417 -28 567 -28 q 207 22 296 -28 q 71 160 118 71 q 24 365 24 250 q 69 573 24 481 q 194 717 115 665 q 368 769 274 769 q 446 760 404 769 l 446 813 q 508 996 446 931 q 697 1061 569 1061 z "},"ʗ":{"ha":672,"x_min":31,"x_max":686,"o":"m 438 769 q 686 671 585 769 l 576 518 q 456 563 513 563 q 351 484 385 563 q 317 222 317 406 q 349 -29 317 44 q 444 -103 382 -103 q 503 -92 476 -103 q 568 -57 531 -82 l 686 -224 q 436 -315 574 -315 q 135 -174 240 -315 q 31 222 31 -32 q 79 513 31 390 q 219 703 128 636 q 438 769 311 769 z "},"ȼ":{"ha":665,"x_min":24,"x_max":679,"o":"m 432 185 q 492 195 464 185 q 561 232 519 206 l 679 64 q 417 -28 567 -28 q 363 -25 396 -28 l 340 -107 l 253 -86 l 274 -7 q 90 130 156 32 q 24 365 24 228 q 72 574 24 482 q 207 717 119 665 q 410 769 294 769 q 478 765 444 769 l 497 839 l 583 818 l 564 743 q 679 671 628 717 l 565 511 q 511 546 540 532 l 417 185 l 432 185 m 310 365 q 336 231 310 275 l 424 563 q 338 515 367 560 q 310 365 310 469 z "},"d":{"ha":835,"x_min":31,"x_max":776,"o":"m 776 1033 l 776 0 l 532 0 l 522 76 q 313 -28 443 -28 q 101 79 172 -28 q 31 375 31 186 q 69 578 31 489 q 178 719 108 668 q 340 769 249 769 q 501 711 436 769 l 501 1061 l 776 1033 m 406 169 q 501 235 464 169 l 501 532 q 463 563 482 553 q 419 574 443 574 q 342 526 371 574 q 313 372 313 478 q 337 210 313 250 q 406 169 361 169 z "},"ð":{"ha":811,"x_min":24,"x_max":781,"o":"m 508 936 q 717 703 654 836 q 781 394 781 571 q 737 183 781 279 q 606 29 693 86 q 397 -28 519 -28 q 206 15 290 -28 q 72 136 121 57 q 24 324 24 215 q 65 503 24 424 q 173 626 106 582 q 318 669 240 669 q 410 657 369 669 q 489 621 450 644 q 440 711 469 672 q 363 788 411 750 l 300 724 l 131 800 l 193 867 q 88 888 133 881 l 140 1060 q 339 1015 243 1046 l 444 1126 l 579 1008 l 508 936 m 403 168 q 479 210 458 168 q 500 347 500 251 l 500 453 q 401 483 457 483 q 303 326 303 483 q 328 204 303 240 q 403 168 353 168 z "},"ȸ":{"ha":1219,"x_min":31,"x_max":1189,"o":"m 936 769 q 1124 664 1058 769 q 1189 369 1189 558 q 1153 166 1189 257 q 1054 24 1118 75 q 906 -28 990 -28 q 806 -2 853 -28 q 729 72 760 24 l 718 0 l 504 0 l 493 76 q 299 -28 417 -28 q 99 80 168 -28 q 31 375 31 188 q 67 578 31 489 q 170 719 104 668 q 319 769 236 769 q 403 750 364 769 q 474 690 443 731 l 474 1033 l 749 1061 l 749 675 q 830 744 781 718 q 936 769 879 769 m 394 169 q 434 186 413 169 q 474 235 456 203 l 474 526 q 400 574 439 574 q 337 526 361 574 q 313 372 313 478 q 335 211 313 253 q 394 169 358 169 m 825 168 q 884 215 861 168 q 907 369 907 261 q 886 530 907 488 q 832 572 865 572 q 749 513 788 572 l 749 228 q 785 184 765 200 q 825 168 806 168 z "},"ď":{"ha":1026,"x_min":31,"x_max":1054,"o":"m 776 1033 l 776 0 l 532 0 l 522 76 q 313 -28 443 -28 q 101 79 172 -28 q 31 375 31 186 q 69 578 31 489 q 178 719 108 668 q 340 769 249 769 q 501 711 436 769 l 501 1061 l 776 1033 m 406 169 q 501 235 464 169 l 501 532 q 463 563 482 553 q 419 574 443 574 q 342 526 371 574 q 313 372 313 478 q 337 210 313 250 q 406 169 361 169 m 974 707 l 1054 1032 l 858 1061 l 824 729 l 974 707 z "},"ḓ":{"ha":835,"x_min":31,"x_max":776,"o":"m 776 1033 l 776 0 l 532 0 l 522 76 q 313 -28 443 -28 q 101 79 172 -28 q 31 375 31 186 q 69 578 31 489 q 178 719 108 668 q 340 769 249 769 q 501 711 436 769 l 501 1061 l 776 1033 m 406 169 q 501 235 464 169 l 501 532 q 463 563 482 553 q 419 574 443 574 q 342 526 371 574 q 313 372 313 478 q 337 210 313 250 q 406 169 361 169 m 238 -400 l 144 -293 l 346 -83 l 510 -83 l 711 -293 l 618 -400 l 428 -267 l 238 -400 z "},"đ":{"ha":849,"x_min":31,"x_max":849,"o":"m 849 967 l 849 819 l 776 819 l 776 0 l 532 0 l 522 76 q 313 -28 443 -28 q 101 79 172 -28 q 31 375 31 186 q 69 578 31 489 q 178 719 108 668 q 340 769 249 769 q 501 711 436 769 l 501 819 l 329 819 l 329 967 l 501 967 l 501 1061 l 776 1033 l 776 967 l 849 967 m 406 169 q 501 235 464 169 l 501 532 q 463 563 482 553 q 419 574 443 574 q 342 526 371 574 q 313 372 313 478 q 337 210 313 250 q 406 169 361 169 z "},"ȡ":{"ha":1138,"x_min":31,"x_max":1138,"o":"m 960 358 q 1087 313 1036 358 q 1138 190 1138 268 q 1058 26 1138 81 q 854 -28 979 -28 q 797 -25 833 -28 l 751 -125 l 628 -78 l 669 8 q 549 113 593 43 q 447 8 504 44 q 313 -28 390 -28 q 101 79 172 -28 q 31 375 31 186 q 69 580 31 490 q 178 719 107 669 q 347 769 250 769 q 430 754 389 769 q 501 711 471 739 l 501 1061 l 776 1033 l 776 306 q 782 239 776 263 q 855 331 814 303 q 960 358 896 358 m 408 169 q 506 242 465 169 q 501 306 501 271 l 501 532 q 463 563 481 553 q 421 574 444 574 q 342 526 371 574 q 313 372 313 478 q 325 243 313 288 q 358 184 338 199 q 408 169 378 169 m 906 160 q 944 169 929 160 q 960 196 960 178 q 952 217 960 210 q 931 225 944 225 q 902 212 914 225 q 875 161 890 199 q 906 160 885 160 z "},"ḋ":{"ha":835,"x_min":31,"x_max":776,"o":"m 776 1033 l 776 0 l 532 0 l 522 76 q 313 -28 443 -28 q 101 79 172 -28 q 31 375 31 186 q 69 578 31 489 q 178 719 108 668 q 340 769 249 769 q 501 711 436 769 l 501 1061 l 776 1033 m 406 169 q 501 235 464 169 l 501 532 q 463 563 482 553 q 419 574 443 574 q 342 526 371 574 q 313 372 313 478 q 337 210 313 250 q 406 169 361 169 m 411 1393 q 522 1351 478 1393 q 565 1246 565 1308 q 522 1141 565 1183 q 411 1099 478 1099 q 301 1141 344 1099 q 257 1246 257 1183 q 301 1351 257 1308 q 411 1393 344 1393 z "},"ḍ":{"ha":835,"x_min":31,"x_max":776,"o":"m 776 1033 l 776 0 l 532 0 l 522 76 q 313 -28 443 -28 q 101 79 172 -28 q 31 375 31 186 q 69 578 31 489 q 178 719 108 668 q 340 769 249 769 q 501 711 436 769 l 501 1061 l 776 1033 m 406 169 q 501 235 464 169 l 501 532 q 463 563 482 553 q 419 574 443 574 q 342 526 371 574 q 313 372 313 478 q 337 210 313 250 q 406 169 361 169 m 428 -367 q 317 -324 361 -367 q 274 -219 274 -282 q 317 -115 274 -157 q 428 -72 361 -72 q 538 -115 494 -72 q 582 -219 582 -157 q 538 -324 582 -282 q 428 -367 494 -367 z "},"ƍ":{"ha":800,"x_min":24,"x_max":776,"o":"m 563 111 q 675 17 647 63 q 703 -90 703 -28 q 622 -252 703 -189 q 372 -315 540 -315 q 215 -290 286 -315 q 96 -225 143 -265 l 217 -86 q 357 -131 288 -131 q 444 -82 444 -131 q 437 -51 444 -64 q 403 -25 429 -39 q 322 11 378 -11 q 93 160 163 74 q 24 393 24 247 q 70 596 24 511 q 201 725 117 681 q 400 769 286 769 q 676 673 576 769 q 776 406 776 576 q 724 235 776 310 q 563 111 671 160 m 306 392 q 314 293 306 328 q 349 233 322 258 q 431 179 375 208 q 485 271 472 222 q 497 392 497 319 q 474 530 497 488 q 401 572 451 572 q 329 530 353 572 q 306 392 306 488 z "},"ʤ":{"ha":1472,"x_min":31,"x_max":1458,"o":"m 1176 299 q 1385 215 1313 285 q 1458 15 1458 144 q 1411 -153 1458 -78 q 1274 -272 1364 -228 q 1061 -315 1185 -315 q 713 -162 838 -315 l 854 -25 q 947 -90 904 -69 q 1042 -110 990 -110 q 1140 -74 1101 -110 q 1178 35 1178 -37 q 1140 124 1178 97 q 1029 151 1101 151 l 889 151 l 889 300 l 1097 542 l 776 542 l 776 0 l 532 0 l 522 76 q 313 -28 443 -28 q 101 79 172 -28 q 31 375 31 186 q 69 578 31 489 q 178 719 108 668 q 340 769 249 769 q 501 711 436 769 l 501 1061 l 776 1033 l 776 742 l 1407 742 l 1407 558 l 1176 299 m 406 169 q 501 235 464 169 l 501 532 q 463 563 482 553 q 419 574 443 574 q 342 526 371 574 q 313 372 313 478 q 337 210 313 250 q 406 169 361 169 z "},"ɗ":{"ha":835,"x_min":31,"x_max":999,"o":"m 794 1061 q 999 1010 908 1061 l 926 840 q 838 864 876 864 q 791 846 806 864 q 776 789 776 828 l 776 0 l 532 0 l 522 76 q 313 -28 443 -28 q 101 79 172 -28 q 31 375 31 186 q 69 580 31 490 q 178 719 107 669 q 347 769 250 769 q 430 754 389 769 q 501 711 471 739 l 501 785 q 576 983 501 906 q 794 1061 651 1061 m 408 169 q 501 235 464 169 l 501 532 q 463 563 481 553 q 421 574 444 574 q 342 526 371 574 q 313 372 313 478 q 325 243 313 288 q 358 184 338 199 q 408 169 378 169 z "},"ḏ":{"ha":835,"x_min":31,"x_max":776,"o":"m 776 1033 l 776 0 l 532 0 l 522 76 q 313 -28 443 -28 q 101 79 172 -28 q 31 375 31 186 q 69 578 31 489 q 178 719 108 668 q 340 769 249 769 q 501 711 436 769 l 501 1061 l 776 1033 m 406 169 q 501 235 464 169 l 501 532 q 463 563 482 553 q 419 574 443 574 q 342 526 371 574 q 313 372 313 478 q 337 210 313 250 q 406 169 361 169 m 653 -281 l 201 -281 l 201 -94 l 653 -94 l 653 -281 z "},"ɖ":{"ha":835,"x_min":31,"x_max":1032,"o":"m 1032 -253 q 813 -315 946 -315 q 585 -240 669 -315 q 501 -22 501 -165 l 501 53 q 313 -28 426 -28 q 101 79 172 -28 q 31 375 31 186 q 69 580 31 490 q 178 719 107 669 q 347 769 250 769 q 430 754 389 769 q 501 711 471 739 l 501 1061 l 776 1033 l 776 -47 q 795 -102 776 -83 q 849 -121 814 -121 q 894 -115 875 -121 q 943 -96 914 -110 l 1032 -253 m 408 169 q 501 235 464 169 l 501 532 q 463 563 481 553 q 421 574 444 574 q 342 526 371 574 q 313 372 313 478 q 325 243 313 288 q 358 184 338 199 q 408 169 378 169 z "},"ƌ":{"ha":835,"x_min":31,"x_max":776,"o":"m 776 0 l 532 0 l 522 76 q 313 -28 443 -28 q 101 77 172 -28 q 31 361 31 182 q 69 556 31 469 q 179 692 107 643 q 347 742 251 742 q 430 726 389 742 q 501 683 471 711 l 501 840 l 218 840 l 218 1033 l 776 1033 l 776 0 m 408 169 q 501 235 464 169 l 501 504 q 463 535 481 525 q 421 546 444 546 q 342 501 372 546 q 313 358 313 456 q 338 208 313 246 q 408 169 363 169 z "},"ǳ":{"ha":1490,"x_min":31,"x_max":1476,"o":"m 776 1033 l 776 0 l 532 0 l 522 76 q 313 -28 443 -28 q 101 79 172 -28 q 31 375 31 186 q 69 578 31 489 q 178 719 108 668 q 340 769 249 769 q 501 711 436 769 l 501 1061 l 776 1033 m 406 169 q 501 235 464 169 l 501 532 q 463 563 482 553 q 419 574 443 574 q 342 526 371 574 q 313 372 313 478 q 337 210 313 250 q 406 169 361 169 m 1467 742 l 1467 551 l 1163 203 l 1476 203 l 1453 0 l 842 0 l 842 192 l 1150 542 l 869 542 l 869 742 l 1467 742 z "},"ʣ":{"ha":1419,"x_min":31,"x_max":1406,"o":"m 1406 203 l 1382 0 l 532 0 l 522 76 q 313 -28 443 -28 q 101 79 172 -28 q 31 375 31 186 q 69 578 31 489 q 178 719 108 668 q 340 769 249 769 q 501 711 436 769 l 501 1061 l 776 1033 l 776 742 l 1396 742 l 1396 551 l 1078 203 l 1406 203 m 406 169 q 501 235 464 169 l 501 532 q 463 563 482 553 q 419 574 443 574 q 342 526 371 574 q 313 372 313 478 q 337 210 313 250 q 406 169 361 169 m 776 542 l 776 190 l 1093 542 l 776 542 z "},"ǆ":{"ha":1490,"x_min":31,"x_max":1476,"o":"m 776 1033 l 776 0 l 532 0 l 522 76 q 313 -28 443 -28 q 101 79 172 -28 q 31 375 31 186 q 69 578 31 489 q 178 719 108 668 q 340 769 249 769 q 501 711 436 769 l 501 1061 l 776 1033 m 406 169 q 501 235 464 169 l 501 532 q 463 563 482 553 q 419 574 443 574 q 342 526 371 574 q 313 372 313 478 q 337 210 313 250 q 406 169 361 169 m 1467 742 l 1467 551 l 1163 203 l 1476 203 l 1453 0 l 842 0 l 842 192 l 1150 542 l 869 542 l 869 742 l 1467 742 m 1360 1153 l 1453 1046 l 1251 836 l 1088 836 l 886 1046 l 979 1153 l 1169 1019 l 1360 1153 z "},"ʥ":{"ha":1596,"x_min":31,"x_max":1617,"o":"m 1426 413 q 1563 363 1510 413 q 1617 229 1617 314 q 1540 59 1617 119 q 1303 0 1464 -1 q 1294 -137 1294 -42 l 1294 -183 l 1149 -183 q 1157 0 1149 -75 l 532 0 l 522 76 q 313 -28 443 -28 q 101 79 172 -28 q 31 375 31 186 q 69 578 31 489 q 178 719 108 668 q 340 769 249 769 q 501 711 436 769 l 501 1061 l 776 1033 l 776 742 l 1396 742 l 1396 565 l 1064 203 l 1185 203 q 1279 364 1218 315 q 1426 413 1340 413 m 406 169 q 501 235 464 169 l 501 532 q 463 563 482 553 q 419 574 443 574 q 342 526 371 574 q 313 372 313 478 q 337 210 313 250 q 406 169 361 169 m 776 542 l 776 197 l 1093 542 l 776 542 m 1367 203 q 1439 247 1439 203 q 1430 270 1439 261 q 1404 279 1421 279 q 1329 203 1351 279 l 1367 203 z "},"e":{"ha":774,"x_min":24,"x_max":757,"o":"m 757 381 q 751 293 757 346 l 301 293 q 348 192 313 218 q 450 167 383 167 q 529 183 489 167 q 618 232 569 199 l 729 82 q 424 -28 594 -28 q 125 81 226 -28 q 24 369 24 190 q 66 572 24 481 q 192 716 108 663 q 393 769 275 769 q 585 724 503 769 q 712 590 667 678 q 757 381 757 503 m 486 458 q 466 560 485 524 q 399 596 447 596 q 330 564 353 596 q 300 449 307 532 l 486 449 l 486 458 z "},"é":{"ha":774,"x_min":24,"x_max":757,"o":"m 757 381 q 751 293 757 346 l 301 293 q 348 192 313 218 q 450 167 383 167 q 529 183 489 167 q 618 232 569 199 l 729 82 q 424 -28 594 -28 q 125 81 226 -28 q 24 369 24 190 q 66 572 24 481 q 192 716 108 663 q 393 769 275 769 q 585 724 503 769 q 712 590 667 678 q 757 381 757 503 m 486 458 q 466 560 485 524 q 399 596 447 596 q 330 564 353 596 q 300 449 307 532 l 486 449 l 486 458 m 490 1189 l 593 989 l 244 851 l 171 989 l 490 1189 z "},"ĕ":{"ha":774,"x_min":24,"x_max":757,"o":"m 757 381 q 751 293 757 346 l 301 293 q 348 192 313 218 q 450 167 383 167 q 529 183 489 167 q 618 232 569 199 l 729 82 q 424 -28 594 -28 q 125 81 226 -28 q 24 369 24 190 q 66 572 24 481 q 192 716 108 663 q 393 769 275 769 q 585 724 503 769 q 712 590 667 678 q 757 381 757 503 m 486 458 q 466 560 485 524 q 399 596 447 596 q 330 564 353 596 q 300 449 307 532 l 486 449 l 486 458 m 396 869 q 213 947 278 869 q 139 1142 149 1025 l 282 1165 q 323 1085 294 1114 q 396 1056 351 1056 q 469 1085 440 1056 q 510 1165 497 1114 l 653 1142 q 578 947 643 1025 q 396 869 514 869 z "},"ě":{"ha":774,"x_min":24,"x_max":757,"o":"m 757 381 q 751 293 757 346 l 301 293 q 348 192 313 218 q 450 167 383 167 q 529 183 489 167 q 618 232 569 199 l 729 82 q 424 -28 594 -28 q 125 81 226 -28 q 24 369 24 190 q 66 572 24 481 q 192 716 108 663 q 393 769 275 769 q 585 724 503 769 q 712 590 667 678 q 757 381 757 503 m 486 458 q 466 560 485 524 q 399 596 447 596 q 330 564 353 596 q 300 449 307 532 l 486 449 l 486 458 m 586 1153 l 679 1046 l 478 836 l 314 836 l 113 1046 l 206 1153 l 396 1019 l 586 1153 z "},"ȩ":{"ha":774,"x_min":24,"x_max":757,"o":"m 757 381 q 751 293 757 346 l 301 293 q 348 192 313 218 q 450 167 383 167 q 529 183 489 167 q 618 232 569 199 l 729 82 q 486 -24 621 -7 l 486 -60 q 639 -210 639 -79 q 578 -333 639 -285 q 411 -382 517 -382 q 315 -369 360 -382 q 238 -335 269 -356 l 297 -215 q 386 -240 343 -240 q 449 -207 449 -240 q 418 -176 449 -185 q 318 -167 388 -167 l 336 -21 q 103 107 182 3 q 24 369 24 211 q 66 572 24 481 q 192 716 108 663 q 393 769 275 769 q 585 724 503 769 q 712 590 667 678 q 757 381 757 503 m 486 458 q 466 560 485 524 q 399 596 447 596 q 330 564 353 596 q 300 449 307 532 l 486 449 l 486 458 z "},"ê":{"ha":774,"x_min":24,"x_max":757,"o":"m 757 381 q 751 293 757 346 l 301 293 q 348 192 313 218 q 450 167 383 167 q 529 183 489 167 q 618 232 569 199 l 729 82 q 424 -28 594 -28 q 125 81 226 -28 q 24 369 24 190 q 66 572 24 481 q 192 716 108 663 q 393 769 275 769 q 585 724 503 769 q 712 590 667 678 q 757 381 757 503 m 486 458 q 466 560 485 524 q 399 596 447 596 q 330 564 353 596 q 300 449 307 532 l 486 449 l 486 458 m 206 850 l 113 957 l 314 1167 l 478 1167 l 679 957 l 586 850 l 396 983 l 206 850 z "},"ế":{"ha":774,"x_min":24,"x_max":886,"o":"m 757 381 q 751 293 757 346 l 301 293 q 348 192 313 218 q 450 167 383 167 q 529 183 489 167 q 618 232 569 199 l 729 82 q 424 -28 594 -28 q 125 81 226 -28 q 24 369 24 190 q 66 572 24 481 q 192 716 108 663 q 393 769 275 769 q 585 724 503 769 q 712 590 667 678 q 757 381 757 503 m 486 458 q 466 560 485 524 q 399 596 447 596 q 330 564 353 596 q 300 449 307 532 l 486 449 l 486 458 m 206 808 l 113 915 l 314 1111 l 478 1111 l 679 915 l 586 808 l 396 928 l 206 808 m 742 1383 l 886 1242 l 649 1035 l 547 1125 l 742 1383 z "},"ệ":{"ha":774,"x_min":24,"x_max":757,"o":"m 757 381 q 751 293 757 346 l 301 293 q 348 192 313 218 q 450 167 383 167 q 529 183 489 167 q 618 232 569 199 l 729 82 q 424 -28 594 -28 q 125 81 226 -28 q 24 369 24 190 q 66 572 24 481 q 192 716 108 663 q 393 769 275 769 q 585 724 503 769 q 712 590 667 678 q 757 381 757 503 m 486 458 q 466 560 485 524 q 399 596 447 596 q 330 564 353 596 q 300 449 307 532 l 486 449 l 486 458 m 206 850 l 113 957 l 314 1167 l 478 1167 l 679 957 l 586 850 l 396 983 l 206 850 m 408 -367 q 298 -324 342 -367 q 254 -219 254 -282 q 298 -115 254 -157 q 408 -72 342 -72 q 519 -115 475 -72 q 563 -219 563 -157 q 519 -324 563 -282 q 408 -367 475 -367 z "},"ề":{"ha":774,"x_min":-92,"x_max":757,"o":"m 757 381 q 751 293 757 346 l 301 293 q 348 192 313 218 q 450 167 383 167 q 529 183 489 167 q 618 232 569 199 l 729 82 q 424 -28 594 -28 q 125 81 226 -28 q 24 369 24 190 q 66 572 24 481 q 192 716 108 663 q 393 769 275 769 q 585 724 503 769 q 712 590 667 678 q 757 381 757 503 m 486 458 q 466 560 485 524 q 399 596 447 596 q 330 564 353 596 q 300 449 307 532 l 486 449 l 486 458 m 206 808 l 113 915 l 314 1111 l 478 1111 l 679 915 l 586 808 l 396 928 l 206 808 m 53 1383 l 247 1125 l 146 1035 l -92 1242 l 53 1383 z "},"ể":{"ha":774,"x_min":24,"x_max":806,"o":"m 757 381 q 751 293 757 346 l 301 293 q 348 192 313 218 q 450 167 383 167 q 529 183 489 167 q 618 232 569 199 l 729 82 q 424 -28 594 -28 q 125 81 226 -28 q 24 369 24 190 q 66 572 24 481 q 192 716 108 663 q 393 769 275 769 q 585 724 503 769 q 712 590 667 678 q 757 381 757 503 m 486 458 q 466 560 485 524 q 399 596 447 596 q 330 564 353 596 q 300 449 307 532 l 486 449 l 486 458 m 206 808 l 113 915 l 314 1111 l 478 1111 l 679 915 l 586 808 l 396 928 l 206 808 m 535 1221 q 610 1233 588 1222 q 633 1269 633 1244 q 619 1298 633 1288 q 582 1308 606 1308 q 540 1304 558 1308 q 496 1290 521 1300 l 456 1393 q 619 1432 521 1432 q 757 1390 708 1432 q 806 1282 806 1349 q 775 1192 806 1226 q 686 1146 744 1157 l 686 1078 l 535 1078 l 535 1221 z "},"ễ":{"ha":774,"x_min":24,"x_max":757,"o":"m 757 381 q 751 293 757 346 l 301 293 q 348 192 313 218 q 450 167 383 167 q 529 183 489 167 q 618 232 569 199 l 729 82 q 424 -28 594 -28 q 125 81 226 -28 q 24 369 24 190 q 66 572 24 481 q 192 716 108 663 q 393 769 275 769 q 585 724 503 769 q 712 590 667 678 q 757 381 757 503 m 486 458 q 466 560 485 524 q 399 596 447 596 q 330 564 353 596 q 300 449 307 532 l 486 449 l 486 458 m 206 808 l 113 915 l 314 1111 l 478 1111 l 679 915 l 586 808 l 396 928 l 206 808 m 475 1147 q 419 1156 442 1147 q 369 1181 396 1165 q 350 1191 367 1182 q 318 1200 333 1200 q 278 1188 293 1200 q 244 1147 263 1176 l 115 1203 q 195 1326 144 1278 q 311 1374 246 1374 q 370 1365 346 1374 q 421 1339 394 1356 q 440 1328 424 1338 q 472 1319 457 1319 q 511 1332 496 1319 q 544 1374 526 1344 l 674 1317 q 593 1194 644 1242 q 475 1147 542 1147 z "},"ȅ":{"ha":774,"x_min":24,"x_max":757,"o":"m 757 381 q 751 293 757 346 l 301 293 q 348 192 313 218 q 450 167 383 167 q 529 183 489 167 q 618 232 569 199 l 729 82 q 424 -28 594 -28 q 125 81 226 -28 q 24 369 24 190 q 66 572 24 481 q 192 716 108 663 q 393 769 275 769 q 585 724 503 769 q 712 590 667 678 q 757 381 757 503 m 486 458 q 466 560 485 524 q 399 596 447 596 q 330 564 353 596 q 300 449 307 532 l 486 449 l 486 458 m 226 1218 l 371 925 l 238 861 l 56 1133 l 226 1218 m 490 1218 l 624 921 l 488 867 l 317 1140 l 490 1218 z "},"ë":{"ha":774,"x_min":24,"x_max":757,"o":"m 757 381 q 751 293 757 346 l 301 293 q 348 192 313 218 q 450 167 383 167 q 529 183 489 167 q 618 232 569 199 l 729 82 q 424 -28 594 -28 q 125 81 226 -28 q 24 369 24 190 q 66 572 24 481 q 192 716 108 663 q 393 769 275 769 q 585 724 503 769 q 712 590 667 678 q 757 381 757 503 m 486 458 q 466 560 485 524 q 399 596 447 596 q 330 564 353 596 q 300 449 307 532 l 486 449 l 486 458 m 225 1136 q 319 1099 281 1136 q 357 1008 357 1061 q 319 917 357 954 q 225 879 281 879 q 132 917 171 879 q 93 1008 93 954 q 132 1099 93 1061 q 225 1136 171 1136 m 565 1136 q 659 1099 621 1136 q 697 1008 697 1061 q 659 917 697 954 q 565 879 621 879 q 472 917 511 879 q 433 1008 433 954 q 472 1099 433 1061 q 565 1136 511 1136 z "},"ė":{"ha":774,"x_min":24,"x_max":757,"o":"m 757 381 q 751 293 757 346 l 301 293 q 348 192 313 218 q 450 167 383 167 q 529 183 489 167 q 618 232 569 199 l 729 82 q 424 -28 594 -28 q 125 81 226 -28 q 24 369 24 190 q 66 572 24 481 q 192 716 108 663 q 393 769 275 769 q 585 724 503 769 q 712 590 667 678 q 757 381 757 503 m 486 458 q 466 560 485 524 q 399 596 447 596 q 330 564 353 596 q 300 449 307 532 l 486 449 l 486 458 m 396 1151 q 506 1109 463 1151 q 550 1004 550 1067 q 506 899 550 942 q 396 857 463 857 q 285 899 329 857 q 242 1004 242 942 q 285 1109 242 1067 q 396 1151 329 1151 z "},"ẹ":{"ha":774,"x_min":24,"x_max":757,"o":"m 757 381 q 751 293 757 346 l 301 293 q 348 192 313 218 q 450 167 383 167 q 529 183 489 167 q 618 232 569 199 l 729 82 q 424 -28 594 -28 q 125 81 226 -28 q 24 369 24 190 q 66 572 24 481 q 192 716 108 663 q 393 769 275 769 q 585 724 503 769 q 712 590 667 678 q 757 381 757 503 m 486 458 q 466 560 485 524 q 399 596 447 596 q 330 564 353 596 q 300 449 307 532 l 486 449 l 486 458 m 408 -367 q 298 -324 342 -367 q 254 -219 254 -282 q 298 -115 254 -157 q 408 -72 342 -72 q 519 -115 475 -72 q 563 -219 563 -157 q 519 -324 563 -282 q 408 -367 475 -367 z "},"è":{"ha":774,"x_min":24,"x_max":757,"o":"m 757 381 q 751 293 757 346 l 301 293 q 348 192 313 218 q 450 167 383 167 q 529 183 489 167 q 618 232 569 199 l 729 82 q 424 -28 594 -28 q 125 81 226 -28 q 24 369 24 190 q 66 572 24 481 q 192 716 108 663 q 393 769 275 769 q 585 724 503 769 q 712 590 667 678 q 757 381 757 503 m 486 458 q 466 560 485 524 q 399 596 447 596 q 330 564 353 596 q 300 449 307 532 l 486 449 l 486 458 m 301 1189 l 621 989 l 547 851 l 199 989 l 301 1189 z "},"ẻ":{"ha":774,"x_min":24,"x_max":757,"o":"m 757 381 q 751 293 757 346 l 301 293 q 348 192 313 218 q 450 167 383 167 q 529 183 489 167 q 618 232 569 199 l 729 82 q 424 -28 594 -28 q 125 81 226 -28 q 24 369 24 190 q 66 572 24 481 q 192 716 108 663 q 393 769 275 769 q 585 724 503 769 q 712 590 667 678 q 757 381 757 503 m 486 458 q 466 560 485 524 q 399 596 447 596 q 330 564 353 596 q 300 449 307 532 l 486 449 l 486 458 m 319 978 q 395 990 372 979 q 418 1026 418 1001 q 404 1055 418 1044 q 367 1065 390 1065 q 324 1061 343 1065 q 281 1047 306 1057 l 240 1150 q 404 1189 306 1189 q 542 1147 493 1189 q 590 1039 590 1106 q 560 949 590 983 q 471 903 529 914 l 471 835 l 319 835 l 319 978 z "},"ȇ":{"ha":774,"x_min":24,"x_max":757,"o":"m 757 381 q 751 293 757 346 l 301 293 q 348 192 313 218 q 450 167 383 167 q 529 183 489 167 q 618 232 569 199 l 729 82 q 424 -28 594 -28 q 125 81 226 -28 q 24 369 24 190 q 66 572 24 481 q 192 716 108 663 q 393 769 275 769 q 585 724 503 769 q 712 590 667 678 q 757 381 757 503 m 486 458 q 466 560 485 524 q 399 596 447 596 q 330 564 353 596 q 300 449 307 532 l 486 449 l 486 458 m 396 1121 q 578 1043 514 1121 q 653 849 643 965 l 510 825 q 469 906 497 876 q 396 935 440 935 q 323 906 351 935 q 282 825 294 876 l 139 849 q 213 1043 149 965 q 396 1121 278 1121 z "},"ē":{"ha":774,"x_min":24,"x_max":757,"o":"m 757 381 q 751 293 757 346 l 301 293 q 348 192 313 218 q 450 167 383 167 q 529 183 489 167 q 618 232 569 199 l 729 82 q 424 -28 594 -28 q 125 81 226 -28 q 24 369 24 190 q 66 572 24 481 q 192 716 108 663 q 393 769 275 769 q 585 724 503 769 q 712 590 667 678 q 757 381 757 503 m 486 458 q 466 560 485 524 q 399 596 447 596 q 330 564 353 596 q 300 449 307 532 l 486 449 l 486 458 m 621 900 l 169 900 l 169 1086 l 621 1086 l 621 900 z "},"ę":{"ha":774,"x_min":24,"x_max":757,"o":"m 757 381 q 751 293 757 346 l 301 293 q 348 192 313 218 q 450 167 383 167 q 529 183 489 167 q 618 232 569 199 l 729 82 q 557 -8 651 19 q 481 -63 503 -35 q 458 -117 458 -92 q 529 -178 458 -178 q 614 -167 565 -178 l 597 -326 q 494 -337 549 -337 q 335 -290 397 -337 q 272 -162 272 -243 q 353 -24 272 -76 q 107 102 190 -3 q 24 369 24 207 q 66 572 24 481 q 192 716 108 663 q 393 769 275 769 q 585 724 503 769 q 712 590 667 678 q 757 381 757 503 m 486 458 q 466 560 485 524 q 399 596 447 596 q 330 564 353 596 q 300 449 307 532 l 486 449 l 486 458 z "},"ɛ":{"ha":678,"x_min":24,"x_max":685,"o":"m 367 769 q 665 676 543 769 l 558 540 q 481 575 517 564 q 406 586 446 586 q 349 571 371 586 q 328 528 328 556 q 347 479 328 497 q 407 461 367 461 l 504 461 l 479 294 l 396 294 q 327 277 349 294 q 306 229 306 260 q 407 161 306 161 q 483 173 444 161 q 574 213 522 185 l 685 63 q 361 -28 561 -28 q 117 33 211 -28 q 24 204 24 93 q 229 394 24 369 q 51 564 51 431 q 138 714 51 658 q 367 769 225 769 z "},"ʚ":{"ha":800,"x_min":24,"x_max":776,"o":"m 386 -28 q 121 33 218 -28 q 24 211 24 94 q 75 336 24 292 q 229 394 126 381 q 58 561 58 435 q 148 713 58 657 q 386 769 238 769 q 596 721 508 769 q 730 583 683 672 q 776 372 776 493 q 675 76 776 179 q 386 -28 574 -28 m 385 161 q 460 181 435 161 q 496 246 486 201 q 506 372 506 290 q 480 537 506 488 q 394 586 454 586 q 345 570 363 586 q 328 525 328 554 q 404 461 328 461 l 414 461 l 429 294 l 386 294 q 319 280 339 294 q 299 232 299 265 q 385 161 299 161 z "},"ɜ":{"ha":689,"x_min":-7,"x_max":665,"o":"m 326 769 q 483 744 414 769 q 591 671 551 718 q 631 561 631 624 q 460 394 631 435 q 614 336 563 381 q 665 211 665 292 q 569 33 665 94 q 306 -28 472 -28 q -7 60 117 -28 l 119 208 q 208 171 168 181 q 296 161 247 161 q 383 229 383 161 q 296 294 383 294 l 169 294 l 185 461 l 278 461 q 354 528 354 461 q 336 571 354 556 q 285 586 318 586 q 210 575 244 586 q 139 542 175 564 l 14 682 q 326 769 143 769 z "},"ɞ":{"ha":800,"x_min":24,"x_max":776,"o":"m 414 -28 q 125 76 226 -28 q 24 372 24 179 q 70 583 24 493 q 204 721 117 672 q 414 769 292 769 q 652 713 563 769 q 742 561 742 657 q 571 394 742 435 q 725 336 674 381 q 776 211 776 292 q 679 33 776 94 q 414 -28 582 -28 m 415 161 q 501 232 501 161 q 481 280 501 265 q 414 294 461 294 l 371 294 l 386 461 l 396 461 q 472 525 472 461 q 455 570 472 554 q 406 586 438 586 q 320 537 346 586 q 294 372 294 488 q 304 246 294 290 q 340 181 314 201 q 415 161 365 161 z "},"ɝ":{"ha":1093,"x_min":-7,"x_max":1107,"o":"m 1107 472 q 926 421 1031 421 q 770 463 828 421 q 694 581 713 506 l 693 586 l 631 549 q 460 394 622 433 q 614 336 563 381 q 665 211 665 292 q 569 33 665 94 q 306 -28 472 -28 q -7 60 117 -28 l 119 208 q 208 171 168 181 q 296 161 247 161 q 383 229 383 161 q 296 294 383 294 l 169 294 l 185 461 l 278 461 q 354 528 354 461 q 336 571 354 556 q 285 586 318 586 q 210 575 244 586 q 139 542 175 564 l 14 682 q 326 769 143 769 q 471 748 406 769 q 576 688 536 726 l 679 742 l 899 742 l 899 668 q 915 620 899 636 q 960 604 932 604 q 1011 612 989 604 q 1038 621 1033 619 l 1107 472 z "},"ɘ":{"ha":774,"x_min":17,"x_max":750,"o":"m 381 769 q 658 660 565 769 q 750 369 750 551 q 649 81 750 190 q 350 -28 547 -28 q 44 82 179 -28 l 156 232 q 244 183 204 199 q 324 167 285 167 q 426 192 390 167 q 472 293 461 218 l 22 293 q 17 381 17 346 q 62 590 17 503 q 190 724 107 678 q 381 769 272 769 m 288 449 l 474 449 q 447 566 468 536 q 379 596 426 596 q 308 560 328 596 q 288 458 289 524 l 288 449 z "},"ʃ":{"ha":392,"x_min":-197,"x_max":556,"o":"m 351 1061 q 556 1010 465 1061 l 483 840 q 394 864 433 864 q 348 846 363 864 q 333 789 333 828 l 333 -22 q 249 -240 333 -165 q 22 -315 165 -315 q -197 -253 -111 -315 l -108 -96 q -60 -115 -79 -110 q -14 -121 -40 -121 q 40 -102 21 -121 q 58 -47 58 -83 l 58 785 q 133 983 58 906 q 351 1061 208 1061 z "},"ʆ":{"ha":500,"x_min":-104,"x_max":664,"o":"m 442 79 q 439 0 442 50 q 571 -57 506 -22 l 525 -162 q 417 -121 485 -144 q 311 -267 385 -219 q 117 -315 238 -315 q -47 -270 10 -315 q -104 -143 -104 -225 q -44 -4 -104 -53 q 121 44 17 44 q 167 43 151 44 l 167 785 q 242 983 167 906 q 460 1061 317 1061 q 664 1010 574 1061 l 592 840 q 503 864 542 864 q 456 846 471 864 q 442 789 442 828 l 442 79 m 94 -185 q 146 -160 129 -185 q 165 -78 163 -136 q 119 -76 151 -76 q 43 -135 43 -76 q 56 -172 43 -158 q 94 -185 69 -185 z "},"ƪ":{"ha":639,"x_min":-28,"x_max":836,"o":"m 836 -253 q 617 -315 750 -315 q 390 -240 474 -315 q 306 -22 306 -165 l 306 549 q 215 532 263 532 q 40 604 107 532 q -28 794 -28 676 q 7 931 -28 871 q 108 1026 42 992 q 268 1061 175 1061 q 438 1024 367 1061 q 544 921 508 986 q 581 771 581 856 l 581 -47 q 599 -102 581 -83 q 653 -121 618 -121 q 699 -115 679 -121 q 747 -96 718 -110 l 836 -253 m 267 715 q 306 719 288 715 l 306 814 q 256 878 306 878 q 200 799 200 878 q 217 735 200 756 q 267 715 233 715 z "},"ʅ":{"ha":711,"x_min":-21,"x_max":732,"o":"m 732 35 q 513 -28 646 -28 q 285 47 369 -28 q 201 265 201 122 l 201 497 q 187 554 201 536 q 140 572 172 572 q 51 549 101 572 l -21 718 q 183 769 69 769 q 401 692 326 769 q 476 493 476 614 l 476 240 q 495 185 476 204 q 549 167 514 167 q 594 172 575 167 q 643 192 614 178 l 732 35 z "},"ɇ":{"ha":774,"x_min":24,"x_max":757,"o":"m 417 300 l 383 171 q 450 167 413 167 q 529 183 489 167 q 618 232 569 199 l 729 82 q 424 -28 594 -28 q 332 -21 381 -28 l 310 -107 l 228 -86 l 250 0 q 81 139 138 42 q 24 369 24 236 q 66 572 24 481 q 192 716 108 663 q 393 769 275 769 q 453 765 424 769 l 472 839 l 553 818 l 535 747 q 699 615 640 708 q 757 381 757 521 q 751 300 757 353 l 417 300 m 399 603 q 307 567 336 603 q 272 442 278 532 l 367 442 l 410 603 l 399 603 m 521 451 q 513 524 519 494 q 488 572 506 553 l 454 442 l 521 442 l 521 451 m 329 300 l 274 300 q 306 210 279 240 l 329 300 z "},"ẽ":{"ha":774,"x_min":24,"x_max":757,"o":"m 757 381 q 751 293 757 346 l 301 293 q 348 192 313 218 q 450 167 383 167 q 529 183 489 167 q 618 232 569 199 l 729 82 q 424 -28 594 -28 q 125 81 226 -28 q 24 369 24 190 q 66 572 24 481 q 192 716 108 663 q 393 769 275 769 q 585 724 503 769 q 712 590 667 678 q 757 381 757 503 m 486 458 q 466 560 485 524 q 399 596 447 596 q 330 564 353 596 q 300 449 307 532 l 486 449 l 486 458 m 476 864 q 420 874 443 864 q 371 901 397 883 q 343 918 354 913 q 319 924 332 924 q 279 910 294 924 q 246 864 264 896 l 117 926 q 197 1062 146 1008 q 313 1115 247 1115 q 372 1106 347 1115 q 422 1078 396 1096 q 450 1061 439 1067 q 474 1056 461 1056 q 513 1069 497 1056 q 546 1115 528 1083 l 675 1053 q 594 917 646 969 q 476 864 543 864 z "},"ǝ":{"ha":774,"x_min":17,"x_max":750,"o":"m 374 769 q 656 661 561 769 q 750 372 750 553 q 708 170 750 261 q 582 26 665 79 q 381 -28 499 -28 q 189 18 271 -28 q 62 151 107 64 q 17 361 17 239 q 22 449 17 396 l 492 449 q 454 549 486 517 q 363 582 422 582 q 269 569 313 582 q 176 525 225 556 l 65 671 q 201 744 126 718 q 374 769 275 769 m 381 160 q 458 191 431 160 q 492 293 485 222 l 274 293 l 274 283 q 303 193 276 226 q 381 160 329 160 z "},"ə":{"ha":774,"x_min":17,"x_max":750,"o":"m 374 769 q 656 661 561 769 q 750 372 750 553 q 708 170 750 261 q 582 26 665 79 q 381 -28 499 -28 q 189 18 271 -28 q 62 151 107 64 q 17 361 17 239 q 22 449 17 396 l 492 449 q 454 549 486 517 q 363 582 422 582 q 269 569 313 582 q 176 525 225 556 l 65 671 q 201 744 126 718 q 374 769 275 769 m 381 160 q 458 191 431 160 q 492 293 485 222 l 274 293 l 274 283 q 303 193 276 226 q 381 160 329 160 z "},"ɚ":{"ha":1190,"x_min":17,"x_max":1204,"o":"m 1204 472 q 1024 421 1128 421 q 867 463 925 421 q 792 581 810 506 l 790 586 l 724 546 q 750 372 750 471 q 708 170 750 261 q 582 26 665 79 q 381 -28 499 -28 q 189 18 271 -28 q 62 151 107 64 q 17 361 17 239 q 22 449 17 396 l 492 449 q 454 549 486 517 q 363 582 422 582 q 269 569 313 582 q 176 525 225 556 l 65 671 q 201 744 126 718 q 374 769 275 769 q 646 672 546 769 l 776 742 l 996 742 l 996 668 q 1013 620 996 636 q 1057 604 1029 604 q 1108 612 1086 604 q 1135 621 1131 619 l 1204 472 m 381 160 q 458 191 431 160 q 492 293 485 222 l 274 293 l 274 283 q 303 193 276 226 q 381 160 329 160 z "},"ʒ":{"ha":732,"x_min":-28,"x_max":718,"o":"m 436 299 q 645 215 572 285 q 718 15 718 144 q 671 -153 718 -78 q 534 -272 624 -228 q 321 -315 444 -315 q -28 -162 97 -315 l 114 -25 q 207 -90 164 -69 q 301 -110 250 -110 q 399 -74 361 -110 q 438 35 438 -37 q 399 124 438 97 q 289 151 361 151 l 149 151 l 149 300 l 357 542 l 35 542 l 35 742 l 667 742 l 667 558 l 436 299 z "},"ǯ":{"ha":732,"x_min":-28,"x_max":718,"o":"m 436 299 q 645 215 572 285 q 718 15 718 144 q 671 -153 718 -78 q 534 -272 624 -228 q 321 -315 444 -315 q -28 -162 97 -315 l 114 -25 q 207 -90 164 -69 q 301 -110 250 -110 q 399 -74 361 -110 q 438 35 438 -37 q 399 124 438 97 q 289 151 361 151 l 149 151 l 149 300 l 357 542 l 35 542 l 35 742 l 667 742 l 667 558 l 436 299 m 542 1153 l 635 1046 l 433 836 l 269 836 l 68 1046 l 161 1153 l 351 1019 l 542 1153 z "},"ʓ":{"ha":732,"x_min":-28,"x_max":718,"o":"m 718 22 q 658 -169 718 -87 q 479 -287 597 -250 l 517 -365 l 393 -412 l 347 -312 q 279 -315 306 -315 q 56 -254 140 -315 q -28 -82 -28 -193 q 24 53 -28 6 q 157 100 76 100 q 278 63 231 100 q 369 -62 326 26 l 381 -86 q 438 42 438 -54 q 400 138 438 110 q 289 165 363 165 l 149 165 l 149 314 l 361 542 l 35 542 l 35 742 l 667 742 l 667 558 l 436 313 q 718 22 718 282 m 150 -68 q 173 -101 150 -92 q 261 -110 196 -110 q 224 -51 240 -68 q 185 -33 207 -33 q 150 -68 150 -33 z "}}}
